<svg width="83" height="31" viewBox="0 0 83 31" fill="none" xmlns="http://www.w3.org/2000/svg">
<path d="M67.9304 19.04H66.1404V12.52H67.9304V19.04ZM66.3204 18.86H67.7504V12.71H66.3204V18.86Z" fill="white"/>
<path d="M68.0203 12.43V19.13H66.2304C66.1304 19.13 66.0504 19.05 66.0504 18.95C66.0504 18.85 66.1304 18.77 66.2304 18.77H67.6604V12.8H66.2304C66.1304 12.8 66.0504 12.72 66.0504 12.62C66.0504 12.52 66.1304 12.44 66.2304 12.44H68.0203V12.43Z" fill="white"/>
<path d="M82.0804 12.47C82.0404 12.47 82.0004 12.49 81.9704 12.52H80.6904C80.6704 12.49 80.6304 12.47 80.5804 12.47C80.5004 12.47 80.4404 12.53 80.4404 12.61V16.06L77.7604 12.53C77.7104 12.47 77.6304 12.46 77.5704 12.5C77.5604 12.51 77.5504 12.52 77.5404 12.53H76.1404V19.05H77.8304V18.97C77.8604 18.95 77.8803 18.91 77.8803 18.87V15.43L79.5303 17.61L80.6104 19.06H82.1703V18.98C82.2003 18.96 82.2204 18.92 82.2204 18.88V12.63C82.2204 12.53 82.1604 12.47 82.0804 12.47ZM76.3304 12.71H77.5603L80.7204 16.87V12.71H81.9503V18.86H80.8004C80.8004 18.83 80.7903 18.8 80.7703 18.77L77.6104 14.6V18.85H76.3304V12.71Z" fill="white"/>
<path d="M46.1104 19.04H44.5504L41.7704 15.32V19.04H40.0804V12.52H41.6404L44.4304 16.25V12.52H46.1104V19.04ZM44.6404 18.86H45.9204V12.71H44.6004V16.8L41.5404 12.71H40.2604V18.86H41.5904V14.78L44.6404 18.86ZM44.6004 18.99C44.5604 18.99 44.5204 18.97 44.4904 18.94L41.8204 15.42V18.86C41.8204 18.94 41.7604 19 41.6804 19C41.6004 19 41.5404 18.94 41.5404 18.86V14.6L44.7004 18.77C44.7504 18.83 44.7304 18.92 44.6704 18.96C44.6504 18.98 44.6304 18.99 44.6004 18.99ZM46.0204 18.99C45.9404 18.99 45.8804 18.93 45.8804 18.85V12.6C45.8804 12.52 45.9404 12.46 46.0204 12.46C46.1004 12.46 46.1604 12.52 46.1604 12.6V18.85C46.1504 18.93 46.0904 18.99 46.0204 18.99ZM44.6504 16.87L41.4804 12.69C41.4304 12.63 41.4504 12.54 41.5104 12.5C41.5704 12.45 41.6604 12.47 41.7004 12.53L44.3804 16.06V12.61C44.3804 12.53 44.4404 12.47 44.5204 12.47C44.6004 12.47 44.6604 12.53 44.6604 12.61V16.87H44.6504Z" fill="white"/>
<path d="M51.7704 13.86C51.7704 13.77 51.8404 13.7 51.9304 13.7C52.0204 13.7 52.0904 13.77 52.0904 13.86C52.0904 13.95 52.0204 14.02 51.9304 14.02C51.8404 14.02 51.7704 13.95 51.7704 13.86Z" fill="white"/>
<path d="M50.3104 19.04H48.5204V14H46.6304V12.51H52.2204V14H50.3104V19.04ZM48.7004 18.86H50.1304V13.82H52.0404V12.7H46.8104V13.82H48.7004V18.86Z" fill="white"/>
<path d="M55.6304 19.11C53.8004 19.11 52.6204 18 52.6204 16.29V12.53H54.4104V16.29C54.4104 17.08 54.8904 17.58 55.6404 17.58C56.3704 17.58 56.8204 17.08 56.8204 16.29V12.53H58.6004V16.29C58.6104 18.01 57.4404 19.11 55.6304 19.11ZM52.8004 12.71V16.29C52.8004 17.92 53.8904 18.93 55.6304 18.93C57.3504 18.93 58.4304 17.92 58.4304 16.29V12.71H57.0004V16.29C57.0004 17.19 56.4604 17.77 55.6304 17.77C54.7904 17.77 54.2204 17.18 54.2204 16.29V12.71H52.8004ZM55.6304 19.08C55.5504 19.08 55.4904 19.02 55.4904 18.94C55.4904 18.86 55.5504 18.8 55.6304 18.8C57.3304 18.8 58.3804 17.81 58.3804 16.2V12.53C58.3804 12.45 58.4404 12.39 58.5204 12.39C58.6004 12.39 58.6604 12.45 58.6604 12.53V16.2C58.6504 17.95 57.4604 19.08 55.6304 19.08ZM55.6404 17.73C54.7704 17.73 54.1804 17.12 54.1804 16.21V12.54C54.1804 12.46 54.2404 12.4 54.3204 12.4C54.4004 12.4 54.4604 12.46 54.4604 12.54V16.21C54.4604 16.97 54.9204 17.46 55.6404 17.46C56.3404 17.46 56.7804 16.98 56.7804 16.21V12.54C56.7804 12.46 56.8404 12.4 56.9204 12.4C57.0004 12.4 57.0604 12.46 57.0604 12.54V16.21C57.0504 17.13 56.4904 17.73 55.6404 17.73Z" fill="white"/>
<path d="M32.5304 16.88C32.5304 16.84 32.5204 16.8 32.4904 16.77C32.4404 16.72 32.3504 16.72 32.3004 16.77C31.8804 17.2 31.3004 17.47 30.8104 17.47C29.8804 17.47 29.1804 16.73 29.1804 15.74C29.1804 14.77 29.8804 14.04 30.8104 14.04C31.3404 14.04 31.9004 14.34 32.3004 14.81C32.3304 14.84 32.3604 14.86 32.4004 14.86L32.4104 14.87L32.4204 14.86C32.4504 14.86 32.4804 14.85 32.5004 14.83C32.5404 14.8 32.5504 14.75 32.5504 14.71L33.4704 13.62L33.4104 13.56C32.7504 12.88 31.7504 12.46 30.7904 12.46C28.8104 12.46 27.3104 13.88 27.3104 15.75C27.3104 17.66 28.7804 19.1 30.7304 19.1C31.6704 19.1 32.7004 18.65 33.4104 17.91L33.4704 17.85L32.5304 16.88ZM30.7204 18.93C28.8704 18.93 27.4804 17.57 27.4804 15.76C27.4804 13.99 28.9004 12.65 30.7704 12.65C31.6504 12.65 32.5704 13.02 33.2004 13.63L32.4204 14.55C31.9804 14.06 31.3704 13.77 30.8004 13.77C29.7204 13.77 28.9004 14.62 28.9004 15.74C28.9004 16.88 29.7204 17.74 30.8004 17.74C31.3404 17.74 31.9604 17.47 32.4204 17.02L33.2104 17.85C32.5404 18.52 31.5904 18.93 30.7204 18.93Z" fill="white"/>
<path d="M72.1104 12.44C72.0804 12.44 72.0503 12.45 72.0303 12.47C70.0703 12.51 68.6003 13.91 68.6003 15.77C68.6003 17.64 70.0503 19.05 71.9903 19.11C72.0103 19.15 72.0604 19.18 72.1104 19.18C74.1404 19.18 75.6804 17.72 75.6804 15.79C75.6704 13.88 74.1404 12.44 72.1104 12.44ZM72.1104 18.91C72.0804 18.91 72.0503 18.92 72.0303 18.93C70.1703 18.89 68.7803 17.55 68.7803 15.77C68.7803 14.03 70.1503 12.7 71.9903 12.65C72.0103 12.69 72.0603 12.71 72.1003 12.71C73.9803 12.71 75.3904 14.03 75.3904 15.79C75.4004 17.57 73.9804 18.91 72.1104 18.91Z" fill="white"/>
<path d="M72.1204 13.77C72.0904 13.77 72.0704 13.78 72.0404 13.79C71.0004 13.84 70.2003 14.7 70.2003 15.8C70.2003 16.92 71.0703 17.83 72.1303 17.83C72.1603 17.83 72.1803 17.82 72.2003 17.81C73.2303 17.77 74.0203 16.9 74.0203 15.78C74.0203 14.66 73.1904 13.77 72.1204 13.77ZM70.4704 15.8C70.4704 14.83 71.2004 14.06 72.1204 14.06C72.1404 14.06 72.1604 14.05 72.1804 14.04C73.0604 14.07 73.7403 14.82 73.7403 15.77C73.7403 16.75 73.0304 17.52 72.1204 17.52C72.1004 17.52 72.0803 17.53 72.0603 17.54C71.1803 17.52 70.4704 16.75 70.4704 15.8Z" fill="white"/>
<path d="M50.2204 19.01C50.1304 19.01 50.0604 18.94 50.0604 18.85V13.74H51.9704V12.62C51.9704 12.53 52.0404 12.46 52.1304 12.46C52.2204 12.46 52.2904 12.53 52.2904 12.62V14.06H50.3804V18.85C50.3804 18.94 50.3104 19.01 50.2204 19.01Z" fill="white"/>
<path d="M61.1904 15.99H62.5004C62.9404 15.99 63.2704 15.85 63.4704 15.6C63.6504 15.4 63.7404 15.14 63.7404 14.8C63.7404 14.08 63.2904 13.67 62.5004 13.67H61.1404V15.96H61.1904V15.99ZM63.4704 14.81C63.4704 15.54 62.9404 15.7 62.5004 15.7H61.4204V13.98H62.5004C62.8004 13.98 63.1304 14.05 63.3304 14.29C63.4304 14.42 63.4704 14.59 63.4704 14.81Z" fill="white"/>
<path d="M65.4903 19.04L65.4404 18.95C65.4704 18.91 65.4704 18.85 65.4404 18.8L64.2004 16.85C64.4104 16.72 64.6004 16.56 64.7504 16.38C65.1004 15.97 65.2904 15.42 65.2904 14.75C65.2904 13.26 64.2804 12.41 62.5204 12.41H59.6904C59.6104 12.41 59.5504 12.47 59.5504 12.55C59.5504 12.59 59.5704 12.63 59.6004 12.65V19.05H61.3904V18.99C61.4204 18.97 61.4404 18.93 61.4404 18.89V17.27H62.5004L63.3904 18.95C63.4004 18.97 63.4104 18.98 63.4204 18.99L63.4504 19.05H65.4903V19.04ZM59.7604 12.71H62.5004C63.4504 12.71 64.1504 12.96 64.5804 13.44C64.8604 13.77 65.0004 14.21 65.0004 14.75C65.0004 15.65 64.6304 16.31 63.9304 16.66L63.7904 16.73L65.1404 18.86H63.6204C63.6204 18.84 63.6104 18.83 63.6104 18.81L62.6304 16.95H62.5004C62.4304 16.95 62.3704 17 62.3704 17.07H61.4204C61.4104 17 61.3504 16.95 61.2904 16.95C61.2104 16.95 61.1504 17.01 61.1504 17.09V18.85H59.7704V12.71H59.7604Z" fill="white"/>
<path d="M39.2204 17.6C39.1904 17.58 39.1604 17.56 39.1304 17.56C39.1004 17.56 39.0704 17.57 39.0404 17.59H35.8204V16.5H38.5904C38.6104 16.54 38.6604 16.56 38.7004 16.56C38.7804 16.56 38.8404 16.5 38.8404 16.42V15.15C38.8404 15.11 38.8204 15.07 38.7904 15.05C38.7704 15.03 38.7404 15.02 38.7004 15.02C38.6604 15.02 38.6404 15.03 38.6104 15.05H35.8104V13.97H38.8904C38.9104 14.03 38.9604 14.07 39.0204 14.07C39.1004 14.07 39.1604 14.01 39.1604 13.93V12.66C39.1604 12.62 39.1404 12.58 39.1104 12.56V12.51H33.9704V19.03H39.0104C39.0304 19.07 39.0804 19.09 39.1204 19.09C39.2004 19.09 39.2604 19.03 39.2604 18.95V17.7C39.2704 17.66 39.2504 17.62 39.2204 17.6ZM38.8904 12.71V13.79H35.7704C35.7504 13.77 35.7204 13.76 35.6804 13.76C35.6504 13.76 35.6204 13.77 35.5904 13.79C35.5604 13.82 35.5404 13.85 35.5404 13.89V15.15C35.5404 15.23 35.6004 15.29 35.6804 15.29C35.7304 15.29 35.7704 15.27 35.7904 15.23H38.5604V16.31H35.7604C35.7404 16.29 35.7104 16.28 35.6704 16.28C35.6404 16.28 35.6104 16.29 35.5804 16.31C35.5504 16.33 35.5304 16.37 35.5304 16.41V17.69C35.5304 17.77 35.5904 17.83 35.6704 17.83C35.7204 17.83 35.7604 17.81 35.7804 17.77H38.9804V18.85H34.1504V12.71H38.8904Z" fill="white"/>
<path d="M77.6303 18.74L76.9704 18.19L76.3604 18.71L76.3004 18.64L76.9604 18.07L77.6904 18.67L77.6303 18.74Z" fill="white"/>
<path d="M76.3304 18.84C76.2804 18.84 76.2303 18.82 76.2003 18.78C76.1703 18.74 76.1604 18.7 76.1604 18.65C76.1604 18.6 76.1904 18.56 76.2204 18.53C76.2604 18.5 76.3003 18.49 76.3503 18.49C76.4003 18.49 76.4404 18.52 76.4704 18.55C76.5304 18.62 76.5203 18.73 76.4503 18.8C76.4103 18.83 76.3704 18.84 76.3304 18.84Z" fill="white"/>
<path d="M77.6604 18.82C77.6304 18.82 77.6004 18.81 77.5804 18.79C77.5304 18.75 77.5203 18.67 77.5603 18.62C77.5803 18.59 77.6104 18.58 77.6404 18.58C77.6704 18.58 77.7004 18.59 77.7304 18.61C77.7604 18.63 77.7703 18.66 77.7703 18.69C77.7703 18.72 77.7603 18.75 77.7403 18.78C77.7303 18.81 77.6904 18.82 77.6604 18.82ZM77.6404 18.73C77.6504 18.74 77.6704 18.74 77.6804 18.73C77.6904 18.72 77.6904 18.72 77.6904 18.71C77.6904 18.7 77.6904 18.69 77.6804 18.69C77.6704 18.68 77.6604 18.68 77.6604 18.68C77.6504 18.68 77.6404 18.68 77.6404 18.69C77.6204 18.7 77.6204 18.72 77.6404 18.73Z" fill="white"/>
<path d="M81.5704 18.14V13.53L82.1104 12.63L82.0603 12.6L81.5303 13.47L80.6003 12.59L80.5603 12.63L81.5104 13.53V18.13C81.4304 18.14 81.3604 18.2 81.3604 18.28C81.3604 18.28 81.3604 18.28 81.3604 18.29H80.9604L79.3904 15.95L80.5404 16.81C80.5404 16.83 80.5404 16.86 80.5704 16.88C80.6004 16.9 80.6403 16.9 80.6703 16.87C80.6903 16.84 80.6904 16.8 80.6604 16.77C80.6404 16.75 80.6103 16.75 80.5903 16.76L79.3004 15.79L77.7604 13.5L77.7504 13.49H77.0903C77.0603 13.46 77.0303 13.45 76.9903 13.46L76.3904 12.72C76.4104 12.69 76.4103 12.65 76.3803 12.61C76.3503 12.57 76.2904 12.56 76.2504 12.6C76.2104 12.63 76.2003 12.69 76.2403 12.73C76.2703 12.76 76.3103 12.77 76.3403 12.76L76.9404 13.5C76.9204 13.53 76.9203 13.57 76.9503 13.61C76.9503 13.62 76.9604 13.62 76.9704 13.62V14.52C76.9404 14.52 76.9204 14.54 76.9104 14.56C76.9004 14.59 76.9103 14.61 76.9203 14.63L76.3103 16.18C76.2603 16.17 76.2104 16.2 76.1904 16.25C76.1704 16.31 76.2004 16.38 76.2604 16.4C76.3204 16.42 76.3904 16.39 76.4104 16.33C76.4304 16.28 76.4104 16.23 76.3704 16.2L76.9704 14.68V18.11H77.0303V14.62L77.0404 14.61C77.0504 14.59 77.0403 14.56 77.0303 14.55V13.64C77.0503 13.64 77.0704 13.63 77.0804 13.62C77.1004 13.6 77.1104 13.58 77.1104 13.55H77.7204L79.1904 15.74L79.1504 16.63C79.1004 16.64 79.0603 16.68 79.0603 16.74C79.0603 16.8 79.1103 16.86 79.1703 16.86C79.2303 16.86 79.2904 16.81 79.2904 16.75C79.2904 16.7 79.2604 16.65 79.2104 16.64L79.2403 15.83L80.9203 18.33L80.9304 18.34H81.3704L81.0004 18.6C80.9504 18.55 80.8904 18.52 80.8204 18.52C80.6804 18.52 80.5704 18.63 80.5704 18.77C80.5704 18.91 80.6804 19.02 80.8204 19.02C80.9604 19.02 81.0704 18.91 81.0704 18.77C81.0704 18.73 81.0604 18.69 81.0404 18.66L81.4104 18.41C81.4404 18.44 81.4803 18.45 81.5203 18.45C81.6103 18.45 81.6703 18.38 81.6703 18.3C81.6703 18.22 81.6304 18.16 81.5704 18.14Z" fill="white"/>
<path d="M45.5004 18.14V13.53L46.0404 12.63L45.9904 12.6L45.4604 13.47L44.5303 12.59L44.4904 12.63L45.4403 13.53V18.13C45.3603 18.14 45.2904 18.2 45.2904 18.28C45.2904 18.28 45.2904 18.28 45.2904 18.29H44.8904L43.3204 15.95L44.4704 16.81C44.4704 16.83 44.4704 16.86 44.5004 16.88C44.5304 16.9 44.5703 16.9 44.6003 16.87C44.6203 16.84 44.6204 16.8 44.5904 16.77C44.5704 16.75 44.5404 16.75 44.5204 16.76L43.2304 15.79L41.6904 13.5L41.6804 13.49H41.0204C40.9904 13.46 40.9604 13.45 40.9204 13.46L40.3204 12.72C40.3404 12.69 40.3404 12.65 40.3104 12.61C40.2804 12.57 40.2204 12.56 40.1804 12.6C40.1404 12.64 40.1304 12.69 40.1704 12.73C40.2004 12.76 40.2404 12.77 40.2704 12.76L40.8704 13.5C40.8504 13.53 40.8504 13.57 40.8804 13.61C40.8804 13.62 40.8904 13.62 40.9004 13.62V14.52C40.8704 14.52 40.8504 14.54 40.8404 14.56C40.8304 14.59 40.8404 14.61 40.8504 14.63L40.2404 16.18C40.1904 16.17 40.1404 16.2 40.1204 16.25C40.1004 16.31 40.1304 16.38 40.1904 16.4C40.2504 16.42 40.3204 16.39 40.3404 16.33C40.3604 16.28 40.3404 16.23 40.3004 16.2L40.9004 14.68V18.09L40.3404 18.56C40.3004 18.53 40.2404 18.53 40.2004 18.57C40.1504 18.61 40.1504 18.68 40.1904 18.73C40.2304 18.78 40.3004 18.78 40.3504 18.74C40.3904 18.71 40.4004 18.65 40.3804 18.6L40.9204 18.14L41.5504 18.66C41.5404 18.68 41.5504 18.71 41.5704 18.73C41.6004 18.75 41.6404 18.75 41.6704 18.72C41.6904 18.69 41.6904 18.65 41.6604 18.62C41.6404 18.6 41.6104 18.6 41.5904 18.61L40.9604 18.09V14.6L40.9704 14.59C40.9804 14.57 40.9704 14.54 40.9604 14.53V13.62C40.9804 13.62 41.0004 13.61 41.0104 13.6C41.0304 13.58 41.0404 13.56 41.0404 13.53H41.6504L43.1204 15.72L43.0804 16.61C43.0304 16.62 42.9904 16.66 42.9904 16.72C42.9904 16.78 43.0404 16.84 43.1004 16.84C43.1604 16.84 43.2204 16.79 43.2204 16.73C43.2204 16.68 43.1904 16.63 43.1404 16.62L43.1704 15.81L44.8503 18.31L44.8604 18.32H45.2904L44.9304 18.57C44.8804 18.52 44.8204 18.49 44.7504 18.49C44.6104 18.49 44.5004 18.6 44.5004 18.74C44.5004 18.88 44.6104 18.99 44.7504 18.99C44.8904 18.99 45.0004 18.88 45.0004 18.74C45.0004 18.7 44.9904 18.66 44.9704 18.63L45.3404 18.38C45.3704 18.41 45.4104 18.42 45.4504 18.42C45.5404 18.42 45.6003 18.35 45.6003 18.27C45.6103 18.22 45.5604 18.16 45.5004 18.14Z" fill="white"/>
<path d="M51.3104 12.55L50.3904 13.58L49.5604 12.89C49.5804 12.86 49.5904 12.82 49.5904 12.78C49.5904 12.68 49.5104 12.59 49.4004 12.59C49.2904 12.59 49.2104 12.67 49.2104 12.78C49.2104 12.79 49.2104 12.8 49.2104 12.81L46.9304 13.76C46.8904 13.71 46.8204 13.69 46.7604 13.71C46.6904 13.74 46.6604 13.82 46.6904 13.89C46.7204 13.96 46.8004 13.99 46.8704 13.96C46.9304 13.93 46.9604 13.87 46.9504 13.81L49.2304 12.86C49.2604 12.91 49.3004 12.95 49.3604 12.95V15.32L48.6004 13.87L48.5504 13.9L49.3604 15.45V16.86C49.3404 16.85 49.3104 16.85 49.2904 16.85C49.1204 16.85 48.9904 16.99 48.9904 17.15C48.9904 17.28 49.0704 17.39 49.1904 17.43L48.7304 18.49L48.6804 18.53H48.7104L48.6204 18.74C48.5804 18.74 48.5504 18.76 48.5304 18.79C48.5104 18.84 48.5304 18.89 48.5804 18.91C48.6304 18.93 48.6804 18.91 48.7004 18.86C48.7204 18.82 48.7104 18.78 48.6804 18.76L48.7804 18.54L50.1904 18.74L50.2004 18.68L48.8404 18.48L50.2604 17.36L49.6004 17.07C49.5804 16.98 49.5204 16.91 49.4404 16.87V12.94C49.4704 12.94 49.4904 12.92 49.5204 12.91L50.4004 13.64C50.3904 13.68 50.4004 13.72 50.4304 13.74C50.4704 13.77 50.5304 13.77 50.5604 13.73C50.5904 13.69 50.5904 13.63 50.5504 13.6C50.5204 13.58 50.4804 13.57 50.4504 13.59L51.3004 12.63L51.8804 13.78L51.9304 13.75L51.3104 12.55ZM48.8604 18.44L49.2804 17.47C49.2904 17.47 49.3104 17.47 49.3204 17.47C49.4904 17.47 49.6204 17.34 49.6204 17.17L50.1604 17.41L48.8604 18.44Z" fill="white"/>
<path d="M68.1504 13.56C68.1204 13.53 68.0804 13.53 68.0404 13.55L67.1704 12.83C67.1904 12.8 67.2004 12.76 67.2004 12.72C67.2004 12.62 67.1204 12.53 67.0104 12.53C66.9104 12.53 66.8204 12.61 66.8204 12.72C66.8204 12.81 66.8904 12.89 66.9704 12.9V15.27L66.2104 13.82L66.1604 13.85L66.9704 15.4V16.81C66.9504 16.8 66.9204 16.8 66.9004 16.8C66.7304 16.8 66.6004 16.94 66.6004 17.1C66.6004 17.23 66.6804 17.34 66.8004 17.38L66.3404 18.44L66.2904 18.48H66.3204L66.2304 18.69C66.1904 18.69 66.1604 18.71 66.1404 18.74C66.1204 18.79 66.1404 18.84 66.1904 18.86C66.2404 18.88 66.2904 18.86 66.3104 18.81C66.3304 18.77 66.3204 18.73 66.2904 18.71L66.3904 18.49L67.8004 18.69L67.8104 18.63L66.4504 18.43L67.8704 17.31L67.2104 17.02C67.1904 16.93 67.1304 16.86 67.0504 16.82V12.89C67.0804 12.89 67.1004 12.87 67.1304 12.86L68.0004 13.6C67.9904 13.64 68.0004 13.68 68.0304 13.7C68.0704 13.73 68.1304 13.73 68.1604 13.69C68.1904 13.65 68.1904 13.6 68.1504 13.56ZM66.4604 18.38L66.8804 17.41C66.8904 17.41 66.9104 17.41 66.9204 17.41C67.0904 17.41 67.2204 17.28 67.2204 17.11L67.7604 17.35L66.4604 18.38Z" fill="white"/>
<path d="M58.5504 15.47L58.4804 15.43L57.6804 16.87C57.7204 16.69 57.7504 16.5 57.7504 16.3V13.93C57.8204 13.91 57.8604 13.85 57.8604 13.78C57.8604 13.76 57.8604 13.75 57.8504 13.73L58.4904 12.62L58.4204 12.58L57.8004 13.66C57.7704 13.64 57.7404 13.63 57.7004 13.63C57.6604 13.63 57.6304 13.64 57.6004 13.66L56.9804 12.58L56.9104 12.62L57.5504 13.73C57.5504 13.74 57.5404 13.76 57.5404 13.78C57.5404 13.85 57.5904 13.91 57.6504 13.93V16.3C57.6504 16.58 57.6104 16.83 57.5204 17.06H57.5104C57.4104 17.06 57.3304 17.14 57.3304 17.24C57.3304 17.29 57.3504 17.33 57.3804 17.36C57.0404 17.92 56.4004 18.24 55.5404 18.24C54.5404 18.24 53.8204 17.81 53.5404 17.07L54.2104 16.67C54.2504 16.71 54.3004 16.74 54.3604 16.74C54.4804 16.74 54.5704 16.65 54.5704 16.53C54.5704 16.41 54.4804 16.32 54.3604 16.32C54.3504 16.32 54.3404 16.32 54.3304 16.32L53.4004 13.63L54.0704 12.78C54.1004 12.79 54.1404 12.78 54.1604 12.75C54.1904 12.71 54.1804 12.65 54.1404 12.62C54.1004 12.59 54.0404 12.6 54.0104 12.64C53.9904 12.67 53.9904 12.71 54.0004 12.74L53.3504 13.57L52.8504 12.8C52.8804 12.76 52.8804 12.7 52.8604 12.66C52.8204 12.6 52.7504 12.59 52.6904 12.62C52.6304 12.66 52.6204 12.73 52.6504 12.79C52.6804 12.83 52.7304 12.85 52.7804 12.84L53.3104 13.64V16.3C53.3104 16.57 53.3504 16.83 53.4404 17.05L53.0904 17.62C53.0204 17.6 52.9504 17.63 52.9204 17.69C52.8804 17.76 52.9004 17.86 52.9704 17.9C53.0404 17.94 53.1404 17.92 53.1804 17.85C53.2204 17.79 53.2104 17.71 53.1604 17.66L53.4804 17.14C53.7904 17.87 54.5304 18.32 55.5304 18.32L56.7004 18.66C56.7004 18.67 56.7004 18.68 56.7004 18.69C56.7004 18.91 56.8804 19.1 57.1104 19.1C57.3304 19.1 57.5204 18.92 57.5204 18.69C57.5204 18.47 57.3404 18.28 57.1104 18.28C56.9204 18.28 56.7704 18.41 56.7204 18.58L55.8004 18.31C56.5604 18.25 57.1404 17.93 57.4604 17.41C57.4804 17.42 57.5004 17.42 57.5204 17.42C57.6204 17.42 57.7004 17.34 57.7004 17.24C57.7004 17.19 57.6804 17.14 57.6404 17.1L58.5504 15.47ZM53.4104 16.3V13.87L54.2704 16.35C54.2104 16.39 54.1704 16.45 54.1704 16.53C54.1704 16.55 54.1804 16.58 54.1804 16.6L53.5204 17C53.4504 16.79 53.4104 16.55 53.4104 16.3Z" fill="white"/>
<path d="M32.6604 17.63C32.6804 17.59 32.6804 17.54 32.6404 17.5C32.6104 17.47 32.5604 17.46 32.5204 17.47L32.4204 16.96L32.3604 16.97L32.4604 17.52C32.4304 17.56 32.4304 17.6 32.4504 17.64C31.9104 18.12 31.1904 18.41 30.5304 18.41C30.4004 18.41 30.2604 18.4 30.1404 18.38L30.1004 18.35V17.58L29.1404 18V16.27L28.0404 15.74C28.0404 15.66 27.9804 15.59 27.9104 15.58C28.0004 14.58 28.6504 13.77 29.5904 13.44C29.6204 13.49 29.6804 13.53 29.7504 13.53C29.8604 13.53 29.9404 13.44 29.9404 13.34C30.1504 13.3 30.3604 13.27 30.5804 13.27C31.3104 13.27 32.0804 13.59 32.5904 14.1L32.2604 14.59L32.3104 14.62L32.6504 14.11L33.0804 13.71C33.1204 13.74 33.1804 13.73 33.2204 13.7C33.2704 13.66 33.2704 13.58 33.2304 13.54C33.1904 13.49 33.1104 13.49 33.0704 13.53C33.0304 13.57 33.0204 13.62 33.0504 13.67L32.6304 14.05C32.3704 13.79 32.0504 13.58 31.7104 13.44L31.9704 13.1C32.0004 13.13 32.0504 13.15 32.0904 13.15C32.2004 13.15 32.2804 13.06 32.2804 12.96C32.2804 12.85 32.1904 12.77 32.0904 12.77C31.9804 12.77 31.9004 12.86 31.9004 12.96C31.9004 13 31.9104 13.03 31.9304 13.06L31.6804 13.39L30.1904 12.57L29.8204 13.17C29.8004 13.16 29.7704 13.16 29.7504 13.16C29.6404 13.16 29.5604 13.25 29.5604 13.35C29.5604 13.36 29.5604 13.38 29.5704 13.39C28.6104 13.73 27.9404 14.56 27.8504 15.59C27.7704 15.6 27.7204 15.67 27.7204 15.75C27.7204 15.79 27.7304 15.82 27.7604 15.85L27.3804 16.28L27.4304 16.32L27.8104 15.89C27.8204 15.9 27.8404 15.9 27.8504 15.91C27.8804 16.85 28.3604 17.63 29.0904 18.08V18.11L29.1204 18.1C29.4204 18.28 29.7604 18.4 30.1304 18.45L30.7004 18.99C30.6904 19.01 30.7004 19.04 30.7204 19.06C30.7504 19.09 30.7904 19.09 30.8204 19.06C30.8504 19.03 30.8504 18.99 30.8204 18.96C30.8004 18.94 30.7704 18.94 30.7504 18.95L30.2404 18.46C30.3404 18.47 30.4504 18.48 30.5604 18.48C31.2304 18.48 31.9704 18.18 32.5204 17.7C32.5504 17.72 32.5904 17.72 32.6304 17.7L33.3504 17.92L33.3704 17.86L32.6604 17.63ZM30.2104 12.65L31.5304 13.38C31.2204 13.27 30.9004 13.21 30.5804 13.21C30.3504 13.21 30.1304 13.23 29.9304 13.28C29.9204 13.25 29.9004 13.22 29.8704 13.2L30.2104 12.65ZM29.0804 17.99C28.3804 17.55 27.9304 16.8 27.9004 15.9C27.9604 15.89 28.0004 15.85 28.0304 15.8L29.0804 16.3V17.99ZM30.0504 18.36C29.7304 18.31 29.4404 18.2 29.1804 18.05L30.0504 17.66V18.36Z" fill="white"/>
<path d="M39.0304 17.61C38.9804 17.57 38.9104 17.58 38.8704 17.63C38.8404 17.67 38.8404 17.73 38.8704 17.77L38.4604 18.3H37.3504C37.3404 18.21 37.2604 18.13 37.1604 18.13C37.0804 18.13 37.0204 18.18 36.9904 18.24L35.8804 17.67L35.8504 17.72L36.9604 18.3H34.5504C34.5404 18.26 34.5004 18.24 34.4604 18.24C34.4404 18.24 34.4204 18.25 34.4004 18.26L34.6604 17.66C34.6704 17.68 34.6904 17.69 34.7104 17.69C34.7404 17.69 34.7604 17.68 34.7704 17.66L35.4404 17.72C35.4504 17.77 35.4904 17.81 35.5404 17.81C35.6004 17.82 35.6604 17.77 35.6604 17.7C35.6704 17.64 35.6204 17.58 35.5504 17.58C35.5004 17.58 35.4504 17.61 35.4304 17.66L34.7604 17.6C34.7504 17.58 34.7304 17.56 34.7004 17.56C34.6804 17.56 34.6704 17.56 34.6604 17.57V15.9C34.6904 15.9 34.7104 15.88 34.7204 15.86H36.9004C36.9404 15.9 36.9904 15.93 37.0504 15.93C37.1104 15.93 37.1604 15.9 37.2004 15.86H38.4904C38.5004 15.9 38.5404 15.92 38.5804 15.92C38.6304 15.92 38.6704 15.88 38.6704 15.83C38.6704 15.78 38.6304 15.74 38.5804 15.74C38.5404 15.74 38.5104 15.77 38.4904 15.8H37.2304C37.2404 15.78 37.2404 15.76 37.2404 15.74C37.2404 15.73 37.2404 15.71 37.2404 15.7L38.4204 15.26C38.4504 15.31 38.5204 15.34 38.5804 15.31C38.6504 15.28 38.6904 15.2 38.6604 15.13C38.6304 15.06 38.5504 15.02 38.4804 15.05C38.4204 15.07 38.3804 15.14 38.3904 15.2L37.2104 15.64C37.1804 15.58 37.1104 15.54 37.0404 15.54C36.9704 15.54 36.9104 15.58 36.8804 15.63L35.6304 15.11L34.7104 15.79C34.7004 15.77 34.6804 15.76 34.6504 15.76V14.83C34.7204 14.83 34.7904 14.79 34.8104 14.72C34.8304 14.68 34.8204 14.63 34.8004 14.6L35.0904 13.85C35.1204 13.89 35.1804 13.9 35.2304 13.87C35.2904 13.84 35.3104 13.77 35.2804 13.71C35.2704 13.7 35.2604 13.69 35.2604 13.68L38.3104 13.2L38.3304 13.22C38.3404 13.23 38.3404 13.24 38.3504 13.25L38.8604 13.89L38.9104 13.85L38.5004 13.3C38.5804 13.3 38.6404 13.23 38.6404 13.16C38.6404 13.12 38.6204 13.08 38.5904 13.05L39.0604 12.64L39.0204 12.59L38.5404 13.02C38.5304 13.02 38.5104 13.01 38.5004 13.01C38.4404 13.01 38.3804 13.05 38.3604 13.11H34.9304L34.6404 12.54V14.53C34.6004 14.55 34.5704 14.58 34.5604 14.62C34.5304 14.69 34.5604 14.78 34.6304 14.81L34.1304 16.19C34.0804 16.19 34.0304 16.22 34.0104 16.27C33.9904 16.33 34.0204 16.4 34.0804 16.42C34.1404 16.44 34.2104 16.41 34.2304 16.35C34.2504 16.3 34.2304 16.25 34.1904 16.22L34.6404 14.97V15.82C34.6404 15.83 34.6404 15.83 34.6404 15.84C34.6404 15.85 34.6404 15.85 34.6404 15.86V17.62L34.1504 18.75C34.1004 18.74 34.0504 18.77 34.0304 18.82C34.0004 18.88 34.0304 18.95 34.0904 18.97C34.1504 19 34.2204 18.97 34.2404 18.91C34.2604 18.86 34.2504 18.81 34.2104 18.77L34.3904 18.35C34.3904 18.4 34.4304 18.43 34.4804 18.43C34.5204 18.43 34.5504 18.4 34.5704 18.37H36.9904C36.9904 18.38 37.0004 18.39 37.0004 18.41L36.4804 18.94L36.5204 18.98L37.0304 18.46C37.0704 18.5 37.1204 18.53 37.1804 18.53C37.2704 18.53 37.3504 18.46 37.3704 18.37H38.5204L38.9404 17.82C38.9904 17.84 39.0404 17.83 39.0704 17.78C39.0904 17.72 39.0804 17.65 39.0304 17.61ZM35.6904 15.19L36.9004 15.69C36.9004 15.7 36.8904 15.72 36.8904 15.73C36.8904 15.75 36.8904 15.77 36.9004 15.79H34.8504L35.6904 15.19ZM38.1904 13.18L35.1904 13.65L34.9504 13.18H38.1904ZM34.6904 12.8L35.1404 13.68L35.1304 13.7C35.1204 13.72 35.1104 13.74 35.1104 13.76L34.8104 14.54C34.8004 14.53 34.7804 14.52 34.7604 14.51C34.7404 14.5 34.7204 14.5 34.6904 14.5V12.8Z" fill="white"/>
<path d="M63.6204 16.37C63.6504 16.36 64.0804 16.16 64.3004 15.28C64.3304 15.28 64.3704 15.27 64.3904 15.24C64.4104 15.21 64.4104 15.17 64.3904 15.14L64.8704 14.43C64.9304 14.45 65.0104 14.43 65.0504 14.37C65.1004 14.3 65.0804 14.2 65.0104 14.16C64.9404 14.11 64.8404 14.13 64.8004 14.2C64.7604 14.26 64.7703 14.33 64.8103 14.39L64.3604 15.07C64.3704 15.02 64.3804 14.96 64.3904 14.91C64.5704 13.7 63.4904 13.14 63.4804 13.14H63.2404L63.8004 13.02L63.7804 12.94L63.2204 13.06C63.1904 12.97 63.1004 12.91 63.0104 12.91C62.8804 12.91 62.7804 13.01 62.7804 13.14H60.4504C60.4304 13.06 60.3704 13 60.2904 12.98V12.69H60.2004V12.98C60.1104 13 60.0404 13.08 60.0404 13.18C60.0404 13.28 60.1104 13.36 60.2104 13.38V15.74C60.1904 15.75 60.1804 15.75 60.1704 15.76L59.7204 15.25L59.6604 15.3L60.1204 15.82C60.1004 15.85 60.0904 15.89 60.0904 15.93C60.0904 16 60.1204 16.06 60.1704 16.09L59.7304 18.52C59.7104 18.52 59.6904 18.51 59.6704 18.51C59.5004 18.51 59.3604 18.65 59.3604 18.82C59.3604 18.99 59.5004 19.13 59.6704 19.13C59.8404 19.13 59.9804 18.99 59.9804 18.82C59.9804 18.7 59.9104 18.6 59.8104 18.54L59.9504 17.75L61.1404 18.84L61.2004 18.78L59.9704 17.65L60.2504 16.11C60.2604 16.11 60.2804 16.12 60.3004 16.12C60.3304 16.12 60.3604 16.11 60.3804 16.1L60.9304 16.72C60.8904 16.77 60.8604 16.84 60.8604 16.91C60.8604 17.08 61.0004 17.22 61.1704 17.22C61.3404 17.22 61.4804 17.08 61.4804 16.91C61.4804 16.87 61.4704 16.82 61.4504 16.79L61.7004 16.36H63.6204V16.37ZM61.3804 16.71C61.3204 16.64 61.2404 16.6 61.1504 16.6C61.0804 16.6 61.0204 16.62 60.9704 16.66L60.4304 16.05C60.4604 16.01 60.4804 15.97 60.4804 15.91C60.4804 15.8 60.3904 15.71 60.2804 15.7V13.35C60.3604 13.33 60.4204 13.27 60.4404 13.19H62.7904C62.8204 13.27 62.9104 13.33 63.0004 13.33C63.1004 13.33 63.1804 13.27 63.2104 13.19H63.4304C63.5304 13.24 64.4504 13.78 64.2904 14.88C64.2804 14.96 64.2604 15.04 64.2504 15.11C64.2404 15.12 64.2404 15.12 64.2304 15.13C64.2104 15.16 64.2104 15.19 64.2204 15.22C64.0204 16.03 63.6504 16.25 63.5904 16.28H61.7104L61.9704 15.84L61.9004 15.8L61.3804 16.71Z" fill="white"/>
<path d="M64.9304 18.65C64.9004 18.65 64.8704 18.66 64.8504 18.67L64.1804 18.25L63.1604 16.52C63.1804 16.49 63.1804 16.45 63.1604 16.42C63.1304 16.38 63.0804 16.36 63.0304 16.39C62.9904 16.42 62.9704 16.47 63.0004 16.52C63.0204 16.55 63.0504 16.57 63.0904 16.56L64.1404 18.34L63.7804 18.73C63.7304 18.71 63.6804 18.72 63.6404 18.76C63.5904 18.81 63.6004 18.89 63.6504 18.93C63.7004 18.98 63.7804 18.97 63.8204 18.92C63.8604 18.88 63.8604 18.82 63.8404 18.78L64.2304 18.36L64.7904 18.71C64.7704 18.74 64.7704 18.76 64.7704 18.8C64.7704 18.89 64.8404 18.97 64.9404 18.97C65.0404 18.97 65.1104 18.9 65.1104 18.8C65.0904 18.73 65.0204 18.65 64.9304 18.65ZM64.9904 18.76L64.9604 18.74C64.9704 18.74 64.9804 18.75 64.9904 18.76Z" fill="white"/>
<path d="M75.3503 16.92L74.7204 15.91C74.7104 14.76 74.1603 14.21 74.0303 14.1L74.4404 13.72C74.4804 13.75 74.5404 13.74 74.5804 13.71C74.6304 13.67 74.6303 13.59 74.5903 13.55C74.5503 13.5 74.4704 13.5 74.4304 13.54C74.3904 13.58 74.3804 13.63 74.4104 13.68L73.9903 14.06C73.7303 13.8 73.4104 13.59 73.0704 13.45L73.3304 13.11C73.3604 13.14 73.4103 13.16 73.4503 13.16C73.5603 13.16 73.6404 13.07 73.6404 12.97C73.6404 12.86 73.5503 12.78 73.4503 12.78C73.3403 12.78 73.2604 12.87 73.2604 12.97C73.2604 13.01 73.2704 13.04 73.2904 13.07L73.0404 13.4L71.5504 12.58L71.1804 13.18C71.1604 13.17 71.1304 13.17 71.1104 13.17C71.0004 13.17 70.9203 13.26 70.9203 13.36C70.9203 13.37 70.9204 13.39 70.9304 13.4C69.9704 13.74 69.3004 14.57 69.2104 15.6C69.1304 15.61 69.0804 15.68 69.0804 15.76C69.0804 15.8 69.0904 15.83 69.1204 15.86L68.7403 16.29L68.7904 16.33L69.1703 15.9C69.1803 15.91 69.2004 15.91 69.2104 15.92C69.2504 17.25 70.1903 18.27 71.4903 18.45L72.0603 18.99C72.0503 19.01 72.0604 19.04 72.0804 19.06C72.1104 19.09 72.1504 19.09 72.1804 19.06C72.2104 19.03 72.2104 18.99 72.1804 18.96C72.1604 18.94 72.1304 18.94 72.1104 18.95L71.6003 18.46C71.7003 18.47 71.8103 18.48 71.9203 18.48C72.4903 18.48 73.1203 18.26 73.6303 17.89L73.0404 18.86L73.0903 18.89L73.6804 17.9C73.7004 17.88 73.8003 17.82 73.9203 17.7C73.9503 17.7 73.9804 17.69 74.0004 17.67C74.0304 17.65 74.0404 17.61 74.0404 17.58C74.3404 17.27 74.7103 16.74 74.7403 16.03L75.3204 16.96L75.3503 16.92ZM71.5603 12.65L72.8803 13.38C72.5703 13.27 72.2504 13.21 71.9304 13.21C71.7004 13.21 71.4803 13.23 71.2803 13.28C71.2703 13.25 71.2504 13.22 71.2204 13.2L71.5603 12.65ZM70.4304 17.92C70.4104 17.93 70.4004 17.95 70.3904 17.97C69.7104 17.53 69.2704 16.78 69.2504 15.9C69.3104 15.89 69.3503 15.85 69.3803 15.8L70.4304 16.3V17.92ZM74.4203 16.91L72.6303 17.57L72.6504 17.63L74.3803 17C74.2603 17.21 74.1304 17.38 74.0004 17.52C74.0004 17.52 74.0003 17.51 73.9903 17.51C73.9503 17.46 73.8704 17.46 73.8304 17.5C73.7904 17.54 73.7803 17.59 73.8103 17.64C73.2703 18.12 72.5504 18.41 71.8904 18.41C71.7604 18.41 71.6204 18.4 71.5004 18.38L71.4604 18.35V17.76C71.4804 17.75 71.5004 17.73 71.5004 17.7C71.5004 17.66 71.4704 17.63 71.4304 17.63C71.3904 17.63 71.3604 17.66 71.3604 17.7C71.3604 17.73 71.3804 17.75 71.4004 17.76V18.37C71.0704 18.31 70.7704 18.2 70.5004 18.05C70.5204 18.04 70.5303 18.02 70.5303 17.99C70.5303 17.96 70.5103 17.94 70.4903 17.93V16.28L69.3904 15.75C69.3904 15.67 69.3304 15.6 69.2604 15.59C69.3504 14.59 70.0004 13.78 70.9404 13.45C70.9704 13.5 71.0303 13.54 71.1003 13.54C71.2103 13.54 71.2904 13.45 71.2904 13.35C71.5004 13.31 71.7104 13.28 71.9304 13.28C72.6604 13.28 73.4304 13.6 73.9404 14.11L73.7304 14.43C73.7104 14.43 73.6904 14.42 73.6804 14.42C73.5404 14.42 73.4203 14.54 73.4203 14.68C73.4203 14.82 73.5404 14.94 73.6804 14.94C73.8204 14.94 73.9404 14.82 73.9404 14.68C73.9404 14.58 73.8804 14.49 73.8004 14.45L74.0004 14.15C74.1204 14.25 74.6603 14.78 74.6703 15.93C74.6603 16.3 74.5603 16.63 74.4203 16.91ZM73.6904 14.67C73.6904 14.68 73.6703 14.68 73.6703 14.67C73.6703 14.66 73.6804 14.66 73.6804 14.66C73.6804 14.66 73.6904 14.66 73.6904 14.67Z" fill="white"/>
<path d="M21.4804 11.93L21.3004 11.81C21.3904 11.93 21.4704 12.05 21.5504 12.2L22.2004 11.72C22.1704 11.63 22.1304 11.54 22.1004 11.45L22.0904 11.46C22.0904 11.53 22.0704 11.59 22.0404 11.61C22.0004 11.64 21.9504 11.6 21.9304 11.51C21.9104 11.42 21.9404 11.33 21.9804 11.3C22.0004 11.29 22.0204 11.29 22.0404 11.3C22.0104 11.24 21.9904 11.18 21.9604 11.12L21.8304 11.68L21.4804 11.93Z" fill="white"/>
<path d="M16.1504 16.24C16.1504 16.15 16.1504 16.06 16.1504 15.97C16.1504 15.89 16.1504 15.8 16.1604 15.72C16.1504 15.75 16.1404 15.78 16.1204 15.79C16.1104 15.8 16.1004 15.8 16.0904 15.8L16.0004 16.14L15.0104 16.87C15.0104 16.94 15.0104 17.01 15.0204 17.08L16.1504 16.24Z" fill="white"/>
<path d="M17.8704 10.93L17.8504 11.01C17.8604 11.03 17.8704 11.05 17.8704 11.07C17.8704 11.09 17.8804 11.11 17.8804 11.14C18.0404 11.01 18.2104 10.91 18.3804 10.83L18.2104 10.67L17.8704 10.93Z" fill="white"/>
<path d="M22.4504 12.5C22.4204 12.4 22.3904 12.3 22.3604 12.2L21.7104 12.67L21.4904 13.15L21.5204 13.18L22.4504 12.5Z" fill="white"/>
<path d="M21.6104 12.29C21.6504 12.36 21.6904 12.44 21.7404 12.52L22.3304 12.08C22.3004 11.99 22.2704 11.9 22.2404 11.82L21.6104 12.29Z" fill="white"/>
<path d="M22.5004 19.21C22.5104 19.22 22.5104 19.24 22.5104 19.26C22.5104 19.28 22.5204 19.3 22.5204 19.32C22.6204 18.92 22.7004 18.51 22.7604 18.08L22.5004 19.21Z" fill="white"/>
<path d="M16.4204 20.83L15.8904 21.22C15.9304 21.32 15.9804 21.41 16.0204 21.51L16.5104 21.15L16.6604 20.49L17.0004 20.23L17.2004 20.37C17.1104 20.24 17.0304 20.1 16.9504 19.95L15.7404 20.84C15.7704 20.93 15.8104 21.02 15.8504 21.11L16.4004 20.7C16.4004 20.63 16.4204 20.57 16.4504 20.55C16.4904 20.52 16.5404 20.56 16.5604 20.65C16.5804 20.74 16.5504 20.83 16.5104 20.86C16.4804 20.89 16.4404 20.87 16.4204 20.83Z" fill="white"/>
<path d="M16.0604 19.12L15.3704 19.63C15.4004 19.74 15.4204 19.85 15.4504 19.95L16.5904 19.11C16.5504 19 16.5204 18.88 16.4804 18.76L16.3504 18.86L16.1404 18.65L15.2804 19.28C15.3004 19.36 15.3104 19.44 15.3304 19.52L16.0304 19.01C16.0304 18.95 16.0504 18.89 16.0804 18.87C16.1204 18.84 16.1704 18.88 16.1904 18.97C16.2104 19.06 16.1804 19.15 16.1404 19.18C16.1204 19.2 16.0804 19.17 16.0604 19.12Z" fill="white"/>
<path d="M16.0304 15.75C16.0204 15.73 16.0204 15.72 16.0104 15.7C15.9904 15.61 16.0204 15.52 16.0604 15.49C16.1004 15.46 16.1504 15.5 16.1704 15.59C16.1804 15.46 16.1904 15.33 16.2004 15.2C16.1904 15.14 16.2004 15.08 16.2204 15.03C16.3004 14.23 16.4704 13.5 16.7204 12.88L16.9904 11.64L17.5704 11.21L17.7204 10.55L18.2804 10.14L18.8704 10.7C18.9304 10.69 19.0004 10.68 19.0604 10.68L18.2504 9.92L17.5104 10.47L17.3704 11.08L16.8704 11.45L16.1004 14.85L15.0504 15.63C15.0404 15.73 15.0404 15.83 15.0404 15.92L15.8504 15.32C15.8504 15.26 15.8704 15.2 15.9004 15.17C15.9404 15.14 15.9904 15.18 16.0104 15.27C16.0304 15.36 16.0004 15.45 15.9604 15.48C15.9304 15.5 15.8904 15.48 15.8704 15.43L15.0304 16.05C15.0304 16.1 15.0304 16.14 15.0304 16.19C15.0304 16.24 15.0304 16.29 15.0304 16.33L15.7804 15.78C15.7904 15.73 15.8004 15.68 15.8304 15.66C15.8704 15.63 15.9204 15.67 15.9404 15.76C15.9604 15.85 15.9304 15.94 15.8904 15.97C15.8504 16 15.8104 15.97 15.7904 15.91L15.0304 16.47C15.0304 16.56 15.0304 16.64 15.0304 16.73L15.9804 16.03L16.0304 15.75Z" fill="white"/>
<path d="M15.5104 17.56L15.0804 17.88C15.0904 17.94 15.0904 18 15.1004 18.06L15.6904 17.62L15.8904 16.79L16.1604 16.59C16.1604 16.52 16.1604 16.46 16.1504 16.39L15.0204 17.22C15.0204 17.29 15.0304 17.35 15.0304 17.42L15.6004 17C15.6004 16.93 15.6204 16.87 15.6504 16.85C15.6904 16.82 15.7404 16.86 15.7604 16.95C15.7804 17.04 15.7504 17.13 15.7104 17.16C15.6804 17.18 15.6404 17.16 15.6204 17.12L15.0504 17.54C15.0504 17.61 15.0604 17.68 15.0704 17.75L15.4904 17.44C15.4904 17.37 15.5104 17.31 15.5404 17.29C15.5804 17.26 15.6304 17.3 15.6504 17.39C15.6704 17.48 15.6404 17.57 15.6004 17.6C15.5604 17.62 15.5304 17.6 15.5104 17.56Z" fill="white"/>
<path d="M18.2604 10.28L17.7504 10.65L17.6004 11.31L17.0204 11.74L16.8504 12.54C16.9204 12.39 16.9904 12.25 17.0704 12.12L17.1204 11.9L17.3104 11.76C17.4504 11.57 17.5904 11.41 17.7504 11.26C17.7404 11.24 17.7304 11.22 17.7304 11.19C17.7104 11.1 17.7404 11.01 17.7804 10.98C17.7904 10.97 17.8004 10.97 17.8104 10.97L17.8404 10.83L18.2304 10.54L18.5004 10.79C18.5804 10.76 18.6604 10.74 18.7404 10.72L18.2604 10.28Z" fill="white"/>
<path d="M18.3204 18.22C18.4004 18.32 18.6604 18.66 19.0604 18.7C19.6004 18.76 20.2004 18.28 20.3704 17.5L20.7504 17.51L20.7704 17.56L22.1104 16.57L22.1704 16.32C22.1604 16.3 22.1504 16.28 22.1504 16.25C22.1304 16.16 22.1604 16.07 22.2004 16.04C22.2404 16.01 22.2904 16.05 22.3104 16.14C22.3304 16.23 22.3004 16.32 22.2604 16.35C22.2504 16.36 22.2404 16.36 22.2404 16.36L22.1704 16.67L20.8304 17.66L20.9204 17.84C20.9404 17.86 20.9604 17.89 20.9704 17.94C20.9704 17.94 20.9704 17.94 20.9704 17.95L21.0304 18.08L21.0504 17.99C21.0404 17.97 21.0204 17.94 21.0204 17.91C21.0004 17.82 21.0304 17.73 21.0704 17.7C21.1104 17.67 21.1604 17.71 21.1804 17.8C21.2004 17.89 21.1704 17.98 21.1304 18.01H21.1204L21.0804 18.18L21.1604 18.34L21.2804 17.81C21.2704 17.79 21.2604 17.77 21.2504 17.74C21.2304 17.65 21.2604 17.56 21.3004 17.53C21.3404 17.5 21.3904 17.54 21.4104 17.63C21.4304 17.72 21.4004 17.81 21.3604 17.84C21.3504 17.84 21.3504 17.85 21.3404 17.85L21.2104 18.45L21.2904 18.61L21.5004 17.66C21.4904 17.64 21.4804 17.61 21.4704 17.58C21.4504 17.49 21.4804 17.4 21.5204 17.37C21.5604 17.34 21.6104 17.38 21.6304 17.47C21.6504 17.56 21.6204 17.65 21.5804 17.68L21.5704 17.69L21.3404 18.71L21.4204 18.88L21.7304 17.49C21.7204 17.47 21.7104 17.45 21.7004 17.41C21.6804 17.32 21.7104 17.23 21.7504 17.2C21.7904 17.17 21.8404 17.21 21.8604 17.3C21.8804 17.39 21.8504 17.48 21.8104 17.51C21.8004 17.51 21.8004 17.52 21.7904 17.52L21.4704 18.98L21.5604 19.17L21.9604 17.33C21.9504 17.31 21.9304 17.28 21.9304 17.25C21.9104 17.16 21.9404 17.07 21.9804 17.04C22.0204 17.01 22.0704 17.05 22.0904 17.14C22.1104 17.23 22.0804 17.32 22.0404 17.35C22.0404 17.35 22.0404 17.35 22.0304 17.35L21.6104 19.27L21.6904 19.44C21.6904 19.44 21.6204 19.59 21.5004 19.8L21.4004 20.26L20.8704 20.65L20.8604 20.66C20.6604 20.87 20.4704 21.02 20.3104 21.12C20.3004 21.16 20.2904 21.2 20.2604 21.22C20.2304 21.24 20.2104 21.23 20.1804 21.2C20.1404 21.22 20.1104 21.24 20.0804 21.25L20.3104 21.46L20.6504 21.21L20.6704 21.14C20.6604 21.12 20.6504 21.1 20.6504 21.08C20.6304 20.99 20.6604 20.9 20.7004 20.87C20.7404 20.84 20.7904 20.88 20.8104 20.97C20.8304 21.06 20.8004 21.15 20.7604 21.18C20.7504 21.19 20.7404 21.19 20.7304 21.19L20.7004 21.32L20.3104 21.61L19.9804 21.3C19.8904 21.34 19.8104 21.36 19.7504 21.38L20.2704 21.87L20.7804 21.5L20.9304 20.84L21.5104 20.41L22.2204 17.15C22.2104 17.13 22.1904 17.1 22.1904 17.07C22.1704 16.98 22.2004 16.89 22.2404 16.86C22.2804 16.83 22.3304 16.87 22.3504 16.96C22.3704 17.05 22.3404 17.14 22.3004 17.17H22.2904L21.5704 20.51L20.9904 20.94L20.8404 21.6L20.2804 22.01L19.6404 21.41C19.5904 21.42 19.5304 21.43 19.4504 21.43L20.3004 22.23L21.0404 21.68L21.1804 21.07L21.6804 20.7L22.4504 17.3L22.9304 16.95C22.9404 16.85 22.9404 16.75 22.9504 16.65L22.7104 16.83C22.7104 16.89 22.6904 16.95 22.6604 16.98C22.6204 17.01 22.5704 16.97 22.5504 16.88C22.5304 16.79 22.5604 16.7 22.6004 16.67C22.6304 16.65 22.6704 16.67 22.6904 16.72L22.9604 16.52C22.9604 16.45 22.9704 16.37 22.9704 16.3C22.9704 16.28 22.9704 16.26 22.9704 16.24L22.7904 16.37C22.7804 16.42 22.7704 16.47 22.7404 16.49C22.7004 16.52 22.6504 16.48 22.6304 16.39C22.6104 16.3 22.6404 16.21 22.6804 16.18C22.7204 16.15 22.7604 16.18 22.7804 16.24L22.9704 16.1C22.9704 16.01 22.9704 15.93 22.9704 15.84L22.5904 16.12L22.5204 16.41C22.5304 16.43 22.5304 16.44 22.5404 16.46C22.5604 16.55 22.5304 16.64 22.4904 16.67C22.4504 16.7 22.4004 16.66 22.3804 16.57C22.3604 16.48 22.3904 16.39 22.4304 16.36C22.4404 16.35 22.4504 16.35 22.4604 16.35L22.5404 16.02L22.9604 15.71C22.9604 15.64 22.9604 15.57 22.9504 15.5L20.6204 17.21C20.6204 17.27 20.6004 17.33 20.5704 17.35C20.5304 17.38 20.4804 17.34 20.4604 17.25C20.4404 17.16 20.4704 17.07 20.5104 17.04C20.5404 17.02 20.5804 17.04 20.6004 17.09L22.9404 15.37C22.9404 15.32 22.9404 15.27 22.9304 15.21C22.9204 15.26 22.9004 15.29 22.8804 15.31C22.8404 15.34 22.7904 15.3 22.7704 15.21C22.7504 15.12 22.7804 15.03 22.8204 15C22.8504 14.98 22.8904 15 22.9104 15.04L22.9204 15.03C22.9204 14.96 22.9104 14.89 22.9004 14.82C22.8904 14.8 22.8904 14.79 22.8804 14.77C22.8704 14.73 22.8704 14.69 22.8804 14.65C22.8804 14.61 22.8704 14.56 22.8704 14.52L22.8404 14.54L22.6404 15.37L22.1604 15.72C22.1604 15.78 22.1404 15.83 22.1104 15.85C22.0704 15.88 22.0204 15.84 22.0004 15.75C21.9804 15.66 22.0104 15.57 22.0504 15.54C22.0804 15.51 22.1204 15.54 22.1404 15.6L22.5904 15.27L22.7904 14.44L22.8604 14.39C22.8504 14.32 22.8404 14.25 22.8304 14.18L22.7404 14.24L22.5404 15.06L22.2804 15.25C22.2804 15.31 22.2604 15.37 22.2304 15.39C22.1904 15.42 22.1404 15.38 22.1204 15.29C22.1004 15.2 22.1304 15.11 22.1704 15.08C22.2004 15.05 22.2404 15.08 22.2604 15.13L22.5004 14.96L22.7004 14.14L22.8204 14.05C22.8104 13.96 22.7904 13.87 22.7804 13.78L22.6504 13.88L22.4504 14.75L22.0604 15L21.8804 15.77C21.8804 15.78 21.8904 15.79 21.8904 15.81C21.9104 15.9 21.8804 15.99 21.8404 16.02C21.8004 16.05 21.7504 16.01 21.7304 15.92C21.7104 15.83 21.7404 15.74 21.7804 15.71C21.7904 15.7 21.8104 15.7 21.8204 15.7L22.0104 14.9L22.3404 14.65L22.5404 13.78L22.7004 13.66C22.6904 13.58 22.6704 13.49 22.6504 13.41L22.3204 13.65L22.1104 13.44L21.9604 13.55C21.9604 13.61 21.9404 13.67 21.9104 13.7C21.8704 13.73 21.8204 13.69 21.8004 13.6C21.7804 13.51 21.8104 13.42 21.8504 13.39C21.8804 13.37 21.9204 13.39 21.9404 13.44L22.1204 13.31L22.3304 13.52L22.6304 13.3C22.6104 13.22 22.6004 13.14 22.5804 13.06L22.4304 13.17C22.4304 13.23 22.4104 13.29 22.3804 13.31C22.3404 13.34 22.2904 13.3 22.2704 13.21C22.2504 13.12 22.2804 13.03 22.3204 13C22.3504 12.98 22.3904 13 22.4104 13.05L22.5504 12.95C22.5204 12.84 22.5004 12.73 22.4704 12.63L21.5104 13.34L21.4404 13.27L21.3504 13.48L21.7804 13.89C21.7904 13.88 21.8004 13.87 21.8004 13.86C21.8404 13.83 21.8904 13.87 21.9104 13.96C21.9304 14.05 21.9004 14.14 21.8604 14.17C21.8204 14.2 21.7704 14.16 21.7504 14.07C21.7504 14.05 21.7404 14.02 21.7504 14L21.3004 13.57L20.8004 14.7L20.4204 14.69C20.2504 13.81 19.6804 13.25 19.1504 13.27C19.0504 13.27 18.8104 13.3 18.5304 13.56C18.5104 13.58 18.4904 13.6 18.4704 13.62C18.4404 13.65 18.3404 13.77 18.2304 13.97C18.1704 14.08 18.1004 14.23 18.0404 14.43C18.0204 14.49 18.0004 14.55 17.9904 14.61C17.9804 14.63 17.9704 14.69 17.9504 14.77C17.9404 14.83 17.9204 14.89 17.9104 14.94C17.9004 14.99 17.8904 15.05 17.8804 15.1C17.8004 15.51 17.8104 15.96 17.8104 15.96C17.8004 16.48 17.8704 16.92 17.9204 17.18C17.9304 17.22 17.9404 17.26 17.9504 17.3C17.9604 17.36 17.9804 17.4 17.9804 17.42C17.9904 17.46 18.0004 17.5 18.0104 17.53C18.0204 17.57 18.0304 17.6 18.0504 17.64C18.0704 17.69 18.0804 17.73 18.0904 17.75C18.1004 17.79 18.1204 17.82 18.1304 17.85C18.1504 17.88 18.1604 17.92 18.1804 17.95C18.2004 18 18.2204 18.03 18.2304 18.04C18.2504 18.07 18.2604 18.1 18.2804 18.12C18.2804 18.16 18.3004 18.19 18.3204 18.22Z" fill="white"/>
<path d="M21.3604 19.98C21.3004 20.08 21.2204 20.18 21.1404 20.29L21.3204 20.16L21.3604 19.98Z" fill="white"/>
<path d="M15.5604 13.73C15.5604 13.66 15.5804 13.6 15.6104 13.58C15.6504 13.55 15.7004 13.59 15.7204 13.68C15.7404 13.77 15.7104 13.86 15.6704 13.89C15.6404 13.91 15.6004 13.89 15.5804 13.85L15.1904 14.14C15.1704 14.27 15.1504 14.4 15.1304 14.53L15.7104 14.1L15.9704 12.94C15.9604 12.93 15.9604 12.91 15.9604 12.89C15.9404 12.8 15.9704 12.71 16.0104 12.68C16.0504 12.65 16.1004 12.69 16.1204 12.78C16.1404 12.87 16.1104 12.96 16.0704 12.99C16.0604 13 16.0504 13 16.0304 13L15.7604 14.2L15.1204 14.68C15.1104 14.78 15.1004 14.87 15.0904 14.97L15.8904 14.38L16.4104 12.22C16.4004 12.2 16.4004 12.19 16.3904 12.16C16.3704 12.07 16.4004 11.98 16.4404 11.95C16.4804 11.92 16.5304 11.96 16.5504 12.05C16.5704 12.14 16.5404 12.23 16.5004 12.26C16.4904 12.27 16.4804 12.27 16.4704 12.27L15.9404 14.48L15.0804 15.11C15.0704 15.23 15.0604 15.34 15.0504 15.46L16.0504 14.72L16.8204 11.32L17.3204 10.95L17.4604 10.34L18.2504 9.76L19.1404 10.6L20.4004 9.67L21.4404 10.64C21.4504 10.63 21.4604 10.62 21.4604 10.61C21.5004 10.58 21.5504 10.62 21.5704 10.71C21.5904 10.8 21.5604 10.89 21.5204 10.92C21.4804 10.95 21.4304 10.91 21.4104 10.82C21.4104 10.8 21.4004 10.77 21.4104 10.75L20.4004 9.8L19.2704 10.63C19.3504 10.62 19.4604 10.62 19.6104 10.64L20.4404 10.03L21.2404 10.79C21.2504 10.78 21.2604 10.76 21.2704 10.76C21.3104 10.73 21.3604 10.77 21.3804 10.86C21.4004 10.95 21.3704 11.04 21.3304 11.07C21.2904 11.1 21.2404 11.06 21.2204 10.97C21.2204 10.95 21.2104 10.93 21.2104 10.91L20.4304 10.18L19.7604 10.68C19.8604 10.7 19.9804 10.74 20.1004 10.78L20.4404 10.53L20.9504 11.01C20.9604 11 20.9604 10.99 20.9704 10.99C21.0104 10.96 21.0604 11 21.0804 11.09C21.1004 11.18 21.0704 11.27 21.0304 11.3C20.9904 11.33 20.9404 11.29 20.9204 11.2C20.9104 11.17 20.9104 11.14 20.9204 11.12L20.4404 10.67L20.2204 10.83C20.2704 10.86 20.3304 10.89 20.3904 10.92L20.4204 10.89L20.5804 11.04C20.6304 11.08 20.6804 11.12 20.7304 11.16L20.7404 11.15C20.7804 11.12 20.8304 11.16 20.8504 11.25V11.26C20.9104 11.32 20.9804 11.38 21.0404 11.45C21.0504 11.43 21.0604 11.42 21.0704 11.41C21.1104 11.38 21.1604 11.42 21.1804 11.51C21.1804 11.53 21.1804 11.54 21.1804 11.56L21.4904 11.77L21.7904 11.55L21.9204 10.99C21.8704 10.89 21.8304 10.8 21.7804 10.71C21.7704 10.74 21.7604 10.76 21.7404 10.77C21.7004 10.8 21.6504 10.76 21.6304 10.67C21.6204 10.6 21.6304 10.53 21.6504 10.49C21.6304 10.45 21.6004 10.4 21.5804 10.36L21.5504 10.38C21.5504 10.44 21.5304 10.5 21.5004 10.52C21.4604 10.55 21.4104 10.51 21.3904 10.42C21.3704 10.33 21.4004 10.24 21.4404 10.21C21.4504 10.2 21.4704 10.2 21.4804 10.2C21.4604 10.16 21.4304 10.13 21.4104 10.09L21.2404 10.21L20.6604 9.66C20.6504 9.67 20.6504 9.68 20.6404 9.69C20.6004 9.72 20.5504 9.68 20.5304 9.59C20.5104 9.5 20.5404 9.41 20.5804 9.38C20.6204 9.35 20.6704 9.39 20.6904 9.48C20.6904 9.5 20.7004 9.53 20.6904 9.56L21.2404 10.08L21.3404 10C21.3204 9.97 21.2904 9.93 21.2704 9.9C21.2304 9.93 21.1804 9.89 21.1604 9.8C21.1604 9.78 21.1604 9.77 21.1604 9.75C21.0604 9.63 20.9604 9.52 20.8604 9.42C20.8504 9.46 20.8404 9.49 20.8204 9.5C20.7804 9.53 20.7304 9.49 20.7104 9.4C20.7004 9.36 20.7004 9.32 20.7104 9.28C20.2304 8.85 19.6904 8.61 19.1204 8.6C17.3404 8.57 15.7904 10.83 15.2404 13.96L15.5604 13.73ZM21.6404 11.15C21.6404 11.08 21.6604 11.02 21.6904 11C21.7304 10.97 21.7804 11.01 21.8004 11.1C21.8204 11.19 21.7904 11.28 21.7504 11.31C21.7204 11.33 21.6804 11.31 21.6604 11.27L21.3804 11.47C21.3804 11.54 21.3604 11.6 21.3304 11.62C21.2904 11.65 21.2404 11.61 21.2204 11.52C21.2004 11.43 21.2304 11.34 21.2704 11.31C21.3004 11.29 21.3404 11.31 21.3604 11.35L21.6404 11.15Z" fill="white"/>
<path d="M22.4704 19.48C22.4304 19.51 22.3804 19.47 22.3604 19.38C22.3404 19.29 22.3704 19.2 22.4104 19.17C22.4204 19.16 22.4304 19.16 22.4504 19.16L22.7204 17.96L22.7904 17.91C22.8004 17.81 22.8104 17.71 22.8204 17.62L22.6004 17.78L22.0804 19.94C22.0904 19.96 22.0904 19.97 22.1004 20C22.1204 20.09 22.0904 20.18 22.0504 20.21C22.0104 20.24 21.9604 20.2 21.9404 20.11C21.9204 20.02 21.9504 19.93 21.9904 19.9C22.0004 19.89 22.0104 19.89 22.0204 19.89L22.5504 17.68L22.8304 17.47C22.8404 17.35 22.8504 17.24 22.8604 17.12L22.4304 17.43L21.6604 20.83L21.1604 21.2L21.0204 21.81L20.2304 22.39L19.3404 21.55L18.0804 22.48L17.0404 21.51C17.0304 21.52 17.0204 21.53 17.0204 21.54C16.9804 21.57 16.9304 21.53 16.9104 21.44C16.8904 21.35 16.9204 21.26 16.9604 21.23C17.0004 21.2 17.0504 21.24 17.0704 21.33C17.0704 21.35 17.0804 21.38 17.0704 21.4L18.0804 22.35L19.2804 21.46C19.2504 21.46 19.2204 21.46 19.1804 21.46C19.1504 21.46 19.0204 21.46 18.9404 21.46L18.0404 22.12L17.2404 21.36C17.2304 21.37 17.2204 21.39 17.2104 21.39C17.1704 21.42 17.1204 21.38 17.1004 21.29C17.0804 21.2 17.1104 21.11 17.1504 21.08C17.1904 21.05 17.2404 21.09 17.2604 21.18C17.2604 21.2 17.2704 21.22 17.2704 21.24L18.0504 21.97L18.7704 21.44C18.6404 21.43 18.5204 21.4 18.4004 21.36L18.0404 21.62L17.5304 21.14C17.5204 21.15 17.5204 21.16 17.5104 21.16C17.4704 21.19 17.4204 21.15 17.4004 21.06C17.3804 20.97 17.4104 20.88 17.4504 20.85C17.4904 20.82 17.5404 20.86 17.5604 20.95C17.5704 20.98 17.5704 21.01 17.5604 21.03L18.0404 21.48L18.2704 21.31C18.2104 21.29 18.1504 21.26 18.1004 21.23L18.0604 21.26L17.9104 21.12C17.8504 21.08 17.8004 21.04 17.7504 21C17.7504 21 17.7504 21.01 17.7404 21.01C17.7004 21.04 17.6504 21 17.6304 20.91C17.6304 20.91 17.6304 20.91 17.6304 20.9C17.5604 20.84 17.5004 20.77 17.4404 20.7C17.4304 20.72 17.4204 20.73 17.4104 20.74C17.3704 20.77 17.3204 20.73 17.3004 20.64C17.3004 20.62 17.3004 20.61 17.3004 20.59L16.9904 20.38L16.6904 20.6L16.5404 21.26L16.0504 21.62C16.1004 21.72 16.1504 21.82 16.2004 21.91L16.6804 21.56C16.6804 21.49 16.7004 21.41 16.7304 21.39C16.7704 21.36 16.8204 21.4 16.8404 21.49C16.8604 21.58 16.8304 21.67 16.7904 21.7C16.7604 21.72 16.7304 21.71 16.7104 21.67L16.2504 22.01C16.2904 22.07 16.3204 22.13 16.3604 22.19L16.9204 21.78C16.9204 21.72 16.9404 21.66 16.9704 21.64C17.0104 21.61 17.0604 21.65 17.0804 21.74C17.1004 21.83 17.0704 21.92 17.0304 21.95C17.0004 21.97 16.9604 21.95 16.9404 21.9L16.4204 22.28C16.4604 22.34 16.4904 22.39 16.5304 22.45L17.2304 21.94L17.8104 22.49C17.8204 22.48 17.8204 22.47 17.8304 22.46C17.8704 22.43 17.9204 22.47 17.9404 22.56C17.9604 22.65 17.9304 22.74 17.8904 22.77C17.8504 22.8 17.8004 22.76 17.7804 22.67C17.7804 22.65 17.7704 22.62 17.7804 22.59L17.2304 22.07L16.6004 22.54C16.6304 22.59 16.6704 22.63 16.7004 22.68L17.1404 22.35C17.1404 22.29 17.1604 22.23 17.1904 22.21C17.2304 22.18 17.2804 22.22 17.3004 22.31C17.3204 22.4 17.2904 22.49 17.2504 22.52C17.2204 22.54 17.1804 22.52 17.1604 22.47L16.7704 22.76C16.8804 22.89 16.9904 23.01 17.1004 23.12L17.6004 22.75C17.6004 22.68 17.6204 22.62 17.6504 22.6C17.6904 22.57 17.7404 22.61 17.7604 22.7C17.7804 22.79 17.7504 22.88 17.7104 22.91C17.6804 22.93 17.6404 22.91 17.6204 22.87L17.1904 23.19C17.6704 23.62 18.2204 23.87 18.7904 23.88C20.3904 23.9 21.8004 22.09 22.4704 19.46C22.4804 19.46 22.4804 19.47 22.4704 19.48ZM16.8404 21.02C16.8404 21.09 16.8204 21.15 16.7904 21.17C16.7504 21.2 16.7004 21.16 16.6804 21.07C16.6604 20.98 16.6904 20.89 16.7304 20.86C16.7604 20.84 16.8004 20.86 16.8204 20.9L17.1004 20.7C17.1004 20.63 17.1204 20.57 17.1504 20.55C17.1904 20.52 17.2404 20.56 17.2604 20.65C17.2804 20.74 17.2504 20.83 17.2104 20.86C17.1804 20.88 17.1404 20.86 17.1204 20.82L16.8404 21.02Z" fill="white"/>
<path d="M16.9004 19.85C16.8604 19.77 16.8204 19.69 16.7904 19.61L15.6104 20.48C15.6404 20.57 15.6704 20.65 15.7004 20.74L16.9004 19.85Z" fill="white"/>
<path d="M16.7404 19.5C16.7004 19.41 16.6704 19.31 16.6304 19.22L15.4804 20.07C15.5104 20.17 15.5404 20.27 15.5704 20.37L16.7404 19.5Z" fill="white"/>
<path d="M15.7804 17.91L15.9804 17.09L16.1804 16.94C16.1704 16.86 16.1704 16.78 16.1704 16.7L15.9404 16.87L15.7404 17.7L15.1204 18.16C15.1304 18.23 15.1404 18.3 15.1504 18.38L15.7804 17.91Z" fill="white"/>
<path d="M15.8804 18.23L16.0704 17.43L16.2204 17.32C16.2104 17.24 16.2004 17.16 16.2004 17.08L16.0304 17.2L15.8304 18.02L15.1604 18.52C15.1704 18.59 15.1804 18.67 15.1904 18.74L15.8804 18.23Z" fill="white"/>
<path d="M16.1504 18.5L16.3604 18.71L16.4504 18.64C16.3504 18.27 16.2804 17.87 16.2204 17.44L16.1104 17.52L15.9204 18.32L15.2104 18.85C15.2304 18.95 15.2504 19.05 15.2604 19.15L16.1504 18.5Z" fill="white"/>
<path d="M21.9404 9.27C20.4404 7.05 18.0204 5.18 15.4604 3.83C15.5104 3.6 14.8804 3.08 13.9704 2.62C12.9804 2.12 12.0304 1.87 11.8504 2.07C11.6704 2.27 12.3004 3 13.2904 3.5C14.0004 3.86 14.6904 4.09 15.0904 4.11C16.5304 4.89 17.4304 5.45 18.3404 6.47C18.3904 6.53 18.3904 6.53 18.4504 6.68C18.4804 6.76 18.3904 6.94 18.2504 7.02C17.8804 7.22 17.3404 7.28 16.4304 6.61C16.4304 6.61 15.2904 5.69 15.4204 5.81C14.3904 4.94 12.2304 3.52 9.47035 2.4C9.19035 1.97 8.42035 1.5 7.17035 1.03C5.16035 0.280003 4.29035 0.410004 4.09035 0.700004C3.89035 1 4.91035 1.68 6.38035 2.24C7.57035 2.69 8.68035 2.91 9.17035 2.82C12.4804 4.19 14.7904 5.62 16.2604 7.28C16.5204 7.52 16.3204 8.6 15.3204 8.76C14.8604 8.84 14.7104 8.8 14.5004 8.7C14.4104 8.66 14.3304 8.61 14.2504 8.56L12.7104 7.42C13.1004 6.74 12.4404 5.68 11.1304 4.94C9.68035 4.12 8.13035 4 7.38035 4.86C6.76035 5.57 7.39035 6.76 8.68035 7.47C10.0304 8.22 11.6004 8.39 12.3704 7.89L13.8704 8.88C13.9304 8.92 14.0004 8.97 14.0404 9.03C14.4104 9.52 14.5404 10.63 13.4204 11.49C13.0504 11.77 12.7804 12.04 11.5704 11.85C11.4504 11.83 11.3304 11.8 11.2204 11.76L6.76035 10.14C7.33035 9.04 6.49035 7.83 4.84035 7.31C3.16035 6.78 1.35035 7.29 0.720354 8.4C0.090354 9.51 0.820354 10.87 2.50035 11.41C3.94035 11.87 5.52035 11.59 6.34035 10.8L11.4604 12.61C11.5204 12.63 11.5704 12.66 11.6204 12.69C12.5204 13.24 13.7104 14.17 13.7104 15.28C13.7104 16.59 13.0904 17.33 12.5104 17.73C12.2804 17.89 12.0104 17.97 11.7304 17.97L10.4704 17.95C10.2704 16.55 8.78035 15.44 6.92035 15.48C4.96035 15.52 3.60035 16.7 3.65035 18.22C3.70035 19.73 5.18035 20.98 7.14035 20.94C8.98035 20.9 10.3404 19.86 10.4804 18.48L11.4404 18.5C11.8304 18.51 12.2104 18.62 12.5404 18.83C13.1104 19.19 13.6604 19.79 13.7004 20.75C13.7404 21.59 13.4604 22.35 12.9504 22.87C12.8504 22.97 12.7304 23.05 12.6104 23.11L7.44035 25.55C6.36035 24.97 5.05035 25.09 4.05035 25.56C2.90035 26.09 2.21035 27.57 2.64035 28.43C3.17035 29.5 4.76035 29.82 6.18035 28.97C7.54035 28.16 7.78035 26.96 7.84035 26.24L12.6904 23.73C12.8404 23.65 13.0104 23.6 13.1804 23.57C13.9904 23.45 14.8804 23.45 15.7604 24.02C16.0104 24.18 16.1904 24.38 16.3104 24.58C16.4504 24.81 16.4404 25.1 16.3004 25.33C15.9104 26 15.8404 26 15.2204 26.63C14.6304 26.45 13.7304 26.32 12.6304 26.93C11.3204 27.66 11.1604 29 11.5904 29.53C12.1404 30.21 13.2204 30.26 14.2904 29.57C15.4904 28.8 15.8904 27.41 15.6604 27C15.9404 26.65 16.0904 26.54 16.4704 26.03C16.6704 25.77 16.9404 25.57 17.2504 25.48C17.4304 25.43 17.6104 25.4 17.7804 25.4C18.4304 25.4 18.8804 25.92 18.8604 26.57C18.8604 26.62 18.8704 26.72 18.8204 26.83C18.5604 27.2 18.1604 27.7 17.4104 28.18C17.0704 28.24 16.2804 28.55 15.4504 29.06C14.5204 29.63 14.2404 29.94 14.3704 30.07C14.5104 30.2 15.4404 29.79 16.0004 29.47C16.5704 29.14 17.3504 28.51 17.6304 28.23C19.6004 26.9 20.9804 24.94 21.9004 23.35C22.8804 21.67 23.7604 18.83 23.7604 16.54C23.8204 13.75 23.5504 11.67 21.9404 9.27ZM13.3104 2.81C13.3904 2.91 13.6704 3.12 14.1304 3.32C14.4604 3.46 14.6304 3.47 14.6304 3.47L14.8604 3.68C14.8604 3.68 14.4404 3.64 13.6204 3.24C12.8704 2.87 12.2904 2.46 12.3004 2.25C12.3004 2.04 12.9504 2.17 13.7404 2.54C14.4204 2.86 14.8504 3.21 14.9204 3.26C14.9304 3.26 14.9304 3.27 14.9304 3.27L15.0404 3.36L14.7104 3.3C14.7104 3.3 14.6804 3.27 14.5204 3.15C14.3404 3.02 14.0704 2.86 13.7304 2.73C13.3204 2.59 13.1904 2.66 13.3104 2.81ZM6.16035 1.35C6.26035 1.46 6.60035 1.67 7.14035 1.82C7.53035 1.93 7.73035 1.9 7.73035 1.9L8.01035 2.11C8.01035 2.11 7.52035 2.16 6.55035 1.82C5.66035 1.52 4.96035 1.13 4.94035 0.870004C4.92035 0.610004 5.68035 0.640004 6.61035 0.930004C7.41035 1.18 7.95035 1.53 8.03035 1.58C8.04035 1.58 8.04035 1.59 8.05035 1.59L8.18035 1.68L7.80035 1.67C7.80035 1.67 7.77035 1.63 7.57035 1.52C7.35035 1.39 7.03035 1.26 6.62035 1.17C6.15035 1.07 6.01035 1.19 6.16035 1.35ZM9.25035 6.17C9.33035 6.44 9.73035 6.88 10.5004 7.06C11.0504 7.19 11.3804 7.03 11.3804 7.03L11.6904 7.51C11.6904 7.51 10.8804 7.86 9.56035 7.34C8.35035 6.87 7.49035 6.08 7.64035 5.35C7.79035 4.61 8.97035 4.36 10.2604 4.78C11.3704 5.14 11.9904 5.89 12.0804 6C12.0904 6.01 12.0904 6.02 12.1004 6.03L12.2504 6.24L11.6504 6.38C11.6504 6.38 11.6204 6.29 11.3804 6.05C11.1204 5.79 10.7004 5.54 10.1104 5.46C9.42035 5.38 9.12035 5.78 9.25035 6.17ZM3.72035 10.02C4.09035 10.08 4.57035 9.99 4.94035 9.79L5.66035 10.58C5.07035 10.92 4.23035 11.06 3.49035 10.94C2.02035 10.7 1.06035 9.73 1.24035 8.66C1.41035 7.61 2.65035 7.02 4.14035 7.26C4.87035 7.38 5.61035 7.76 6.04035 8.23L5.09035 8.82C4.83035 8.48 4.42035 8.22 4.02035 8.15C3.36035 8.04 2.80035 8.36 2.71035 8.89C2.63035 9.43 3.06035 9.92 3.72035 10.02ZM7.22035 19.1C7.65035 19.12 8.19035 18.94 8.59035 18.64L9.50035 19.53C8.86035 20.03 7.92035 20.33 7.07035 20.28C5.36035 20.18 4.16035 19.11 4.24035 17.75C4.31035 16.41 5.65035 15.5 7.39035 15.6C8.24035 15.65 9.13035 16.01 9.67035 16.54L8.66035 17.42C8.33035 17.03 7.82035 16.76 7.36035 16.74C6.60035 16.7 5.99035 17.17 5.96035 17.84C5.91035 18.52 6.46035 19.06 7.22035 19.1ZM5.85035 28.68C4.70035 29.13 3.58035 28.78 3.22035 27.87C2.86035 26.97 3.46035 25.96 4.64035 25.5C5.21035 25.27 5.91035 25.25 6.42035 25.43L6.02035 26.31C5.68035 26.16 5.27035 26.13 4.96035 26.25C4.45035 26.45 4.19035 26.95 4.37035 27.4C4.55035 27.86 5.07035 28.05 5.59035 27.85C5.88035 27.74 6.18035 27.46 6.35035 27.14L7.22035 27.45C6.95035 27.98 6.42035 28.46 5.85035 28.68ZM14.1104 29.23C13.2304 29.72 12.3304 29.63 11.9904 29.02C11.6504 28.42 12.0604 27.6 12.9604 27.1C13.4004 26.86 13.9404 26.74 14.3604 26.8L14.1004 27.5C13.8304 27.44 13.5004 27.48 13.2604 27.61C12.8704 27.83 12.7004 28.22 12.8704 28.53C13.0404 28.83 13.4704 28.9 13.8604 28.68C14.0804 28.56 14.3004 28.31 14.4104 28.06L15.1204 28.16C14.9304 28.57 14.5504 28.99 14.1104 29.23ZM16.2404 29.21C15.8904 29.45 15.5704 29.56 15.3204 29.55C15.0804 29.54 15.2204 29.29 15.5704 29.05C15.9304 28.82 16.2904 28.71 16.2904 28.71L16.3504 28.69L16.3104 28.79C16.3104 28.79 16.3104 28.79 16.1804 28.83C16.0504 28.87 15.9204 28.95 15.7504 29.08C15.5804 29.21 15.6704 29.28 15.8304 29.25C15.9804 29.21 16.1604 29.13 16.3304 29.01C16.5004 28.89 16.5004 28.84 16.5004 28.84L16.7004 28.78C16.7104 28.79 16.5904 28.97 16.2404 29.21ZM23.5304 16.75C23.5304 16.9 23.4904 16.93 23.4204 16.92C23.3104 16.9 23.2004 16.88 23.0904 16.87C23.0504 17.13 23.0604 17.15 23.1804 17.18C23.2804 17.21 23.3804 17.24 23.5004 17.27C23.4504 17.63 23.4104 17.96 23.3604 18.3C23.3504 18.34 23.3004 18.39 23.2704 18.38C23.1804 18.35 23.0804 18.29 22.9904 18.27C22.9604 18.26 22.9204 18.33 22.8904 18.36C22.9104 18.42 22.9204 18.5 22.9504 18.52C23.0404 18.59 23.1304 18.63 23.2204 18.7C23.2504 18.72 23.2904 18.81 23.2804 18.84C23.2104 19.17 23.1304 19.49 23.0504 19.84C22.9404 19.75 22.8404 19.67 22.7404 19.59C22.6304 19.51 22.6304 19.51 22.5804 19.76C22.6804 19.86 22.7804 19.97 22.8804 20.07C22.9204 20.11 22.9604 20.16 22.9204 20.27C22.8204 20.56 22.7104 20.84 22.6004 21.15C22.5004 21.03 22.4104 20.93 22.3304 20.81C22.2504 20.69 22.1904 20.7 22.1504 20.92C22.2504 21.08 22.3604 21.25 22.4804 21.44C22.3304 21.73 22.1904 22.01 22.0404 22.31C21.9604 22.16 21.8804 22.03 21.8104 21.88C21.7404 21.73 21.6904 21.74 21.6304 21.94C21.7204 22.13 21.8104 22.33 21.9104 22.55C21.7404 22.79 21.5704 23.02 21.4004 23.27C21.3104 23.04 21.2304 22.83 21.1404 22.61C21.1004 22.66 21.0604 22.7 21.0204 22.76C21.0904 23 21.1604 23.23 21.2404 23.48C21.0704 23.65 20.9004 23.82 20.7204 23.97C20.7004 23.99 20.6504 23.94 20.6404 23.89C20.6004 23.74 20.5704 23.58 20.5204 23.43C20.5004 23.38 20.4504 23.36 20.4204 23.33C20.4104 23.4 20.3804 23.48 20.3804 23.53C20.4004 23.69 20.4404 23.85 20.4704 24.01C20.4904 24.12 20.4804 24.19 20.4204 24.22C20.2704 24.31 20.1204 24.39 19.9704 24.49C19.9004 24.53 19.8804 24.49 19.8704 24.37C19.8504 24.2 19.8304 24.04 19.8004 23.88C19.7904 23.83 19.7504 23.8 19.7204 23.76C19.7004 23.82 19.6604 23.89 19.6604 23.95C19.6704 24.13 19.6904 24.3 19.7004 24.48C19.7004 24.53 19.6704 24.63 19.6404 24.64C19.4904 24.69 19.3404 24.72 19.1904 24.77C19.1004 24.8 19.0704 24.72 19.0704 24.57C19.0704 24.38 19.0604 24.19 19.0504 23.99C19.0004 23.99 18.9604 23.99 18.9104 23.99C18.9104 24.21 18.9004 24.42 18.9104 24.63C18.9104 24.78 18.8904 24.84 18.8004 24.83C18.6604 24.81 18.5104 24.81 18.3704 24.81C18.2904 24.81 18.2704 24.75 18.2804 24.61C18.2904 24.4 18.3004 24.2 18.3004 23.98C18.2204 23.91 18.1704 23.95 18.1504 24.14C18.1404 24.3 18.1204 24.47 18.1004 24.63C18.0904 24.68 18.0404 24.75 18.0204 24.74C17.8604 24.69 17.7104 24.64 17.5604 24.56C17.5304 24.55 17.5004 24.44 17.5104 24.38C17.5204 24.23 17.5504 24.08 17.5804 23.94C17.6204 23.75 17.5904 23.67 17.4704 23.68C17.4304 23.88 17.3804 24.08 17.3504 24.28C17.3304 24.41 17.3004 24.46 17.2204 24.4C17.0904 24.29 16.9604 24.19 16.8304 24.1C16.7504 24.04 16.7404 23.96 16.7804 23.82C16.8204 23.68 16.8604 23.54 16.8904 23.39C16.9004 23.34 16.8804 23.27 16.8704 23.2C16.8404 23.22 16.7804 23.22 16.7704 23.26C16.7004 23.45 16.6404 23.65 16.5704 23.88C16.3904 23.68 16.2304 23.48 16.0504 23.27C16.1204 23.07 16.1904 22.89 16.2604 22.72C16.2904 22.63 16.3204 22.54 16.2504 22.5C16.2204 22.48 16.1604 22.52 16.1404 22.56C16.0604 22.72 15.9904 22.89 15.9004 23.08C15.7504 22.82 15.6004 22.57 15.4504 22.31C15.5604 22.1 15.6604 21.9 15.7804 21.69C15.7404 21.63 15.7204 21.58 15.6804 21.51C15.5804 21.67 15.4904 21.81 15.4004 21.96C15.3604 22.02 15.3304 22.08 15.2904 21.98C15.1804 21.72 15.0804 21.45 14.9604 21.16C15.0904 20.99 15.2004 20.83 15.3204 20.67C15.3004 20.47 15.2504 20.43 15.1604 20.55C15.0704 20.66 14.9704 20.76 14.8604 20.89C14.7704 20.56 14.6904 20.25 14.6104 19.93C14.6004 19.9 14.6404 19.81 14.6704 19.78C14.7704 19.68 14.8804 19.59 14.9804 19.5C14.9804 19.28 14.9304 19.23 14.8304 19.32C14.7604 19.39 14.6804 19.43 14.6004 19.49C14.5404 19.54 14.5004 19.53 14.4804 19.4C14.4404 19.13 14.4004 18.87 14.3604 18.6C14.3404 18.47 14.3704 18.42 14.4304 18.39C14.5104 18.35 14.6004 18.3 14.6804 18.26C14.7304 18.23 14.7904 18.19 14.7604 18.07C14.7504 18.02 14.6904 17.98 14.6604 17.98C14.5604 18 14.4704 18.05 14.3704 18.07C14.3404 18.08 14.2904 18.02 14.2904 17.98C14.2704 17.65 14.2504 17.32 14.2304 16.95C14.3504 16.92 14.4504 16.9 14.5504 16.88C14.6804 16.86 14.6904 16.85 14.6604 16.58C14.5404 16.59 14.4204 16.6 14.3004 16.61C14.2404 16.62 14.2104 16.58 14.2204 16.46C14.2304 16.13 14.2404 15.8 14.2504 15.46C14.4104 15.47 14.5504 15.47 14.7004 15.48C14.7104 15.39 14.7104 15.32 14.7204 15.23C14.6004 15.2 14.5004 15.16 14.3904 15.14C14.3104 15.13 14.2704 15.08 14.3004 14.91C14.3404 14.65 14.3704 14.38 14.4104 14.11C14.4304 13.99 14.4604 13.96 14.5204 13.99C14.6104 14.03 14.7004 14.09 14.7904 14.11C14.8204 14.12 14.8604 14.04 14.8904 14.01C14.8704 13.96 14.8604 13.88 14.8304 13.86C14.7204 13.78 14.6104 13.71 14.4804 13.63C14.5604 13.29 14.6404 12.97 14.7204 12.66C14.7304 12.62 14.7904 12.59 14.8104 12.61C14.9004 12.67 14.9804 12.76 15.0704 12.82C15.1004 12.84 15.1404 12.79 15.1804 12.78C15.1704 12.71 15.1704 12.61 15.1404 12.58C15.0404 12.46 14.9404 12.36 14.8204 12.24C14.9304 11.93 15.0404 11.63 15.1504 11.34C15.1604 11.31 15.2204 11.31 15.2504 11.34C15.3304 11.43 15.4104 11.54 15.4904 11.63C15.5104 11.65 15.5604 11.61 15.5904 11.6C15.5904 11.53 15.5904 11.44 15.5704 11.41C15.5104 11.29 15.4304 11.19 15.3604 11.09C15.3004 11.01 15.2904 10.94 15.3504 10.83C15.4604 10.63 15.5604 10.43 15.6604 10.22C15.7104 10.12 15.7504 10.11 15.7904 10.21C15.8604 10.36 15.9504 10.5 16.0204 10.64C16.1504 10.52 16.1504 10.5 16.0704 10.32C16.0104 10.18 15.9404 10.04 15.8804 9.9C15.8804 9.89 15.8804 9.87 15.8704 9.83C16.0304 9.61 16.1904 9.38 16.3604 9.13C16.4504 9.35 16.5304 9.56 16.6104 9.77C16.7504 9.69 16.7504 9.67 16.6804 9.46C16.6304 9.29 16.5704 9.12 16.5104 8.93C16.7004 8.74 16.8804 8.57 17.0804 8.38C17.1404 8.63 17.2004 8.87 17.2704 9.12C17.3104 9.09 17.3504 9.06 17.4004 9.02C17.3504 8.76 17.3104 8.51 17.2604 8.22C17.4504 8.11 17.6304 8 17.8104 7.9C17.8304 7.89 17.8804 7.97 17.8904 8.02C17.9304 8.22 17.9504 8.43 17.9804 8.64C18.0304 8.62 18.0704 8.61 18.1204 8.59C18.1004 8.32 18.0804 8.05 18.0604 7.76C18.2604 7.71 18.4504 7.65 18.6304 7.61C18.6504 7.61 18.6804 7.7 18.6904 7.75C18.7004 7.92 18.7004 8.09 18.7104 8.26C18.7104 8.32 18.7504 8.36 18.7804 8.41C18.8104 8.35 18.8504 8.3 18.8604 8.24C18.8704 8.07 18.8704 7.9 18.8704 7.72C18.8704 7.59 18.9004 7.54 18.9704 7.54C19.1204 7.55 19.2604 7.56 19.4104 7.57C19.4804 7.57 19.5104 7.63 19.4904 7.76C19.4804 7.93 19.4604 8.1 19.4604 8.28C19.4604 8.33 19.5004 8.4 19.5204 8.43C19.5304 8.44 19.5904 8.37 19.5904 8.32C19.6204 8.15 19.6304 7.97 19.6504 7.79C19.6604 7.66 19.7004 7.61 19.7604 7.64C19.9004 7.7 20.0404 7.75 20.1804 7.8C20.2604 7.83 20.2904 7.9 20.2604 8.05C20.2204 8.24 20.2004 8.44 20.1704 8.65C20.2204 8.67 20.2504 8.69 20.3004 8.72C20.3404 8.51 20.3904 8.31 20.4304 8.11C20.4504 7.97 20.4904 7.93 20.5604 7.99C20.6904 8.09 20.8304 8.2 20.9604 8.3C21.0304 8.35 21.0404 8.42 21.0004 8.55C20.9604 8.68 20.9404 8.82 20.9004 8.94C20.8404 9.13 20.8804 9.2 20.9804 9.23C21.0504 9 21.1304 8.77 21.2104 8.51C21.3704 8.7 21.5304 8.88 21.6804 9.08C21.7004 9.1 21.6904 9.21 21.6804 9.26C21.6204 9.44 21.5504 9.62 21.4704 9.82C21.5004 9.87 21.5404 9.92 21.5804 9.98C21.6804 9.76 21.7804 9.56 21.8904 9.32C22.0404 9.58 22.1904 9.82 22.3404 10.09C22.2304 10.29 22.1304 10.49 22.0204 10.69C22.0504 10.75 22.0704 10.81 22.1104 10.89C22.2004 10.75 22.2804 10.64 22.3604 10.5C22.4404 10.34 22.5004 10.37 22.5604 10.53C22.6304 10.72 22.7004 10.91 22.7804 11.09C22.8404 11.22 22.8204 11.29 22.7504 11.38C22.6804 11.46 22.6004 11.56 22.5404 11.66C22.5204 11.7 22.5004 11.79 22.5104 11.85C22.5304 11.96 22.5704 11.94 22.6204 11.89C22.7204 11.77 22.8204 11.66 22.9504 11.53C23.0404 11.87 23.1304 12.2 23.2304 12.56C23.1104 12.67 23.0104 12.76 22.9004 12.86C22.8504 12.91 22.8004 12.96 22.8404 13.06C22.8604 13.11 22.9204 13.13 22.9504 13.11C23.0404 13.06 23.1304 12.98 23.2204 12.93C23.2504 12.91 23.3104 12.95 23.3204 12.99C23.3804 13.31 23.4204 13.64 23.4804 13.98C23.3304 14.06 23.2004 14.14 23.0604 14.21C23.0504 14.45 23.0604 14.48 23.1804 14.44C23.2304 14.42 23.2804 14.4 23.3304 14.38C23.5204 14.32 23.5204 14.32 23.5504 14.65C23.5704 14.86 23.5704 15.08 23.5804 15.29C23.5904 15.43 23.5504 15.48 23.4804 15.49C23.3704 15.5 23.2604 15.53 23.1504 15.55C23.1504 15.64 23.1404 15.71 23.1404 15.79C23.2604 15.79 23.3804 15.81 23.5004 15.8C23.5704 15.8 23.6004 15.85 23.5904 15.97C23.5504 16.21 23.5404 16.48 23.5304 16.75Z" fill="white"/>
<path d="M15.0704 19.42C15.0704 19.2 15.0204 19.15 14.9204 19.24C14.8504 19.31 14.7704 19.35 14.6904 19.41C14.6304 19.46 14.5904 19.45 14.5704 19.32C14.5304 19.05 14.4904 18.79 14.4504 18.53C14.4304 18.4 14.4604 18.35 14.5204 18.32C14.6004 18.28 14.6804 18.23 14.7704 18.19C14.8204 18.16 14.8804 18.12 14.8404 18.01C14.8304 17.96 14.7704 17.92 14.7404 17.92C14.6504 17.94 14.5504 17.99 14.4604 18.01C14.4304 18.02 14.3804 17.96 14.3804 17.92C14.3604 17.59 14.3404 17.26 14.3204 16.89C14.4304 16.86 14.5304 16.84 14.6404 16.82C14.7704 16.8 14.7704 16.79 14.7504 16.52C14.6304 16.53 14.5204 16.54 14.4004 16.55C14.3404 16.56 14.3204 16.52 14.3204 16.41C14.3304 16.08 14.3404 15.76 14.3504 15.41C14.5004 15.42 14.6404 15.42 14.7904 15.43C14.8004 15.34 14.8004 15.27 14.8104 15.18C14.7004 15.15 14.5904 15.11 14.4904 15.09C14.4104 15.08 14.3704 15.03 14.4004 14.86C14.4404 14.6 14.4704 14.33 14.5104 14.06C14.5304 13.94 14.5604 13.91 14.6204 13.94C14.7104 13.98 14.7904 14.04 14.8804 14.06C14.9104 14.07 14.9504 13.99 14.9804 13.96C14.9604 13.91 14.9504 13.83 14.9204 13.81C14.8104 13.73 14.7004 13.66 14.5804 13.58C14.6604 13.25 14.7304 12.93 14.8104 12.62C14.8204 12.58 14.8804 12.55 14.9004 12.57C14.9904 12.63 15.0704 12.72 15.1604 12.78C15.1904 12.8 15.2304 12.75 15.2704 12.74C15.2604 12.67 15.2604 12.57 15.2404 12.54C15.1404 12.42 15.0404 12.32 14.9204 12.2C15.0304 11.89 15.1304 11.6 15.2404 11.31C15.2504 11.28 15.3104 11.28 15.3304 11.31C15.4104 11.4 15.4804 11.51 15.5604 11.6C15.5804 11.62 15.6304 11.58 15.6604 11.57C15.6604 11.5 15.6604 11.41 15.6404 11.38C15.5804 11.26 15.5004 11.16 15.4304 11.06C15.3704 10.98 15.3604 10.91 15.4204 10.8C15.5304 10.6 15.6304 10.4 15.7204 10.19C15.7704 10.09 15.8004 10.08 15.8504 10.18C15.9204 10.33 16.0004 10.47 16.0804 10.61C16.2004 10.49 16.2104 10.47 16.1304 10.29C16.0704 10.15 16.0104 10.01 15.9404 9.87C15.9404 9.86 15.9404 9.84 15.9304 9.8C16.0804 9.58 16.2404 9.35 16.4204 9.1C16.5004 9.32 16.5804 9.53 16.6604 9.73C16.7904 9.65 16.8004 9.63 16.7304 9.42C16.6804 9.25 16.6304 9.08 16.5704 8.89C16.7604 8.7 16.9404 8.53 17.1304 8.34C17.1904 8.59 17.2504 8.83 17.3104 9.08C17.3504 9.05 17.3904 9.02 17.4404 8.98C17.3904 8.72 17.3504 8.47 17.3004 8.19C17.4904 8.08 17.6604 7.97 17.8404 7.88C17.8604 7.87 17.9104 7.94 17.9204 8C17.9504 8.2 17.9804 8.41 18.0104 8.62C18.0604 8.6 18.0904 8.59 18.1504 8.57C18.1304 8.3 18.1104 8.04 18.0904 7.74C18.2904 7.69 18.4704 7.63 18.6504 7.59C18.6704 7.59 18.7004 7.68 18.7104 7.73C18.7204 7.9 18.7204 8.07 18.7304 8.24C18.7304 8.3 18.7704 8.34 18.8004 8.39C18.8304 8.33 18.8704 8.28 18.8804 8.22C18.8904 8.05 18.8904 7.88 18.8904 7.71C18.8904 7.58 18.9204 7.53 18.9904 7.53C19.1304 7.54 19.2804 7.55 19.4204 7.56C19.4904 7.56 19.5104 7.62 19.5004 7.75C19.4904 7.92 19.4704 8.09 19.4704 8.26C19.4704 8.31 19.5104 8.38 19.5304 8.4C19.5404 8.41 19.6004 8.34 19.6004 8.29C19.6304 8.12 19.6404 7.94 19.6604 7.76C19.6704 7.63 19.7004 7.58 19.7704 7.61C19.9104 7.67 20.0404 7.72 20.1804 7.77C20.2604 7.8 20.2904 7.87 20.2604 8.02C20.2304 8.21 20.2004 8.4 20.1704 8.61C20.2104 8.63 20.2504 8.65 20.3004 8.68C20.3404 8.47 20.3904 8.28 20.4304 8.07C20.4504 7.93 20.4904 7.89 20.5604 7.95C20.6904 8.05 20.8204 8.16 20.9604 8.25C21.0304 8.3 21.0404 8.37 21.0004 8.49C20.9604 8.62 20.9404 8.76 20.9004 8.88C20.8404 9.07 20.8804 9.14 20.9804 9.17C21.0504 8.94 21.1304 8.71 21.2104 8.45C21.3704 8.64 21.5204 8.82 21.6704 9.01C21.6904 9.03 21.6804 9.14 21.6704 9.19C21.6104 9.37 21.5404 9.55 21.4604 9.74C21.4904 9.79 21.5204 9.84 21.5604 9.9C21.6604 9.68 21.7504 9.48 21.8604 9.25C22.0104 9.51 22.1504 9.75 22.3004 10.02C22.1904 10.22 22.0904 10.41 21.9904 10.62C22.0204 10.68 22.0404 10.74 22.0804 10.82C22.1604 10.68 22.2504 10.57 22.3204 10.43C22.4004 10.27 22.4604 10.3 22.5104 10.46C22.5804 10.65 22.6504 10.84 22.7304 11.02C22.7904 11.15 22.7704 11.22 22.7004 11.31C22.6304 11.39 22.5604 11.49 22.4904 11.59C22.4704 11.63 22.4504 11.72 22.4604 11.78C22.4804 11.89 22.5204 11.87 22.5704 11.82C22.6704 11.71 22.7704 11.6 22.8904 11.46C22.9804 11.8 23.0704 12.13 23.1604 12.48C23.0504 12.59 22.9404 12.68 22.8404 12.77C22.7904 12.81 22.7404 12.87 22.7904 12.97C22.8104 13.01 22.8704 13.04 22.9004 13.02C22.9904 12.97 23.0704 12.89 23.1604 12.84C23.1904 12.82 23.2504 12.86 23.2604 12.9C23.3204 13.22 23.3604 13.54 23.4104 13.88C23.2604 13.96 23.1304 14.04 23.0004 14.11C22.9904 14.35 23.0004 14.38 23.1204 14.34C23.1704 14.32 23.2204 14.3 23.2704 14.28C23.4604 14.22 23.4604 14.22 23.4804 14.55C23.4904 14.76 23.5004 14.98 23.5104 15.19C23.5204 15.33 23.4804 15.38 23.4104 15.39C23.3004 15.4 23.2004 15.43 23.0904 15.45C23.0904 15.54 23.0804 15.6 23.0804 15.69C23.2004 15.69 23.3204 15.71 23.4404 15.7C23.5104 15.7 23.5304 15.75 23.5304 15.87C23.5204 16.14 23.5104 16.41 23.5004 16.68C23.5004 16.83 23.4604 16.86 23.3904 16.85C23.2804 16.83 23.1704 16.81 23.0704 16.8C23.0304 17.06 23.0404 17.08 23.1604 17.11C23.2604 17.13 23.3604 17.17 23.4804 17.2C23.4304 17.56 23.3904 17.89 23.3404 18.22C23.3304 18.26 23.2804 18.31 23.2504 18.3C23.1604 18.27 23.0704 18.21 22.9704 18.19C22.9404 18.18 22.9004 18.25 22.8704 18.28C22.8904 18.34 22.9004 18.42 22.9304 18.44C23.0204 18.51 23.1104 18.55 23.2004 18.61C23.2304 18.63 23.2604 18.72 23.2604 18.75C23.1904 19.08 23.1104 19.4 23.0304 19.74C22.9204 19.65 22.8204 19.57 22.7304 19.49C22.6304 19.41 22.6304 19.41 22.5704 19.66C22.6704 19.76 22.7704 19.87 22.8704 19.97C22.9104 20.01 22.9504 20.06 22.9104 20.17C22.8104 20.45 22.7104 20.74 22.6004 21.05C22.5104 20.93 22.4204 20.83 22.3404 20.71C22.2604 20.59 22.2104 20.6 22.1704 20.82C22.2704 20.98 22.3804 21.14 22.5004 21.34C22.3604 21.63 22.2204 21.91 22.0704 22.21C21.9904 22.06 21.9104 21.93 21.8404 21.78C21.7704 21.63 21.7204 21.64 21.6604 21.84C21.7404 22.03 21.8304 22.22 21.9404 22.45C21.7704 22.69 21.6104 22.92 21.4404 23.17C21.3504 22.94 21.2704 22.73 21.1904 22.51C21.1504 22.56 21.1204 22.6 21.0704 22.66C21.1404 22.9 21.2104 23.12 21.2904 23.38C21.1204 23.55 20.9504 23.72 20.7804 23.87C20.7604 23.89 20.7104 23.84 20.7004 23.79C20.6604 23.64 20.6304 23.48 20.5804 23.33C20.5604 23.28 20.5204 23.26 20.4804 23.23C20.4704 23.3 20.4404 23.37 20.4404 23.43C20.4604 23.59 20.5004 23.75 20.5304 23.91C20.5504 24.02 20.5404 24.08 20.4804 24.12C20.3304 24.21 20.1904 24.29 20.0404 24.39C19.9804 24.43 19.9504 24.39 19.9404 24.27C19.9204 24.1 19.9004 23.94 19.8704 23.78C19.8604 23.73 19.8204 23.7 19.7904 23.66C19.7704 23.72 19.7304 23.79 19.7304 23.85C19.7404 24.03 19.7604 24.2 19.7704 24.38C19.7704 24.43 19.7404 24.53 19.7104 24.54C19.5604 24.59 19.4104 24.62 19.2704 24.67C19.1804 24.7 19.1604 24.62 19.1504 24.47C19.1504 24.28 19.1404 24.09 19.1304 23.89C19.0804 23.89 19.0504 23.89 18.9904 23.89C18.9904 24.11 18.9804 24.32 18.9904 24.53C18.9904 24.68 18.9704 24.74 18.8804 24.73C18.7404 24.71 18.6004 24.71 18.4604 24.71C18.3804 24.71 18.3604 24.65 18.3704 24.51C18.3804 24.31 18.3904 24.1 18.3904 23.89C18.3104 23.82 18.2604 23.86 18.2404 24.05C18.2304 24.21 18.2104 24.38 18.1904 24.54C18.1804 24.59 18.1304 24.66 18.1104 24.65C17.9604 24.6 17.8004 24.55 17.6504 24.48C17.6204 24.47 17.5904 24.36 17.6004 24.3C17.6104 24.15 17.6404 24 17.6604 23.86C17.7004 23.67 17.6704 23.59 17.5504 23.6C17.5104 23.8 17.4704 24 17.4304 24.2C17.4104 24.33 17.3804 24.38 17.3104 24.32C17.1804 24.21 17.0504 24.11 16.9204 24.03C16.8404 23.97 16.8304 23.89 16.8704 23.75C16.9104 23.61 16.9504 23.47 16.9804 23.32C16.9904 23.27 16.9704 23.2 16.9604 23.13C16.9304 23.15 16.8704 23.15 16.8604 23.19C16.7904 23.38 16.7404 23.57 16.6604 23.81C16.4904 23.61 16.3204 23.41 16.1504 23.2C16.2204 23 16.2904 22.82 16.3604 22.65C16.3904 22.56 16.4204 22.47 16.3504 22.43C16.3204 22.41 16.2704 22.45 16.2404 22.49C16.1604 22.65 16.0904 22.82 16.0004 23.01C15.8504 22.75 15.7104 22.51 15.5604 22.24C15.6704 22.03 15.7704 21.84 15.8804 21.63C15.8504 21.57 15.8204 21.52 15.7804 21.45C15.6804 21.6 15.5904 21.75 15.5004 21.9C15.4604 21.96 15.4304 22.02 15.3904 21.92C15.2904 21.66 15.1804 21.39 15.0704 21.11C15.1904 20.94 15.3104 20.78 15.4204 20.62C15.4004 20.42 15.3504 20.38 15.2604 20.5C15.1704 20.61 15.0704 20.71 14.9604 20.84C14.8804 20.51 14.7904 20.2 14.7204 19.88C14.7104 19.85 14.7504 19.76 14.7804 19.73C14.8604 19.6 14.9704 19.51 15.0704 19.42ZM23.1404 13.63C23.0604 13.68 23.0004 13.72 22.9304 13.76C22.8704 13.8 22.8404 13.76 22.8204 13.65C22.7904 13.48 22.7604 13.31 22.7304 13.15C22.6504 12.76 22.6504 12.76 22.8504 12.57C23.0404 12.38 23.0504 12.47 22.9504 12.07C22.8504 11.67 22.8704 11.73 22.6804 11.93C22.5404 12.08 22.5404 12.11 22.6604 12.35C22.6804 12.28 22.6904 12.21 22.7104 12.15C22.7204 12.11 22.7404 12.07 22.7604 12.03C22.7804 12.06 22.8004 12.08 22.8204 12.12C22.8404 12.18 22.8504 12.25 22.8604 12.32C22.7904 12.39 22.7304 12.44 22.6804 12.51C22.6104 12.59 22.5804 12.55 22.5504 12.43C22.4904 12.21 22.4204 11.99 22.3504 11.78C22.3104 11.67 22.3204 11.61 22.3804 11.54C22.4704 11.42 22.5604 11.29 22.6604 11.15C22.5804 10.95 22.5104 10.77 22.4304 10.56C22.3304 10.71 22.2504 10.85 22.1604 10.99C22.2004 11.08 22.2304 11.15 22.2804 11.24C22.3104 11.16 22.3304 11.11 22.3404 11.05C22.3504 10.99 22.3604 10.93 22.3704 10.88C22.4004 10.91 22.4304 10.94 22.4504 10.98C22.5004 11.07 22.5104 11.15 22.4404 11.24C22.3804 11.31 22.3304 11.39 22.2604 11.48C22.1804 11.3 22.1004 11.13 22.0204 10.96C21.8704 10.65 21.8704 10.65 22.0304 10.34C22.1904 10.02 22.1904 10.1 22.0304 9.81C21.8704 9.53 21.9004 9.53 21.7604 9.84C21.6504 10.08 21.6504 10.08 21.8104 10.27C21.8204 10.18 21.8304 10.12 21.8304 10.05C21.8404 10 21.8404 9.95 21.8504 9.9C21.8704 9.91 21.9004 9.91 21.9204 9.93C21.9604 9.96 21.9904 10.01 22.0304 10.05C21.9604 10.2 21.9104 10.29 21.8704 10.38C21.8204 10.5 21.7804 10.48 21.7304 10.39C21.6304 10.22 21.5204 10.07 21.4204 9.92C21.3704 9.84 21.3604 9.78 21.4004 9.67C21.4504 9.54 21.5004 9.41 21.5404 9.27C21.5504 9.22 21.5604 9.11 21.5404 9.09C21.4504 8.97 21.3604 8.86 21.2504 8.74C21.1904 8.94 21.1304 9.11 21.0704 9.3C21.1204 9.36 21.1704 9.41 21.2404 9.49C21.2404 9.36 21.2304 9.29 21.2304 9.22C21.2304 9.18 21.2304 9.11 21.2404 9.09C21.2504 9.07 21.2904 9.06 21.3104 9.08C21.3804 9.14 21.4304 9.22 21.3604 9.38C21.3304 9.45 21.3104 9.53 21.2804 9.59C21.2604 9.62 21.2204 9.65 21.2004 9.64C21.0404 9.48 20.8904 9.32 20.7304 9.15C20.7504 9.06 20.7704 8.98 20.7904 8.91C20.9204 8.38 20.9204 8.35 20.6104 8.2C20.6004 8.19 20.5904 8.18 20.5804 8.18C20.5604 8.19 20.5304 8.21 20.5204 8.23C20.4804 8.39 20.4504 8.56 20.4104 8.76C20.4804 8.78 20.5404 8.84 20.5704 8.8C20.6304 8.73 20.5804 8.65 20.5604 8.57C20.5504 8.55 20.5904 8.44 20.6104 8.44C20.7004 8.43 20.7404 8.56 20.7104 8.72C20.6904 8.79 20.6804 8.85 20.6704 8.92C20.6504 9.04 20.6104 9.06 20.5504 9.02C20.4704 8.96 20.3804 8.9 20.3004 8.85C20.0704 8.71 20.0704 8.71 20.1304 8.27C20.1704 7.96 20.1704 7.96 20.0104 7.88C19.8004 7.78 19.8004 7.78 19.7504 8.16C19.7104 8.44 19.7204 8.46 19.9004 8.46C19.9004 8.39 19.9004 8.33 19.8904 8.27C19.8804 8.21 19.8704 8.16 19.8604 8.1C19.9004 8.09 19.9304 8.08 19.9704 8.08C20.0004 8.08 20.0204 8.1 20.0504 8.12C20.0304 8.26 20.0204 8.39 20.0004 8.52C19.9904 8.64 19.9504 8.66 19.8904 8.64C19.7504 8.59 19.6104 8.56 19.4604 8.53C19.4004 8.52 19.3804 8.47 19.3904 8.37C19.4004 8.21 19.4004 8.06 19.4104 7.9C19.4204 7.79 19.4104 7.7 19.3404 7.71C19.2404 7.72 19.1304 7.75 19.0304 7.77C19.0304 7.77 19.0304 7.8 19.0304 7.81C19.0204 7.98 19.0204 8.15 19.0104 8.32C19.0504 8.33 19.0704 8.34 19.0904 8.33C19.1204 8.31 19.1604 8.28 19.1904 8.26C19.1704 8.21 19.1504 8.16 19.1404 8.11C19.1304 8.07 19.1204 8.02 19.1204 7.98C19.1204 7.96 19.1504 7.93 19.1704 7.93C19.2104 7.92 19.2504 7.93 19.3104 7.93C19.3104 8.07 19.3004 8.18 19.3004 8.29C19.3004 8.45 19.2704 8.52 19.1804 8.51C19.0504 8.5 18.9104 8.51 18.7804 8.53C18.7104 8.54 18.6904 8.5 18.6804 8.37C18.6504 7.69 18.6504 7.69 18.2904 7.85C18.2804 7.85 18.2804 7.87 18.2604 7.89C18.2804 8.08 18.2904 8.27 18.3104 8.47C18.3404 8.47 18.3504 8.48 18.3604 8.47C18.4004 8.44 18.4404 8.4 18.4804 8.36C18.4604 8.31 18.4304 8.27 18.4104 8.22C18.4004 8.19 18.3804 8.15 18.3804 8.11C18.3804 8.08 18.4104 8.04 18.4204 8.03C18.4604 8.01 18.5104 8.02 18.5604 8.01C18.5704 8.17 18.5804 8.3 18.5804 8.44C18.5804 8.49 18.5504 8.57 18.5304 8.58C18.3504 8.66 18.1804 8.72 18.0004 8.79C17.9804 8.65 17.9604 8.53 17.9404 8.4C17.8804 7.96 17.9004 8.04 17.7004 8.15C17.4704 8.29 17.4904 8.23 17.5604 8.63C17.6104 8.9 17.6204 8.9 17.7704 8.73C17.7504 8.68 17.7404 8.63 17.7204 8.59C17.7004 8.54 17.6704 8.51 17.6404 8.47C17.6704 8.43 17.7004 8.39 17.7304 8.36C17.7804 8.31 17.8204 8.34 17.8304 8.45C17.8404 8.55 17.8704 8.64 17.8704 8.74C17.8704 8.79 17.8504 8.88 17.8304 8.9C17.6704 9.03 17.5004 9.14 17.3304 9.27C17.2704 9.04 17.2104 8.82 17.1504 8.58C17.0304 8.7 16.9204 8.81 16.7904 8.93C16.8504 9.12 16.9004 9.29 16.9504 9.47C16.9904 9.43 17.0204 9.41 17.0504 9.38C17.0704 9.35 17.0904 9.29 17.0804 9.26C17.0704 9.22 17.0404 9.19 17.0204 9.16C17.0004 9.13 16.9704 9.11 16.9404 9.09C16.9604 9.04 16.9804 8.99 17.0004 8.95C17.0604 8.87 17.1004 8.87 17.1304 9.01C17.1504 9.09 17.1704 9.16 17.1904 9.24C17.2204 9.33 17.2104 9.39 17.1504 9.45C17.0204 9.59 16.8904 9.73 16.7704 9.88C16.7104 9.95 16.6804 9.94 16.6404 9.83C16.5904 9.7 16.5504 9.57 16.4904 9.46C16.4704 9.42 16.4104 9.39 16.3904 9.42C16.3004 9.53 16.2204 9.66 16.1204 9.8C16.1904 9.97 16.2604 10.12 16.3304 10.28C16.3604 10.25 16.3804 10.23 16.3904 10.2C16.4104 10.15 16.4304 10.09 16.4504 10.03C16.4204 10.01 16.3804 9.99 16.3504 9.96C16.3304 9.94 16.3004 9.92 16.2904 9.89C16.2804 9.87 16.3004 9.81 16.3104 9.78C16.3404 9.73 16.3804 9.69 16.4204 9.63C16.4704 9.75 16.5204 9.86 16.5504 9.98C16.5604 10.02 16.5504 10.13 16.5304 10.17C16.4204 10.36 16.3104 10.53 16.2004 10.72C16.1504 10.81 16.1104 10.81 16.0704 10.72C16.0104 10.6 15.9504 10.49 15.8804 10.39C15.8604 10.36 15.8004 10.36 15.7904 10.39C15.7104 10.53 15.6304 10.69 15.5504 10.86C15.6404 11 15.7204 11.12 15.8104 11.26C15.8504 11.17 15.8804 11.09 15.9404 10.97C15.8504 10.95 15.7804 10.93 15.7004 10.91C15.8304 10.59 15.8304 10.59 15.9504 10.8C15.9604 10.82 15.9804 10.85 15.9904 10.87C16.0504 10.95 16.0504 11.02 16.0004 11.13C15.9104 11.31 15.8204 11.49 15.7504 11.68C15.6904 11.85 15.6404 11.85 15.5604 11.75C15.3004 11.42 15.3004 11.43 15.1404 11.96C15.1404 11.97 15.1304 11.97 15.1304 11.98C15.1404 12.04 15.1304 12.13 15.1504 12.15C15.2204 12.24 15.3004 12.31 15.3704 12.39C15.3904 12.37 15.4004 12.36 15.4004 12.34C15.4204 12.26 15.4304 12.19 15.4504 12.11C15.4104 12.11 15.3704 12.13 15.3304 12.12C15.3004 12.11 15.2704 12.08 15.2204 12.04C15.3104 11.97 15.3004 11.72 15.4104 11.83C15.4804 11.89 15.5404 11.98 15.6004 12.06C15.5004 12.38 15.4204 12.68 15.3204 12.98C15.3104 13.01 15.2604 13.02 15.2304 13C15.1504 12.94 15.0704 12.86 14.9804 12.81C14.9504 12.79 14.9004 12.82 14.8904 12.86C14.8404 13.04 14.8004 13.24 14.7504 13.45C14.8504 13.51 14.9404 13.58 15.0304 13.62C15.0504 13.63 15.0904 13.57 15.1004 13.53C15.1104 13.47 15.1004 13.4 15.1104 13.34C15.0804 13.34 15.0604 13.34 15.0304 13.34C15.0004 13.35 14.9704 13.37 14.9404 13.38C14.9404 13.31 14.9404 13.24 14.9604 13.18C14.9704 13.13 15.0204 13.06 15.0404 13.07C15.1204 13.12 15.2004 13.19 15.2704 13.25C15.2104 13.58 15.1504 13.88 15.0904 14.18C15.0804 14.23 15.0204 14.29 14.9904 14.28C14.8804 14.25 14.7804 14.2 14.6604 14.15C14.6204 14.4 14.5904 14.63 14.5604 14.88C14.6904 14.92 14.7904 14.94 14.9104 14.98C14.9104 14.85 14.9104 14.76 14.9004 14.66C14.8604 14.69 14.8304 14.73 14.7904 14.74C14.7604 14.75 14.7204 14.73 14.7104 14.7C14.6804 14.56 14.7504 14.4 14.8404 14.43C14.8804 14.44 14.9204 14.46 14.9604 14.48C15.0204 14.5 15.0404 14.56 15.0204 14.68C14.9904 14.93 14.9704 15.19 14.9504 15.44C14.9404 15.57 14.9104 15.63 14.8404 15.62C14.7304 15.61 14.6304 15.61 14.5004 15.61C14.4904 15.82 14.4804 16.02 14.4804 16.22C14.4804 16.26 14.5204 16.34 14.5404 16.34C14.6304 16.35 14.7104 16.33 14.8004 16.33C14.8104 16.29 14.8204 16.27 14.8104 16.25C14.8004 16.17 14.7904 16.09 14.7904 16.02C14.7604 16.06 14.7304 16.12 14.6904 16.14C14.6604 16.16 14.6104 16.15 14.6004 16.12C14.5604 15.98 14.6204 15.81 14.7004 15.81C14.7504 15.81 14.7904 15.81 14.8404 15.83C14.8704 15.84 14.9104 15.9 14.9104 15.93C14.9104 16.27 14.9104 16.61 14.9104 16.95C14.8304 16.97 14.7704 16.99 14.7104 17.01C14.6804 17.02 14.6504 17.03 14.6204 17.03C14.5104 17.02 14.4704 17.11 14.5004 17.31C14.5104 17.35 14.5104 17.39 14.5104 17.44C14.5304 17.8 14.5304 17.8 14.7204 17.74C14.8804 17.69 14.8904 17.67 14.8304 17.36C14.8004 17.4 14.7704 17.43 14.7404 17.47C14.7204 17.51 14.6904 17.55 14.6704 17.59C14.6504 17.52 14.6304 17.45 14.6204 17.37C14.6204 17.33 14.6504 17.24 14.6704 17.23C14.7504 17.2 14.8304 17.19 14.9204 17.17C14.9504 17.5 14.9804 17.82 15.0104 18.13C15.0104 18.16 15.0204 18.2 15.0204 18.25C14.9804 18.28 14.9404 18.31 14.9004 18.33C14.5904 18.5 14.5804 18.54 14.7004 19.09C14.7004 19.1 14.7004 19.11 14.7004 19.11C14.7204 19.13 14.7504 19.18 14.7704 19.17C14.8604 19.12 14.9504 19.05 15.0404 18.99C15.0304 18.93 15.0304 18.9 15.0204 18.88C15.0004 18.82 14.9804 18.77 14.9504 18.71C14.9304 18.76 14.9104 18.82 14.8904 18.87C14.8704 18.91 14.8504 18.94 14.8204 18.97C14.7204 18.68 14.7304 18.63 14.8904 18.54C14.9404 18.51 14.9904 18.49 15.0304 18.46C15.0904 18.77 15.1604 19.07 15.2104 19.38C15.2204 19.42 15.1904 19.53 15.1604 19.56C15.0804 19.65 15.0004 19.71 14.9204 19.79C14.8904 19.82 14.8604 19.91 14.8704 19.94C14.9104 20.13 14.9704 20.32 15.0204 20.52C15.1304 20.4 15.2204 20.29 15.3204 20.18C15.3104 20.14 15.3104 20.11 15.3004 20.1C15.2704 20.05 15.2404 20 15.2104 19.94C15.1904 20 15.1904 20.08 15.1604 20.12C15.1404 20.16 15.0804 20.19 15.0704 20.17C15.0004 20.06 15.0104 19.93 15.1004 19.84C15.1304 19.81 15.1704 19.78 15.2004 19.74C15.2604 19.66 15.2904 19.7 15.3204 19.81C15.3804 20.03 15.4504 20.25 15.5204 20.46C15.5704 20.59 15.5504 20.66 15.4904 20.74C15.4004 20.85 15.3204 20.98 15.2204 21.1C15.3004 21.31 15.3804 21.49 15.4604 21.69C15.5404 21.56 15.6104 21.46 15.6804 21.34C15.7004 21.31 15.7004 21.22 15.6904 21.18C15.6704 21.13 15.6304 21.1 15.6004 21.06C15.5904 21.12 15.5804 21.18 15.5604 21.23C15.5504 21.27 15.5504 21.33 15.5304 21.35C15.5104 21.36 15.4804 21.34 15.4604 21.32C15.4304 21.27 15.4104 21.2 15.3904 21.12C15.4804 21 15.5504 20.89 15.6304 20.78C15.7604 21.06 15.8804 21.33 16.0104 21.61C15.9104 21.8 15.8204 21.99 15.7204 22.19C15.8204 22.36 15.9104 22.52 16.0104 22.69C16.0904 22.51 16.1604 22.36 16.2304 22.19C16.2004 22.13 16.1804 22.08 16.1504 22.05C16.1304 22.03 16.1004 22.02 16.0804 22.04C16.0604 22.06 16.0604 22.12 16.0504 22.16C16.0404 22.22 16.0404 22.28 16.0404 22.34C16.0004 22.31 15.9604 22.29 15.9304 22.24C15.9104 22.21 15.9104 22.1 15.9304 22.07C15.9804 21.95 16.0404 21.85 16.0904 21.74C16.2204 21.93 16.3204 22.12 16.4504 22.27C16.5404 22.38 16.5404 22.47 16.4804 22.64C16.2904 23.13 16.3004 23.14 16.5704 23.41C16.5804 23.42 16.5904 23.44 16.6004 23.44C16.6204 23.43 16.6604 23.43 16.6704 23.4C16.7204 23.25 16.7704 23.09 16.8204 22.93C16.7904 22.9 16.7804 22.87 16.7604 22.86C16.7304 22.84 16.6904 22.83 16.6604 22.82C16.6604 22.88 16.6704 22.95 16.6604 23.01C16.6604 23.07 16.6404 23.13 16.6304 23.2C16.5704 23.13 16.5304 23.08 16.4704 23.01C16.5304 22.84 16.5804 22.69 16.6404 22.53C16.8204 22.71 16.9804 22.88 17.1504 23.06C17.1004 23.25 17.0604 23.43 17.0204 23.61C17.0104 23.67 17.0104 23.8 17.0304 23.82C17.1204 23.91 17.2304 23.98 17.3404 24.06C17.3804 23.88 17.4204 23.72 17.4404 23.55C17.4504 23.51 17.4204 23.43 17.4004 23.41C17.3704 23.38 17.3304 23.4 17.2904 23.39C17.2904 23.45 17.3004 23.51 17.3004 23.58C17.3004 23.64 17.3004 23.7 17.3104 23.78C17.1204 23.66 17.1204 23.66 17.1904 23.36C17.2004 23.33 17.2104 23.3 17.2104 23.26C17.2304 23.15 17.2604 23.12 17.3204 23.16C17.4504 23.25 17.5804 23.33 17.7204 23.4C17.7804 23.43 17.8104 23.49 17.7904 23.62C17.7604 23.81 17.7304 24.01 17.7004 24.24C17.8304 24.29 17.9604 24.34 18.0904 24.39C18.1204 24.16 18.1404 23.97 18.1604 23.79C18.1504 23.77 18.1404 23.76 18.1304 23.76C18.0804 23.76 18.0404 23.77 17.9904 23.77C18.0004 23.84 18.0304 23.9 18.0304 23.97C18.0304 24.02 18.0104 24.11 17.9904 24.13C17.9004 24.18 17.8404 24.06 17.8604 23.89C17.8704 23.83 17.8804 23.76 17.8804 23.7C17.8904 23.58 17.9204 23.53 17.9904 23.55C18.1304 23.59 18.2804 23.63 18.4204 23.66C18.4804 23.67 18.5004 23.73 18.4904 23.85C18.4804 24.01 18.4704 24.18 18.4704 24.34C18.4704 24.39 18.5004 24.47 18.5204 24.48C18.8204 24.59 18.8904 24.46 18.8504 23.85C18.8004 23.86 18.7304 23.84 18.7004 23.9C18.6504 24 18.7104 24.07 18.7504 24.12C18.7604 24.13 18.7404 24.25 18.7204 24.27C18.6304 24.35 18.5604 24.26 18.5704 24.08C18.5704 24.01 18.5804 23.94 18.5804 23.87C18.5804 23.75 18.6104 23.7 18.6704 23.7C18.8104 23.7 18.9504 23.69 19.0904 23.67C19.1704 23.66 19.2004 23.72 19.2004 23.86C19.2004 24.01 19.2104 24.16 19.2204 24.31C19.2204 24.36 19.2504 24.44 19.2604 24.43C19.3804 24.41 19.5004 24.37 19.6304 24.34C19.6104 24.1 19.5904 23.91 19.5704 23.72C19.5304 23.73 19.5004 23.73 19.4704 23.75C19.4504 23.76 19.4104 23.8 19.4104 23.83C19.4104 23.88 19.4304 23.92 19.4504 23.96C19.4704 24.01 19.4904 24.06 19.5104 24.11C19.4704 24.14 19.4404 24.18 19.4004 24.19C19.3804 24.19 19.3304 24.15 19.3304 24.11C19.3204 23.96 19.3104 23.81 19.3004 23.65C19.4604 23.58 19.6104 23.54 19.7604 23.46C19.8704 23.4 19.9104 23.45 19.9304 23.65C20.0004 24.21 20.0404 24.24 20.3304 23.97C20.3504 23.95 20.3804 23.87 20.3704 23.83C20.3504 23.67 20.3104 23.51 20.2804 23.35C20.2404 23.37 20.2004 23.38 20.1704 23.41C20.1504 23.43 20.1304 23.49 20.1304 23.52C20.1304 23.56 20.1604 23.59 20.1704 23.62C20.1904 23.66 20.2204 23.69 20.2504 23.73C20.2204 23.77 20.2004 23.81 20.1704 23.84C20.1104 23.89 20.0704 23.88 20.0504 23.74C20.0404 23.65 20.0104 23.57 20.0104 23.48C20.0104 23.43 20.0304 23.34 20.0504 23.32C20.2104 23.19 20.3804 23.08 20.5604 22.95C20.6104 23.13 20.6504 23.32 20.7004 23.49C20.7104 23.54 20.7704 23.6 20.7904 23.58C20.8904 23.5 20.9904 23.39 21.1004 23.29C21.0404 23.09 20.9904 22.92 20.9204 22.68C20.8704 22.79 20.8404 22.87 20.8004 22.94C20.8304 22.97 20.8804 23 20.9004 23.05C20.9204 23.09 20.9304 23.19 20.9104 23.22C20.8404 23.36 20.7804 23.33 20.7404 23.17C20.7204 23.11 20.7104 23.05 20.7004 23C20.6504 22.88 20.6804 22.82 20.7504 22.75C20.8704 22.62 20.9904 22.49 21.1104 22.34C21.1804 22.26 21.2104 22.28 21.2504 22.39C21.3104 22.55 21.3704 22.71 21.4404 22.88C21.5504 22.72 21.6504 22.57 21.7704 22.41C21.7004 22.26 21.6404 22.12 21.5804 22C21.5704 21.98 21.5204 22 21.5004 22.03C21.4704 22.07 21.4604 22.14 21.4504 22.2C21.4704 22.22 21.5004 22.25 21.5204 22.27C21.5504 22.29 21.5804 22.31 21.6104 22.32C21.5904 22.38 21.5704 22.45 21.5304 22.49C21.5104 22.52 21.4504 22.52 21.4404 22.49C21.3904 22.39 21.3504 22.26 21.3004 22.14C21.4604 21.88 21.6104 21.64 21.7604 21.39C21.8604 21.56 21.9504 21.73 22.0604 21.91C22.1404 21.74 22.2304 21.59 22.3004 21.42C22.3104 21.39 22.3104 21.31 22.2904 21.28C22.2304 21.17 22.1604 21.07 22.0804 20.94C22.0604 20.99 22.0404 21.02 22.0304 21.06C22.0204 21.12 22.0104 21.18 22.0004 21.24C22.0304 21.25 22.0604 21.25 22.1004 21.26C22.1204 21.27 22.1504 21.27 22.1604 21.29C22.1704 21.33 22.1704 21.39 22.1604 21.42C22.1404 21.48 22.1004 21.53 22.0704 21.6C22.0104 21.5 21.9704 21.41 21.9104 21.34C21.8604 21.26 21.8604 21.2 21.9104 21.1C22.0004 20.91 22.1004 20.7 22.1804 20.49C22.2304 20.36 22.2704 20.37 22.3304 20.45C22.4104 20.56 22.5004 20.66 22.5904 20.77C22.6604 20.58 22.7204 20.41 22.7804 20.23C22.7904 20.2 22.7804 20.11 22.7704 20.09C22.6904 20 22.6104 19.92 22.5304 19.84C22.5104 19.88 22.5004 19.89 22.5004 19.91C22.4904 19.99 22.4804 20.06 22.4704 20.14C22.5104 20.13 22.5404 20.12 22.5804 20.12C22.6104 20.12 22.6304 20.14 22.6604 20.15C22.6704 20.17 22.6704 20.2 22.6804 20.22C22.6304 20.29 22.5704 20.43 22.5304 20.41C22.4504 20.38 22.3904 20.26 22.3204 20.18C22.4204 19.84 22.5204 19.53 22.6204 19.2C22.6804 19.25 22.7504 19.29 22.8104 19.34C23.0304 19.51 22.9904 19.55 23.0904 19.13C23.1704 18.79 23.1704 18.79 22.9904 18.68C22.8404 18.58 22.8404 18.58 22.8004 18.93C22.8804 18.9 22.9404 18.88 23.0304 18.85C22.9604 19.22 22.9604 19.22 22.8004 19.1C22.7804 19.09 22.7704 19.07 22.7504 19.06C22.6804 19.03 22.6804 18.95 22.7104 18.83C22.7604 18.6 22.8104 18.36 22.8504 18.12C22.8804 17.96 22.9204 17.93 22.9904 17.97C23.0904 18.02 23.1904 18.06 23.2904 18.1C23.3204 17.88 23.3504 17.69 23.3704 17.49C23.3704 17.45 23.3404 17.35 23.3204 17.34C23.2404 17.3 23.1504 17.29 23.0704 17.27C23.0104 17.31 23.0004 17.33 23.0004 17.35C23.0004 17.43 22.9904 17.54 23.0104 17.58C23.0504 17.67 23.0904 17.58 23.1104 17.5C23.1104 17.49 23.1804 17.52 23.1904 17.56C23.2204 17.72 23.1404 17.85 23.0604 17.81C23.0204 17.8 22.9904 17.77 22.9504 17.76C22.8804 17.75 22.8704 17.69 22.8804 17.57C22.9104 17.3 22.9304 17.03 22.9604 16.76C22.9704 16.64 23.0004 16.6 23.0604 16.61C23.1504 16.62 23.2304 16.64 23.3204 16.63C23.3504 16.63 23.4004 16.57 23.4004 16.53C23.4104 16.33 23.4204 16.12 23.4204 15.92C23.3004 15.92 23.2004 15.91 23.0704 15.91C23.0804 16.02 23.0804 16.12 23.0904 16.21C23.1304 16.18 23.1704 16.13 23.2104 16.11C23.2404 16.1 23.2804 16.11 23.2904 16.14C23.3304 16.27 23.2804 16.42 23.1904 16.42C23.1504 16.42 23.1104 16.41 23.0804 16.42C23.0104 16.43 22.9804 16.38 22.9804 16.24C22.9904 15.99 22.9904 15.74 22.9804 15.49C22.9804 15.33 23.0104 15.27 23.0904 15.26C23.1904 15.24 23.2904 15.21 23.4104 15.18C23.3904 14.92 23.3804 14.69 23.3604 14.44C23.2404 14.49 23.1404 14.52 23.0204 14.57C23.0404 14.68 23.0404 14.81 23.0704 14.85C23.1304 14.92 23.1504 14.8 23.1704 14.71C23.1704 14.69 23.2404 14.7 23.2604 14.73C23.3104 14.88 23.2804 15 23.1804 15.04C23.1304 15.06 23.0904 15.08 23.0404 15.06C23.0104 15.05 22.9704 14.99 22.9604 14.94C22.9304 14.68 22.9104 14.41 22.8804 14.15C22.8704 14.03 22.8904 13.97 22.9504 13.94C23.0604 13.89 23.1604 13.82 23.2704 13.75C23.2404 13.54 23.2104 13.36 23.1804 13.18C23.1704 13.13 23.1204 13.07 23.1004 13.08C23.0104 13.13 22.9304 13.2 22.8404 13.27C22.8504 13.35 22.8504 13.41 22.8704 13.47C22.8804 13.51 22.9104 13.55 22.9204 13.54C22.9404 13.53 22.9604 13.48 22.9804 13.44C23.0004 13.4 23.0104 13.35 23.0304 13.31C23.0504 13.35 23.0804 13.39 23.0904 13.44C23.1304 13.49 23.1304 13.55 23.1404 13.63Z" fill="white"/>
</svg>
