<svg width="73" height="21" viewBox="0 0 73 21" fill="none" xmlns="http://www.w3.org/2000/svg">
<path d="M36.6997 13.19L36.9597 13.26L36.5097 14.97H31.4097V14.7L31.4897 14.69C31.6197 14.67 31.7297 14.64 31.8397 14.59C31.9397 14.55 32.0197 14.49 32.0897 14.42C32.0997 14.41 32.1197 14.38 32.1297 14.32C32.1497 14.26 32.1597 14.19 32.1697 14.12C32.1797 14.04 32.1897 13.96 32.1997 13.88C32.2097 13.79 32.2097 13.71 32.2097 13.62C32.2097 13.54 32.2097 13.44 32.2097 13.31L32.2197 12.89C32.2197 12.74 32.2197 12.58 32.2197 12.42V10.39C32.2197 10.29 32.2197 10.2 32.2197 10.1C32.2197 9.99997 32.2097 9.89997 32.1997 9.81997C32.1897 9.72997 32.1797 9.65997 32.1597 9.58997C32.1397 9.51997 32.1197 9.48997 32.1097 9.47997C32.0397 9.40997 31.9697 9.35997 31.8997 9.33997C31.8097 9.31997 31.6997 9.28997 31.5597 9.26997L31.4697 9.25997V8.98997H36.0697L36.6797 10.46L36.4397 10.58L36.3897 10.52C35.9697 9.98997 35.5697 9.62997 35.1997 9.44997C35.1497 9.41997 35.0197 9.38997 34.7297 9.34997C34.4897 9.31997 34.1897 9.29997 33.8397 9.29997C33.7297 9.29997 33.6097 9.29997 33.4997 9.30997C33.4297 9.30997 33.3697 9.31997 33.3197 9.32997C33.3097 9.42997 33.3097 9.57997 33.2997 9.77997C33.2897 10.05 33.2897 10.36 33.2897 10.71V11.22C33.2897 11.36 33.2897 11.47 33.2897 11.56C33.2897 11.64 33.2897 11.71 33.2897 11.76H33.3497C33.4297 11.76 33.5197 11.76 33.6197 11.75C33.7197 11.74 33.8297 11.74 33.9297 11.73C34.0297 11.72 34.1097 11.71 34.1797 11.7C34.3297 11.67 34.4597 11.62 34.5497 11.56C34.6497 11.5 34.7197 11.43 34.7797 11.35C34.8397 11.27 34.8897 11.17 34.9297 11.06C34.9697 10.94 34.9997 10.81 35.0397 10.66L35.0597 10.58H35.3397V13.31H35.0597L35.0397 13.23C34.9997 13.07 34.9397 12.89 34.8497 12.72C34.7697 12.55 34.6797 12.42 34.5897 12.34C34.5197 12.28 34.4197 12.22 34.3097 12.18C34.1997 12.14 34.0697 12.11 33.9197 12.1C33.8397 12.09 33.7697 12.09 33.7197 12.09C33.6697 12.09 33.6197 12.09 33.5597 12.09H33.2797C33.2797 12.15 33.2697 12.23 33.2697 12.32V13.28C33.2697 13.36 33.2697 13.45 33.2697 13.52C33.2697 13.6 33.2697 13.67 33.2697 13.72C33.2797 13.88 33.2797 14.05 33.2997 14.2C33.3097 14.37 33.3497 14.45 33.3797 14.5C33.3897 14.52 33.4497 14.58 33.6597 14.62C33.8397 14.65 34.0297 14.67 34.2397 14.67C34.3297 14.67 34.4497 14.67 34.5897 14.66C34.7297 14.65 34.8697 14.64 35.0297 14.62C35.1897 14.6 35.3397 14.56 35.4797 14.5C35.6097 14.44 35.7497 14.36 35.8697 14.25C35.9997 14.14 36.1197 14.01 36.2497 13.85C36.3697 13.69 36.4997 13.5 36.6297 13.27L36.6997 13.19ZM42.0097 8.97997V9.24997L42.0997 9.25997C42.3397 9.29997 42.5297 9.35997 42.6497 9.43997C42.7697 9.51997 42.8497 9.62997 42.8997 9.75997C42.9397 9.85997 42.9597 10.01 42.9697 10.19C42.9797 10.39 42.9797 10.6 42.9797 10.8V13.26L39.3497 9.00997L39.3197 8.96997H37.5397V9.23997L37.6297 9.24997C37.7097 9.25997 37.7997 9.27997 37.8897 9.29997C37.9697 9.31997 38.0497 9.35997 38.1197 9.40997C38.1897 9.45997 38.2497 9.52997 38.2997 9.60997C38.3497 9.69997 38.3797 9.80997 38.3997 9.93997C38.4097 10.1 38.4097 10.23 38.4097 10.33V11.31C38.4097 11.66 38.4097 12 38.3997 12.32C38.3897 12.63 38.3897 12.9 38.3797 13.13C38.3697 13.43 38.3497 13.7 38.3297 13.91C38.3097 14.11 38.2697 14.26 38.1997 14.36C38.1397 14.46 38.0497 14.53 37.9397 14.57C37.8197 14.62 37.6997 14.65 37.5797 14.66L37.4897 14.67V14.94H39.6697V14.7L39.5797 14.69C39.3697 14.66 39.2097 14.62 39.0897 14.57C38.9797 14.52 38.9097 14.44 38.8597 14.34C38.8097 14.25 38.7797 14.09 38.7697 13.89C38.7597 13.67 38.7497 13.43 38.7497 13.16V10.03C39.0497 10.37 39.3397 10.7 39.6097 11.01C39.9397 11.39 40.2697 11.78 40.6097 12.18C40.9497 12.58 41.3097 13 41.6797 13.44C42.0497 13.87 42.4697 14.36 42.9297 14.89C42.9997 14.96 43.0697 15 43.1497 15C43.2197 15 43.2597 14.97 43.2797 14.95C43.3097 14.92 43.3297 14.87 43.3297 14.83V14.3C43.3297 14.11 43.3297 13.91 43.3297 13.72C43.3297 13.53 43.3297 13.33 43.3297 13.15V12.64C43.3297 12.28 43.3297 11.94 43.3397 11.63C43.3497 11.32 43.3597 11.04 43.3697 10.82C43.3797 10.57 43.3897 10.34 43.3997 10.13C43.4097 9.87997 43.4397 9.76997 43.4597 9.71997C43.5197 9.57997 43.5897 9.48997 43.6997 9.41997C43.8097 9.34997 43.9597 9.30997 44.1397 9.27997L44.2297 9.26997V8.97997H42.0097ZM50.4597 14.67H50.5597V14.96H47.9997V14.68H48.0997C48.0997 14.68 48.1197 14.68 48.1997 14.67C48.2497 14.66 48.3097 14.64 48.3697 14.62C48.4197 14.6 48.4697 14.57 48.5197 14.53C48.5497 14.5 48.5597 14.47 48.5597 14.42C48.5597 14.39 48.5497 14.33 48.5197 14.21C48.4897 14.1 48.4497 13.97 48.3997 13.81C48.3497 13.65 48.2897 13.48 48.2197 13.29C48.1597 13.12 48.0897 12.94 48.0197 12.75H46.0197C45.9497 12.93 45.8797 13.1 45.8097 13.27C45.7297 13.45 45.6597 13.64 45.5897 13.83C45.4597 14.17 45.4297 14.33 45.4297 14.4C45.4297 14.44 45.4397 14.48 45.4697 14.5C45.4997 14.54 45.5497 14.57 45.5997 14.59C45.6597 14.62 45.7197 14.64 45.7897 14.65C45.8697 14.66 45.9397 14.68 46.0097 14.69L46.0997 14.7V14.97H44.1897V14.69L44.2797 14.68C44.3997 14.67 44.5097 14.63 44.5997 14.58C44.7197 14.51 44.7397 14.49 44.7497 14.48L44.7597 14.47C44.7797 14.45 44.8197 14.4 44.9297 14.22C45.0097 14.08 45.1197 13.88 45.2397 13.61C45.3497 13.36 45.4797 13.07 45.6197 12.75L46.0497 11.76C46.1897 11.43 46.3397 11.08 46.4897 10.73C46.6297 10.4 46.7597 10.09 46.8797 9.79997L46.7797 9.56997L46.8697 9.52997C46.9597 9.48997 47.0397 9.43997 47.1097 9.38997C47.1797 9.32997 47.2497 9.27997 47.2997 9.21997C47.3597 9.15997 47.3997 9.09997 47.4397 9.04997C47.4797 8.98997 47.5097 8.94997 47.5297 8.90997L47.5597 8.85997H47.7497L47.7697 8.92997C47.9397 9.36997 48.0897 9.79997 48.2397 10.2C48.3897 10.6 48.5297 10.98 48.6697 11.35C48.8097 11.72 48.9397 12.08 49.0697 12.42C49.1997 12.77 49.3297 13.11 49.4597 13.44C49.5197 13.6 49.5697 13.74 49.6197 13.85L49.7897 14.22C49.7897 14.23 49.8097 14.25 49.8497 14.32C49.8797 14.37 49.9297 14.42 49.9797 14.47C50.0297 14.52 50.0997 14.56 50.1797 14.6C50.2497 14.65 50.3497 14.67 50.4597 14.67ZM47.8797 12.38C47.8097 12.18 47.7297 11.99 47.6497 11.79C47.5597 11.55 47.4697 11.32 47.3797 11.1C47.2897 10.88 47.2097 10.67 47.1397 10.49C47.1097 10.41 47.0797 10.33 47.0497 10.26C47.0397 10.29 47.0197 10.33 47.0097 10.37C46.9497 10.52 46.8697 10.7 46.7797 10.92C46.6897 11.13 46.5897 11.38 46.4797 11.65L46.1797 12.39H47.8797V12.38ZM59.2797 16.57C59.6297 16.72 59.7497 16.7 59.6297 16.72C59.4797 16.75 58.9097 16.73 58.7297 16.71C58.1497 16.65 57.3097 16.31 56.4497 15.71C55.9397 15.36 55.5397 14.97 55.5397 14.97C55.5097 14.94 55.2397 14.66 55.1997 14.59C55.1597 14.53 55.0997 14.44 55.0097 14.32C54.9097 14.17 54.8197 14.03 54.7397 13.91C54.6597 13.79 54.5797 13.67 54.4997 13.55C54.4197 13.43 54.3297 13.32 54.2397 13.2C54.1497 13.08 54.0397 12.95 53.9097 12.8C53.8097 12.68 53.6897 12.57 53.5697 12.47C53.4597 12.37 53.3397 12.31 53.2197 12.29C53.0997 12.26 53.0397 12.26 53.0097 12.26C52.9897 12.26 52.9597 12.26 52.9297 12.26V13.06C52.9297 13.32 52.9297 13.53 52.9397 13.71C52.9497 13.88 52.9497 14.03 52.9597 14.15C52.9597 14.25 52.9897 14.34 53.0297 14.4C53.0597 14.44 53.1097 14.5 53.2497 14.58C53.3597 14.64 53.5197 14.68 53.7197 14.69H53.8197V14.97H51.0497V14.7L51.1297 14.69C51.2597 14.67 51.3797 14.64 51.4997 14.6C51.5997 14.56 51.6897 14.51 51.7397 14.44C51.7497 14.43 51.7697 14.4 51.7797 14.33C51.7897 14.27 51.8097 14.2 51.8097 14.13C51.8197 14.05 51.8197 13.97 51.8297 13.88C51.8397 13.79 51.8397 13.7 51.8397 13.62C51.8397 13.54 51.8397 13.44 51.8397 13.31L51.8497 12.89C51.8497 12.74 51.8497 12.58 51.8497 12.42V10.39C51.8497 10.29 51.8497 10.2 51.8497 10.1C51.8497 9.99997 51.8397 9.90997 51.8297 9.82997C51.8197 9.74997 51.8097 9.66997 51.7897 9.59997C51.7697 9.52997 51.7497 9.49997 51.7397 9.48997C51.6697 9.41997 51.5897 9.36997 51.5097 9.33997C51.4197 9.30997 51.2997 9.28997 51.1597 9.26997L51.0697 9.25997V8.98997H51.4997C51.6797 8.98997 51.8897 8.98997 52.1197 8.98997C52.3497 8.98997 52.5797 8.98997 52.8097 8.98997H53.3697C53.7297 8.98997 54.0497 8.99997 54.3297 9.01997C54.6197 9.03997 54.8897 9.11997 55.1297 9.24997C55.3797 9.37997 55.5797 9.55997 55.7397 9.77997C55.8997 10.01 55.9697 10.3 55.9697 10.64C55.9697 10.85 55.9297 11.05 55.8497 11.22C55.7697 11.39 55.6697 11.54 55.5397 11.67C55.4097 11.8 55.2597 11.91 55.0897 12C54.9797 12.06 54.8597 12.12 54.7297 12.16C54.7797 12.2 54.8197 12.24 54.8697 12.29C54.9597 12.38 55.0497 12.49 55.1297 12.61C55.2697 12.82 55.4197 13.03 55.5897 13.27C55.7497 13.51 55.8997 13.71 56.0297 13.9C56.1097 14.01 56.4497 14.56 57.1397 15.17C58.2597 16.1 58.4897 16.24 59.2797 16.57ZM54.8097 10.97C54.8397 10.85 54.8597 10.71 54.8597 10.58C54.8597 10.33 54.7997 10.11 54.6697 9.91997C54.5497 9.72997 54.3597 9.56997 54.1197 9.45997C53.9997 9.40997 53.8697 9.35997 53.7397 9.33997C53.5997 9.30997 53.4597 9.29997 53.3097 9.29997C53.1997 9.29997 53.1097 9.29997 53.0397 9.30997C53.0097 9.30997 52.9797 9.30997 52.9597 9.31997C52.9597 9.32997 52.9597 9.32997 52.9597 9.32997C52.9597 9.34997 52.9497 9.37997 52.9497 9.40997C52.9497 9.44997 52.9397 9.49997 52.9397 9.55997L52.9297 9.84997C52.9197 10.04 52.9197 10.25 52.9197 10.48C52.9197 10.72 52.9197 10.94 52.9197 11.16V11.94C53.0997 11.94 53.2697 11.93 53.4197 11.91C53.5997 11.89 53.7797 11.85 53.9497 11.8C54.1097 11.75 54.2497 11.68 54.3597 11.6C54.4697 11.52 54.5697 11.42 54.6397 11.32C54.7197 11.21 54.7697 11.09 54.8097 10.97ZM30.4997 10.94C30.5897 11.22 30.6397 11.54 30.6397 11.9C30.6397 12.31 30.5897 12.68 30.4897 12.99C30.3897 13.3 30.2497 13.58 30.0797 13.81C29.9097 14.04 29.6997 14.23 29.4797 14.38C29.2497 14.53 29.0097 14.65 28.7597 14.74C28.5097 14.83 28.2497 14.89 27.9797 14.93C27.7097 14.97 27.4497 14.98 27.1997 14.98H24.1697V14.7L24.2597 14.69C24.3797 14.68 24.5097 14.64 24.6197 14.59C24.7297 14.54 24.8097 14.49 24.8697 14.42C24.8797 14.41 24.8897 14.39 24.9097 14.33C24.9197 14.27 24.9297 14.2 24.9397 14.12C24.9497 14.04 24.9597 13.96 24.9597 13.87C24.9697 13.78 24.9697 13.69 24.9697 13.61C24.9697 13.53 24.9697 13.43 24.9697 13.3L24.9797 12.88C24.9797 12.73 24.9797 12.57 24.9797 12.41V10.09C24.9797 9.99997 24.9797 9.90997 24.9697 9.82997C24.9597 9.74997 24.9497 9.67997 24.9397 9.61997C24.9297 9.56997 24.9097 9.52997 24.8897 9.50997C24.8197 9.42997 24.7397 9.36997 24.6497 9.33997C24.5397 9.29997 24.4197 9.27997 24.2897 9.25997L24.1997 9.24997V8.97997H24.2997C24.5197 8.97997 24.8497 8.97997 25.2697 8.97997C25.6897 8.97997 26.2097 8.97997 26.8097 8.97997H27.3197C27.4997 8.97997 27.6797 8.98997 27.8597 8.99997C28.0397 9.01997 28.2197 9.03997 28.3997 9.07997C28.5797 9.11997 28.7597 9.17997 28.9397 9.24997C29.1697 9.34997 29.3897 9.47997 29.5997 9.62997C29.8097 9.78997 29.9897 9.96997 30.1397 10.19C30.2897 10.41 30.4097 10.66 30.4997 10.94ZM29.4497 11.91C29.4497 11.61 29.3997 11.32 29.3097 11.03C29.2197 10.75 29.0897 10.49 28.9197 10.26C28.7597 10.03 28.5597 9.83997 28.3297 9.67997C28.1097 9.51997 27.8597 9.41997 27.5997 9.37997C27.4897 9.35997 27.3797 9.33997 27.2497 9.32997C27.1197 9.31997 26.9697 9.30997 26.7897 9.30997C26.7297 9.30997 26.6597 9.30997 26.5797 9.30997C26.5097 9.30997 26.4297 9.31997 26.3697 9.32997C26.2997 9.33997 26.2297 9.33997 26.1697 9.34997C26.1497 9.34997 26.1297 9.34997 26.1097 9.35997C26.0897 9.60997 26.0697 9.94997 26.0697 10.36C26.0597 10.82 26.0597 11.37 26.0597 12.01V12.95C26.0597 13.23 26.0597 13.46 26.0697 13.63C26.0697 13.7 26.0697 13.78 26.0797 13.87C26.0897 13.96 26.0997 14.04 26.1097 14.12C26.1197 14.2 26.1397 14.26 26.1597 14.32C26.1797 14.39 26.2097 14.42 26.2197 14.43C26.3097 14.52 26.4297 14.58 26.5697 14.61C26.8797 14.66 27.1397 14.66 27.4197 14.63C27.5497 14.62 27.6797 14.59 27.7997 14.56C28.3497 14.4 28.7697 14.09 29.0397 13.64C29.3097 13.17 29.4497 12.59 29.4497 11.91ZM59.8797 14.61C59.7597 14.57 59.6797 14.51 59.6197 14.44C59.5997 14.42 59.5697 14.35 59.5697 14.19C59.5597 14.05 59.5597 13.9 59.5597 13.74V11.05C59.5597 10.92 59.5597 10.79 59.5597 10.65C59.5597 10.52 59.5597 10.38 59.5597 10.25C59.5697 10.13 59.5697 9.98997 59.5697 9.84997C59.5697 9.72997 59.5897 9.62997 59.6297 9.54997C59.6897 9.43997 59.7697 9.37997 59.8697 9.33997C59.9897 9.29997 60.1097 9.26997 60.2097 9.25997L60.2997 9.24997V8.97997H57.6997V9.24997L57.7897 9.25997C57.9197 9.27997 58.0397 9.29997 58.1397 9.33997C58.2297 9.36997 58.3097 9.42997 58.3797 9.50997C58.3997 9.53997 58.4197 9.56997 58.4297 9.61997C58.4397 9.67997 58.4597 9.74997 58.4597 9.82997C58.4697 9.90997 58.4697 9.99997 58.4697 10.09V12.41C58.4697 12.57 58.4697 12.73 58.4697 12.88L58.4597 13.3C58.4597 13.43 58.4597 13.53 58.4597 13.61C58.4597 13.69 58.4597 13.78 58.4597 13.87C58.4597 13.96 58.4497 14.04 58.4397 14.12C58.4297 14.2 58.4197 14.26 58.4097 14.32C58.3997 14.37 58.3797 14.4 58.3697 14.41C58.2997 14.49 58.2097 14.55 58.1097 14.59C57.9997 14.64 57.8797 14.67 57.7597 14.69L57.6797 14.7V14.97H60.3197V14.7L60.2297 14.69C60.1297 14.68 60.0197 14.65 59.8797 14.61ZM65.4597 9.24997L65.5497 9.25997C65.7897 9.29997 65.9697 9.35997 66.0897 9.43997C66.2097 9.51997 66.2797 9.62997 66.3297 9.75997C66.3497 9.80997 66.3597 9.86997 66.3697 9.94997C66.3797 10.04 66.3897 10.13 66.3897 10.23C66.3997 10.33 66.3997 10.44 66.3997 10.55C66.3997 10.66 66.3997 10.77 66.3997 10.88V12.25C66.3997 12.43 66.3897 12.61 66.3797 12.8C66.3697 12.98 66.3397 13.17 66.2997 13.34C66.2597 13.51 66.1997 13.68 66.1197 13.83C66.0397 13.98 65.9397 14.11 65.8097 14.23C65.6797 14.34 65.5097 14.43 65.3097 14.5C65.1097 14.57 64.8597 14.6 64.5697 14.6C64.3197 14.6 64.0897 14.56 63.8897 14.48C63.6997 14.4 63.5297 14.28 63.3997 14.13C63.2597 13.98 63.1597 13.79 63.0797 13.57C62.9997 13.35 62.9597 13.1 62.9597 12.83C62.9597 12.7 62.9597 12.58 62.9597 12.46C62.9597 12.35 62.9597 12.23 62.9597 12.1V10.5C62.9597 10.4 62.9597 10.3 62.9597 10.19C62.9597 10.08 62.9697 9.95997 62.9697 9.81997C62.9697 9.70997 62.9997 9.62997 63.0397 9.55997C63.0797 9.48997 63.1297 9.43997 63.1897 9.39997C63.2497 9.35997 63.3197 9.32997 63.3897 9.30997C63.4697 9.28997 63.5497 9.26997 63.6197 9.25997L63.7097 9.24997V8.97997H61.1097V9.24997L61.1997 9.25997C61.3297 9.27997 61.4497 9.29997 61.5497 9.33997C61.6397 9.36997 61.7197 9.42997 61.7897 9.50997C61.8097 9.53997 61.8297 9.56997 61.8397 9.61997C61.8497 9.67997 61.8697 9.74997 61.8697 9.82997C61.8797 9.90997 61.8797 9.99997 61.8797 10.09V11.45C61.8797 11.74 61.8797 12.01 61.8797 12.25C61.8797 12.49 61.8797 12.69 61.8797 12.84C61.8797 12.91 61.8797 13 61.8897 13.14C61.8997 13.28 61.9297 13.43 61.9697 13.6C62.0197 13.77 62.0897 13.93 62.1897 14.1C62.2897 14.27 62.4297 14.43 62.6097 14.58C62.7897 14.72 63.0197 14.84 63.2997 14.92C63.5697 15 63.9097 15.04 64.3097 15.04C64.7097 15.04 65.0497 15 65.3297 14.91C65.6097 14.82 65.8397 14.7 66.0197 14.55C66.1997 14.4 66.3397 14.23 66.4397 14.05C66.5397 13.87 66.6097 13.69 66.6497 13.5C66.6897 13.32 66.7197 13.15 66.7297 12.99L66.7497 12.6C66.7597 12.24 66.7697 11.92 66.7797 11.64C66.7897 11.36 66.7897 11.1 66.7997 10.87C66.7997 10.75 66.7997 10.62 66.8097 10.5C66.8197 10.38 66.8197 10.26 66.8297 10.15C66.8397 10.04 66.8497 9.93997 66.8697 9.85997C66.8897 9.75997 66.8997 9.71997 66.9097 9.69997C66.9697 9.55997 67.0397 9.45997 67.1397 9.39997C67.2397 9.32997 67.3897 9.28997 67.5697 9.25997L67.6597 9.24997V8.97997H65.4697V9.24997H65.4597ZM72.2997 12.27C72.0897 12 71.7897 11.79 71.4097 11.66C71.3097 11.62 71.2097 11.59 71.1197 11.55C71.0297 11.52 70.9297 11.49 70.8397 11.46C70.7497 11.43 70.6597 11.4 70.5597 11.37C70.4697 11.34 70.3697 11.3 70.2597 11.26C69.9997 11.16 69.7897 11.03 69.6297 10.87C69.4797 10.72 69.3997 10.52 69.3997 10.26C69.3997 10.09 69.4297 9.93997 69.4797 9.80997C69.5397 9.67997 69.6097 9.56997 69.7097 9.48997C69.8097 9.39997 69.9297 9.33997 70.0597 9.28997C70.1997 9.24997 70.3397 9.21997 70.4997 9.21997C70.6897 9.21997 70.8697 9.25997 71.0297 9.33997C71.1897 9.41997 71.3397 9.52997 71.4597 9.64997C71.5897 9.77997 71.6997 9.92997 71.7997 10.1C71.8997 10.27 71.9797 10.44 72.0397 10.61L72.0597 10.68H72.3197V8.98997H72.0797L72.0497 9.02997C72.0097 9.08997 71.9597 9.14997 71.9097 9.21997C71.8997 9.22997 71.8897 9.24997 71.8797 9.25997C71.8697 9.24997 71.8597 9.24997 71.8497 9.23997C71.7897 9.19997 71.6997 9.14997 71.5797 9.09997C71.4597 9.04997 71.3197 8.99997 71.1397 8.95997C70.9597 8.91997 70.7497 8.89997 70.4997 8.89997C70.2297 8.89997 69.9797 8.93997 69.7397 8.99997C69.4997 9.06997 69.2797 9.17997 69.0897 9.32997C68.8997 9.47997 68.7497 9.66997 68.6397 9.88997C68.5297 10.11 68.4697 10.38 68.4697 10.68C68.4697 10.86 68.4997 11.04 68.5697 11.2C68.6297 11.36 68.7197 11.51 68.8197 11.64C68.9197 11.77 69.0397 11.89 69.1797 11.99C69.3197 12.09 69.4597 12.17 69.5997 12.22C69.7297 12.27 69.8297 12.31 69.9197 12.34C70.0097 12.37 70.0897 12.4 70.1797 12.43C70.2597 12.46 70.3497 12.49 70.4497 12.52C70.5497 12.55 70.6597 12.59 70.7797 12.64C70.8997 12.69 71.0197 12.74 71.1297 12.8C71.2297 12.85 71.3197 12.92 71.3997 12.99C71.4697 13.06 71.5297 13.15 71.5797 13.25C71.6197 13.35 71.6397 13.47 71.6397 13.6C71.6397 13.94 71.5297 14.21 71.2997 14.4C71.0697 14.6 70.7697 14.7 70.3997 14.7C70.2697 14.7 70.1397 14.68 69.9997 14.63C69.8597 14.58 69.7397 14.54 69.6497 14.49C69.5697 14.45 69.4797 14.38 69.3897 14.3C69.2997 14.21 69.2097 14.11 69.1197 14C69.0297 13.88 68.9497 13.76 68.8797 13.63C68.8097 13.5 68.7497 13.36 68.6997 13.22L68.6797 13.15H68.4297L68.4597 14.95H68.6797L68.7097 14.91C68.7497 14.85 68.7997 14.79 68.8497 14.73C68.8697 14.71 68.8797 14.69 68.8897 14.68C68.8997 14.69 68.9197 14.7 68.9397 14.71C69.0097 14.75 69.0997 14.8 69.2297 14.84C69.3597 14.89 69.5197 14.93 69.7097 14.96C69.8997 14.99 70.1297 15.01 70.3997 15.01C70.7097 15.01 71.0097 14.97 71.2697 14.9C71.5397 14.83 71.7697 14.71 71.9697 14.56C72.1697 14.41 72.3197 14.22 72.4297 14C72.5397 13.78 72.5997 13.54 72.5997 13.26C72.6197 12.88 72.5097 12.54 72.2997 12.27Z" fill="white"/>
<path d="M20.7097 11.06L20.1297 11.03L20.0397 12.01L21.1397 12.1L21.2597 10.38H19.9497C19.9397 9.89997 19.8897 9.41997 19.7997 8.92997L20.7997 8.73997L20.9497 9.67997L20.4797 9.75997L20.3997 9.45997L20.6897 9.42997L20.6197 9.06997L20.0497 9.15997L20.1697 10.14L21.2597 9.99997L20.9997 8.29997L19.7197 8.56997C19.6097 8.09997 19.4597 7.62997 19.2697 7.18997L20.2097 6.78997L20.5497 7.67997L20.0997 7.84997L19.9597 7.57997L20.2397 7.48997L20.0997 7.14997L19.5597 7.35997L19.8797 8.28997L20.9197 7.92997L20.3297 6.30997L19.1297 6.83997C18.9197 6.39997 18.6797 5.97997 18.4097 5.57997L19.2297 4.99997L19.7497 5.79997L19.3497 6.05997L19.1497 5.81997L19.3997 5.67997L19.1897 5.37997L18.7097 5.69997L19.2097 6.54997L20.1497 5.97997L19.2297 4.51997L18.1697 5.28997C17.8797 4.89997 17.5597 4.53997 17.1997 4.20997L17.8897 3.46997L18.5597 4.13997L18.2197 4.47997L17.9997 4.27997L18.2197 4.08997L17.9597 3.83997L17.5497 4.24997L18.2197 4.96997L19.0197 4.21997L17.8197 2.97997L16.9397 3.94997C16.8597 3.87997 16.7697 3.79997 16.6797 3.72997C16.3897 3.49997 16.0797 3.27997 15.7597 3.08997L16.2797 2.21997L17.0797 2.73997L16.8197 3.13997L16.5397 2.99997L16.7097 2.76997L16.3997 2.57997L16.0897 3.06997L16.8897 3.63997L17.5197 2.73997L16.0897 1.77997L15.4297 2.91997C14.9997 2.68997 14.5597 2.48997 14.0997 2.32997L14.4297 1.36997L15.3197 1.70997L15.1497 2.15997L14.8497 2.07997L14.9697 1.81997L14.6297 1.69997L14.4197 2.23997L15.3197 2.62997L15.7497 1.61997L14.1497 0.979973L13.7497 2.22997C13.2897 2.08997 12.8097 1.98997 12.3297 1.91997L12.4497 0.909973L13.3897 1.05997L13.3197 1.52997L13.0097 1.51997L13.0697 1.23997L12.7097 1.18997L12.6197 1.75997L13.5897 1.94997L13.7997 0.869973L12.0997 0.569973L11.9597 1.86997C11.7097 1.84997 11.4697 1.83997 11.2197 1.83997C10.9797 1.83997 10.7397 1.84997 10.5097 1.86997L10.4197 0.859973L11.3697 0.809974L11.3997 1.28997L11.0897 1.33997V1.04997L10.7297 1.07997L10.7597 1.65997L11.7397 1.64997L11.7197 0.549973L9.99973 0.609973L10.1397 1.90997C9.88973 1.93997 9.64973 1.97997 9.39973 2.02997C9.16973 2.07997 8.93973 2.13997 8.71973 2.19997L8.41973 1.22997L9.33973 0.989973L9.46973 1.44997L9.17973 1.56997L9.11973 1.28997L8.76973 1.38997L8.91973 1.94997L9.87973 1.72997L9.62973 0.659973L7.95973 1.07997L8.35973 2.31997C7.89973 2.47997 7.44973 2.66997 7.02973 2.90997L6.53973 1.99997L7.38973 1.56997L7.60973 1.99997L7.34973 2.16997L7.22973 1.89997L6.90973 2.06997L7.16973 2.57997L8.05973 2.16997L7.58973 1.16997L6.03973 1.92997L6.68973 3.05997C6.26973 3.30997 5.87973 3.58997 5.50973 3.90997L4.83973 3.14997L5.57973 2.54997L5.87973 2.91997L5.65973 3.13997L5.48973 2.90997L5.20973 3.14997L5.56973 3.59997L6.35973 3.00997L5.69973 2.12997L4.33973 3.18997L5.20973 4.15997C4.85973 4.48997 4.52973 4.84997 4.23973 5.23997L3.42973 4.62997L4.02973 3.88997L4.39973 4.18997L4.23973 4.44997L4.01973 4.25997L3.79973 4.54997L4.24973 4.90997L4.89973 4.16997L4.06973 3.44997L2.99973 4.77997L4.05973 5.54997C3.99973 5.62997 3.94973 5.70997 3.89973 5.78997C3.68973 6.11997 3.49973 6.45997 3.32973 6.79997L2.40973 6.36997L2.83973 5.51997L3.26973 5.73997L3.15973 6.02997L2.90973 5.87997L2.74973 6.20997L3.26973 6.46997L3.74973 5.60997L2.78973 5.07997L1.97973 6.59997L3.16973 7.12997C2.97973 7.57997 2.82973 8.03997 2.71973 8.50997L1.72973 8.27997L1.97973 7.35997L2.43973 7.47997L2.39973 7.78997L2.11973 7.69997L2.03973 8.04997L2.59973 8.19997L2.88973 7.25997L1.83973 6.93997L1.36973 8.59997L2.64973 8.86997C2.55973 9.34997 2.50973 9.82997 2.49973 10.32L1.48973 10.3L1.53973 9.34997L2.01973 9.36997L2.03973 9.67997L1.74973 9.64997L1.73973 10.01L2.31973 10.04L2.40973 9.05997L1.30973 8.96997L1.18973 10.69H2.49973C2.50973 11.17 2.55973 11.65 2.64973 12.14L1.64973 12.33L1.49973 11.39L1.96973 11.31L2.04973 11.61L1.75973 11.64L1.82973 12L2.39973 11.91L2.27973 10.93L1.18973 11.07L1.42973 12.78L2.70973 12.51C2.81973 12.98 2.96973 13.45 3.15973 13.89L2.21973 14.29L1.87973 13.4L2.32973 13.23L2.46973 13.5L2.19973 13.6L2.33973 13.94L2.87973 13.73L2.55973 12.8L1.51973 13.16L2.10973 14.78L3.30973 14.25C3.51973 14.69 3.75973 15.11 4.02973 15.51L3.19973 16.09L2.67973 15.29L3.07973 15.03L3.27973 15.27L3.02973 15.41L3.23973 15.71L3.71973 15.39L3.21973 14.54L2.27973 15.11L3.19973 16.57L4.25973 15.8C4.54973 16.19 4.86973 16.55 5.22973 16.88L4.53973 17.62L3.86973 16.95L4.20973 16.61L4.44973 16.8L4.22973 16.99L4.48973 17.24L4.89973 16.83L4.22973 16.11L3.42973 16.86L4.62973 18.1L5.50973 17.13C5.58973 17.2 5.67973 17.28 5.76973 17.35C6.05973 17.58 6.36973 17.8 6.68973 17.99L6.16973 18.86L5.36973 18.34L5.62973 17.94L5.90973 18.08L5.73973 18.31L6.04973 18.5L6.35973 18.01L5.55973 17.44L4.92973 18.34L6.35973 19.3L6.99973 18.18C7.42973 18.41 7.86973 18.61 8.32973 18.77L7.99973 19.73L7.10973 19.39L7.27973 18.94L7.57973 19.02L7.45973 19.28L7.79973 19.4L8.00973 18.86L7.10973 18.47L6.67973 19.48L8.27973 20.12L8.67973 18.87C9.13973 19.01 9.61973 19.11 10.0997 19.18L9.97973 20.19L9.03973 20.04L9.10973 19.57L9.41973 19.58L9.35973 19.86L9.71973 19.91L9.80973 19.34L8.83973 19.15L8.62973 20.23L10.3297 20.53L10.4697 19.23C10.7197 19.25 10.9597 19.26 11.2097 19.26C11.4497 19.26 11.6897 19.25 11.9197 19.23L12.0097 20.24L11.0597 20.29L11.0297 19.81L11.3397 19.76V20.05L11.6997 20.02L11.6697 19.44L10.6897 19.45L10.7097 20.55L12.4297 20.49L12.2897 19.19C12.5397 19.16 12.7797 19.12 13.0297 19.07C13.2597 19.02 13.4897 18.96 13.7097 18.9L14.0097 19.87L13.0897 20.11L12.9597 19.65L13.2497 19.53L13.3097 19.81L13.6597 19.71L13.5097 19.15L12.5497 19.37L12.7997 20.44L14.4697 20.02L14.0697 18.78C14.5297 18.62 14.9797 18.43 15.3997 18.19L15.8897 19.08L15.0397 19.51L14.8197 19.08L15.0797 18.91L15.1997 19.18L15.5197 19.01L15.2597 18.5L14.3697 18.91L14.8397 19.91L16.3897 19.15L15.7397 18.02C16.1597 17.77 16.5497 17.49 16.9197 17.17L17.5797 17.93L16.8397 18.53L16.5397 18.16L16.7597 17.94L16.9297 18.18L17.2097 17.94L16.8497 17.49L16.0597 18.08L16.7197 18.96L18.0797 17.9L17.2097 16.93C17.5597 16.6 17.8897 16.24 18.1797 15.85L18.9897 16.46L18.3897 17.2L18.0197 16.9L18.1897 16.64L18.4097 16.83L18.6297 16.54L18.1797 16.18L17.5297 16.92L18.3597 17.64L19.4697 16.32L18.4097 15.55C18.4697 15.47 18.5197 15.39 18.5697 15.31C18.7797 14.98 18.9697 14.64 19.1397 14.3L20.0597 14.73L19.6297 15.58L19.1997 15.36L19.3097 15.07L19.5597 15.22L19.7197 14.89L19.1997 14.63L18.7197 15.49L19.6397 16L20.4497 14.48L19.2597 13.95C19.4497 13.5 19.5997 13.04 19.7097 12.57L20.6997 12.8L20.4497 13.72L19.9897 13.6L20.0297 13.29L20.3097 13.38L20.3897 13.03L19.8297 12.88L19.5397 13.82L20.5897 14.14L21.0597 12.48L19.7797 12.21C19.8697 11.73 19.9197 11.25 19.9297 10.76L20.9397 10.78L20.8897 11.73L20.4097 11.71L20.3897 11.4L20.6797 11.43L20.7097 11.06ZM18.1897 15.08C16.9797 16.94 15.1197 18.22 12.9497 18.68C12.3797 18.8 11.7897 18.86 11.2097 18.86C7.30973 18.86 3.89973 16.09 3.08973 12.27C2.62973 10.1 3.03973 7.87997 4.24973 6.00997C5.45973 4.14997 7.31973 2.86997 9.48973 2.40997C10.0597 2.28997 10.6497 2.22997 11.2297 2.22997C15.1297 2.22997 18.5397 4.99997 19.3497 8.81997C19.8097 10.99 19.3997 13.21 18.1897 15.08Z" fill="white"/>
<path d="M17.3697 8.89997C16.9697 7.38997 16.0397 6.32997 14.6297 5.73997C13.8197 5.39997 12.9097 5.22997 11.8497 5.22997C10.5697 5.22997 9.22973 5.22997 8.14973 5.22997H5.86973C5.85973 5.22997 5.84973 5.22997 5.83973 5.23997C5.82973 5.24997 5.82973 5.25997 5.82973 5.26997V5.30997C5.82973 5.32997 5.84973 5.34997 5.86973 5.34997C5.88973 5.34997 5.89973 5.33997 5.90973 5.31997C5.90973 5.32997 5.91973 5.33997 5.93973 5.34997L6.18973 5.42997C6.18973 5.42997 6.19973 5.43997 6.20973 5.43997C6.20973 5.43997 6.20973 5.43997 6.21973 5.43997C6.22973 5.43997 6.23973 5.44997 6.25973 5.44997H6.26973C6.27973 5.44997 6.29973 5.45997 6.30973 5.45997C6.42973 5.49997 6.61973 5.55997 6.70973 5.58997C7.14973 5.72997 7.47973 5.90997 7.64973 6.29997C7.72973 6.48997 7.76973 6.70997 7.76973 6.95997V7.73997C7.76973 9.97997 7.76973 12.23 7.76973 14.47C7.76973 14.63 7.75973 14.76 7.73973 14.88C7.66973 15.32 7.43973 15.63 7.05973 15.8C6.89973 15.87 6.72973 15.92 6.47973 15.95L6.43973 15.96C6.41973 15.96 6.39973 15.98 6.40973 16L6.42973 16.25C6.42973 16.27 6.44973 16.29 6.46973 16.29H6.64973C6.73973 16.29 6.83973 16.29 6.92973 16.29H7.91973C8.45973 16.29 8.99973 16.29 9.53973 16.29H9.77973C10.0497 16.29 10.3197 16.3 10.5597 16.3C10.8097 16.3 11.0697 16.31 11.3397 16.31C11.8097 16.31 12.1997 16.29 12.5497 16.26C12.9997 16.21 13.5997 16.13 14.1797 15.94C15.7197 15.44 16.7497 14.44 17.2597 12.98C17.4597 12.41 17.5597 11.78 17.5897 11.06C17.6197 10.28 17.5497 9.56997 17.3697 8.89997ZM13.4597 13.62C13.4697 13.64 13.4797 13.67 13.4897 13.69L13.6197 13.98C13.6297 14 13.6397 14.01 13.6597 14C13.6797 14 13.6897 13.98 13.6997 13.97L13.7697 13.58C13.8097 13.4 13.7897 13.1 13.7597 12.95C13.6597 12.47 13.4297 12.02 13.0197 11.54C12.8897 11.39 12.7597 11.25 12.6197 11.11C12.8897 11.34 13.1597 11.58 13.4297 11.82C13.7897 12.15 14.0597 12.48 14.2397 12.83C14.3797 13.11 14.4497 13.38 14.4597 13.67C14.4597 13.98 14.3397 14.25 14.0997 14.51C13.7997 14.83 13.4197 15.06 12.9197 15.21C12.1897 15.44 11.5197 15.46 10.8797 15.28C10.3497 15.13 9.96973 14.87 9.71973 14.46C9.54973 14.18 9.45973 13.86 9.45973 13.48C9.45973 12.44 9.45973 11.4 9.45973 10.37C9.45973 10.33 9.45973 10.29 9.43973 10.25C9.65973 10.41 9.87973 10.54 10.0497 10.65C10.3097 10.81 10.5697 10.96 10.8297 11.12H10.8397C11.1297 11.29 11.4597 11.49 11.7697 11.68C12.2097 11.95 12.5597 12.23 12.8397 12.53C13.1397 12.85 13.3597 13.24 13.4597 13.62ZM15.4097 11.48C14.9597 11.07 14.4497 10.79 13.9497 10.51C13.8197 10.44 13.6897 10.37 13.5597 10.3C13.1497 10.08 12.7297 9.84997 12.3297 9.60997C11.8697 9.33997 11.4997 9.01997 11.2097 8.64997C10.8797 8.22997 10.7097 7.75997 10.6897 7.23997C10.6897 7.16997 10.6497 7.11997 10.5997 7.07997L10.4297 6.96997C10.4197 6.96997 10.4197 6.95997 10.4097 6.95997C10.3997 6.95997 10.3997 6.95997 10.3897 6.95997C10.3797 6.96997 10.3697 6.97997 10.3697 6.98997L10.3297 7.25997C10.3197 7.30997 10.3197 7.35997 10.3097 7.40997C10.2497 8.07997 10.4197 8.69997 10.8397 9.30997C11.0697 9.63997 11.3297 9.92997 11.5997 10.2C11.2197 9.86997 10.8297 9.53997 10.4997 9.15997C10.1297 8.72997 9.91973 8.34997 9.82973 7.93997C9.73973 7.52997 9.77973 7.19997 9.93973 6.92997C10.0997 6.64997 10.3597 6.44997 10.7397 6.30997C11.1297 6.15997 11.5797 6.10997 12.0997 6.14997C12.6097 6.18997 13.0897 6.32997 13.5197 6.55997C14.2597 6.94997 14.7997 7.54997 15.1597 8.37997C15.3597 8.83997 15.4897 9.33997 15.5497 9.91997C15.6097 10.4 15.6097 10.89 15.5697 11.37C15.5597 11.48 15.5697 11.59 15.5997 11.69C15.5297 11.6 15.4597 11.53 15.4097 11.48Z" fill="white"/>
<path d="M11.1097 16.37C10.8497 16.37 10.5897 16.37 10.3397 16.36H10.3197C10.0797 16.36 9.80973 16.35 9.54973 16.35H9.30973C8.76973 16.35 8.22973 16.35 7.68973 16.35H6.23973C6.19973 16.35 6.16973 16.32 6.15973 16.28L6.13973 16.03C6.13973 15.99 6.16973 15.95 6.20973 15.95L6.24973 15.94C6.48973 15.91 6.65973 15.86 6.81973 15.79C7.18973 15.62 7.40973 15.33 7.47973 14.89C7.49973 14.77 7.50973 14.65 7.50973 14.49C7.50973 12.25 7.50973 9.99997 7.50973 7.75997V6.97997C7.50973 6.72997 7.46973 6.51997 7.38973 6.32997C7.22973 5.94997 6.89973 5.77997 6.46973 5.63997C6.37973 5.60997 6.18973 5.54997 6.06973 5.50997L6.02973 5.49997C6.02973 5.49997 6.02973 5.49997 6.01973 5.49997C5.99973 5.48997 5.98973 5.48997 5.97973 5.47997L5.70973 5.38997C5.69973 5.38997 5.69973 5.37997 5.68973 5.37997C5.67973 5.38997 5.66973 5.38997 5.64973 5.38997C5.60973 5.38997 5.56973 5.35997 5.56973 5.30997V5.26997C5.56973 5.24997 5.57973 5.22997 5.58973 5.21997C5.59973 5.20997 5.61973 5.19997 5.63973 5.19997H7.97973C9.03973 5.19997 10.3597 5.19997 11.6097 5.19997C12.6697 5.19997 13.5897 5.36997 14.3997 5.70997C15.8297 6.30997 16.7597 7.37997 17.1597 8.89997C17.3397 9.56997 17.4097 10.28 17.3797 11.09C17.3497 11.81 17.2397 12.44 17.0497 13.02C16.5397 14.5 15.4997 15.5 13.9497 16.01C13.3597 16.2 12.7597 16.28 12.3097 16.33C11.9697 16.35 11.5897 16.37 11.1097 16.37ZM9.55973 16.28C9.81973 16.28 10.0897 16.29 10.3297 16.29H10.3497C10.6097 16.29 10.8697 16.3 11.1197 16.3C11.5897 16.3 11.9797 16.28 12.3297 16.25C12.7797 16.2 13.3797 16.12 13.9597 15.94C15.4897 15.44 16.5097 14.45 17.0097 13C17.2097 12.43 17.3097 11.81 17.3397 11.09C17.3697 10.29 17.2997 9.57997 17.1197 8.91997C16.7197 7.41997 15.7997 6.36997 14.3997 5.77997C13.5897 5.43997 12.6897 5.27997 11.6397 5.26997C10.3897 5.26997 9.06973 5.26997 8.00973 5.26997H5.66973V5.31997L5.67973 5.27997L5.73973 5.29997L5.74973 5.31997L6.00973 5.40997C6.00973 5.40997 6.00973 5.40997 6.01973 5.41997H6.02973C6.03973 5.41997 6.04973 5.42997 6.06973 5.42997L6.11973 5.44997C6.23973 5.48997 6.42973 5.54997 6.51973 5.57997C6.96973 5.71997 7.30973 5.89997 7.48973 6.30997C7.56973 6.49997 7.60973 6.71997 7.60973 6.98997V7.76997C7.60973 10.01 7.60973 12.26 7.60973 14.5C7.60973 14.66 7.59973 14.79 7.57973 14.91C7.49973 15.37 7.26973 15.68 6.87973 15.86C6.71973 15.93 6.53973 15.98 6.28973 16.02L6.24973 16.03L6.25973 16.29H7.70973C8.24973 16.29 8.78973 16.29 9.32973 16.29H9.39973L9.55973 16.28ZM11.4997 15.45C11.1997 15.45 10.9097 15.41 10.6297 15.33C10.0897 15.18 9.69973 14.91 9.44973 14.5C9.26973 14.21 9.18973 13.88 9.18973 13.5C9.18973 12.46 9.18973 11.42 9.18973 10.39C9.18973 10.35 9.18973 10.32 9.17973 10.29L9.14973 10.19L9.23973 10.25C9.46973 10.41 9.68973 10.55 9.84973 10.65C10.1097 10.81 10.3697 10.96 10.6297 11.12C10.9097 11.29 11.2497 11.49 11.5697 11.68C12.0097 11.95 12.3697 12.23 12.6497 12.53C12.9397 12.84 13.1697 13.24 13.2697 13.63C13.2697 13.65 13.2897 13.67 13.2897 13.68L13.4197 13.98L13.4997 13.59C13.5397 13.42 13.5197 13.12 13.4897 12.97C13.3897 12.49 13.1597 12.05 12.7597 11.58C12.6397 11.44 12.5097 11.3 12.3597 11.15L12.4097 11.1C12.6897 11.34 12.9497 11.57 13.2197 11.81C13.5897 12.14 13.8497 12.48 14.0397 12.83C14.1897 13.11 14.2597 13.39 14.2597 13.68C14.2597 14 14.1397 14.28 13.8897 14.55C13.5897 14.88 13.1997 15.11 12.6897 15.26C12.2797 15.38 11.8797 15.45 11.4997 15.45ZM9.26973 10.34C9.26973 10.35 9.26973 10.36 9.26973 10.37C9.26973 11.41 9.26973 12.45 9.26973 13.48C9.26973 13.85 9.34973 14.17 9.51973 14.44C9.75973 14.83 10.1297 15.1 10.6497 15.24C11.2797 15.41 11.9397 15.39 12.6697 15.17C13.1597 15.02 13.5497 14.79 13.8397 14.48C14.0697 14.23 14.1897 13.96 14.1897 13.66C14.1897 13.38 14.1197 13.11 13.9797 12.84C13.7997 12.49 13.5397 12.16 13.1797 11.84C13.0797 11.75 12.9897 11.67 12.8897 11.58C13.2697 12.04 13.4797 12.47 13.5797 12.94C13.6097 13.09 13.6397 13.41 13.5897 13.59L13.5197 13.98C13.5097 14.01 13.4897 14.04 13.4497 14.04C13.4197 14.04 13.3797 14.03 13.3697 13.99L13.2397 13.7C13.2297 13.68 13.2197 13.65 13.2097 13.63C13.1097 13.26 12.8897 12.87 12.6097 12.57C12.3297 12.27 11.9797 12 11.5397 11.73C11.2197 11.54 10.8797 11.34 10.6097 11.17C10.3397 11.01 10.0797 10.86 9.81973 10.7C9.65973 10.6 9.46973 10.49 9.26973 10.34ZM15.4597 11.84L15.3397 11.7C15.2697 11.61 15.1997 11.55 15.1597 11.5C14.7197 11.09 14.1997 10.81 13.7097 10.54C13.5897 10.47 13.4697 10.41 13.3497 10.34L13.3197 10.32C12.9097 10.1 12.4997 9.86997 12.0897 9.62997C11.6197 9.34997 11.2497 9.03997 10.9597 8.65997C10.6297 8.22997 10.4497 7.74997 10.4297 7.22997C10.4297 7.17997 10.3997 7.12997 10.3497 7.09997L10.1697 6.99997L10.1297 7.26997C10.1197 7.31997 10.1197 7.36997 10.1097 7.41997C10.0497 8.07997 10.2197 8.69997 10.6297 9.29997C10.8297 9.59997 11.0697 9.87997 11.3897 10.18L11.3397 10.23C10.9397 9.88997 10.5597 9.55997 10.2397 9.17997C9.85973 8.74997 9.64973 8.34997 9.55973 7.93997C9.46973 7.51997 9.50973 7.18997 9.67973 6.89997C9.84973 6.61997 10.1097 6.40997 10.4897 6.25997C10.8897 6.10997 11.3397 6.05997 11.8697 6.09997C12.3897 6.13997 12.8697 6.27997 13.3097 6.50997C14.0597 6.90997 14.5997 7.50997 14.9697 8.34997C15.1697 8.80997 15.2997 9.31997 15.3697 9.89997C15.4297 10.38 15.4297 10.87 15.3897 11.36C15.3797 11.47 15.3897 11.57 15.4197 11.66L15.4597 11.84ZM10.1697 6.91997C10.1797 6.91997 10.1997 6.91997 10.2097 6.92997L10.3797 7.03997C10.4497 7.08997 10.4897 7.14997 10.4897 7.22997C10.5097 7.73997 10.6797 8.20997 11.0097 8.61997C11.2997 8.98997 11.6597 9.29997 12.1197 9.56997C12.5297 9.80997 12.9397 10.04 13.3497 10.26L13.3797 10.28C13.4997 10.35 13.6197 10.41 13.7397 10.48C14.2397 10.76 14.7597 11.04 15.2097 11.45C15.2397 11.48 15.2697 11.51 15.3097 11.55C15.2997 11.49 15.2997 11.43 15.3097 11.36C15.3497 10.88 15.3397 10.4 15.2897 9.91997C15.2197 9.34997 15.0997 8.84997 14.8997 8.38997C14.5397 7.56997 14.0097 6.97997 13.2797 6.58997C12.8497 6.35997 12.3797 6.22997 11.8697 6.18997C11.3497 6.14997 10.9097 6.19997 10.5197 6.34997C10.1497 6.48997 9.89973 6.68997 9.73973 6.94997C9.57973 7.21997 9.54973 7.52997 9.62973 7.93997C9.70973 8.33997 9.91973 8.71997 10.2897 9.14997C10.4597 9.33997 10.6397 9.51997 10.8297 9.69997C10.7297 9.57997 10.6497 9.46997 10.5697 9.34997C10.1497 8.72997 9.97973 8.09997 10.0397 7.41997C10.0397 7.36997 10.0497 7.31997 10.0597 7.26997L10.0997 6.99997C10.0997 6.96997 10.1197 6.94997 10.1397 6.93997C10.1397 6.92997 10.1597 6.91997 10.1697 6.91997Z" fill="white"/>
<path d="M11.1197 20.95C7.01973 20.95 3.28973 18.53 1.61973 14.78C0.489732 12.25 0.419731 9.41997 1.41973 6.82997C2.41973 4.22997 4.35973 2.17997 6.88973 1.05997C8.22973 0.459974 9.64973 0.159973 11.1097 0.159973C15.2097 0.159973 18.9397 2.57997 20.6097 6.32997C22.9397 11.57 20.5797 17.72 15.3397 20.06C13.9997 20.65 12.5797 20.95 11.1197 20.95ZM11.1097 0.229973C9.65973 0.229973 8.24973 0.529973 6.91973 1.12997C4.40973 2.24997 2.47973 4.28997 1.48973 6.85997C0.499731 9.43997 0.569732 12.24 1.68973 14.76C3.34973 18.48 7.04973 20.89 11.1297 20.89C12.5797 20.89 13.9897 20.59 15.3197 19.99C20.5197 17.67 22.8697 11.56 20.5497 6.35997C18.8797 2.62997 15.1797 0.229973 11.1097 0.229973Z" fill="white"/>
<path d="M11.1997 18.6C6.74973 18.6 3.12973 14.98 3.12973 10.53C3.12973 6.07997 6.74973 2.45997 11.1997 2.45997C15.6497 2.45997 19.2697 6.07997 19.2697 10.53C19.2697 14.98 15.6497 18.6 11.1997 18.6ZM11.1997 2.60997C6.82973 2.60997 3.27973 6.16997 3.27973 10.53C3.27973 14.9 6.83973 18.45 11.1997 18.45C15.5697 18.45 19.1197 14.89 19.1197 10.53C19.1197 6.15997 15.5697 2.60997 11.1997 2.60997Z" fill="white"/>
</svg>
