<svg width="69" height="15" viewBox="0 0 69 15" fill="none" xmlns="http://www.w3.org/2000/svg">
<path d="M32.6496 3.68999C32.6396 3.70999 32.6296 3.71999 32.6196 3.73999H30.0396C30.0296 3.70999 30.0096 3.68999 29.9896 3.66999C29.8996 3.58999 29.7496 3.59999 29.6696 3.68999C29.5896 3.77999 29.5996 3.92999 29.6896 4.00999C29.7396 4.05999 29.8096 4.06999 29.8796 4.05999L30.5396 4.52999C30.5296 4.60999 30.5496 4.68999 30.6096 4.73999C30.6396 4.76999 30.6796 4.77999 30.7196 4.78999C30.7196 5.17999 30.7196 5.54999 30.7196 5.89999C30.7196 5.90999 30.7196 5.92999 30.7196 5.93999C30.6896 5.94999 30.6696 5.96999 30.6396 5.99999C30.5596 6.08999 30.5696 6.23999 30.6596 6.31999C30.6796 6.33999 30.6996 6.34999 30.7196 6.35999C30.7296 8.56999 30.6996 9.80999 30.2196 10.3C30.0696 10.45 29.8696 10.54 29.6096 10.57C29.5996 10.55 29.5796 10.53 29.5596 10.51C29.4696 10.43 29.3196 10.44 29.2396 10.53C29.2296 10.54 29.2196 10.55 29.2096 10.56C29.1796 10.56 29.1596 10.55 29.1296 10.55C28.9396 10.52 28.6596 10.47 28.3796 10.32C28.2396 10.24 28.1096 10.14 27.9896 9.99999C27.8796 9.85999 27.7796 9.68999 27.7096 9.49999C27.6096 9.23999 27.5596 8.93999 27.5296 8.62999C27.5396 8.61999 27.5596 8.60999 27.5696 8.59999C27.6796 8.47999 27.6696 8.28999 27.5396 8.17999C27.5296 8.16999 27.5096 8.15999 27.4996 8.14999C27.4896 7.71999 27.4996 7.27999 27.5096 6.86999C27.5296 6.43999 27.5396 6.02999 27.5496 5.67999C27.5596 5.32999 27.5696 5.03999 27.5696 4.83999C27.5696 4.80999 27.5696 4.77999 27.5696 4.75999C27.5996 4.72999 27.6296 4.69999 27.6396 4.65999C27.6596 4.61999 27.6596 4.56999 27.6596 4.51999L28.1996 4.06999C28.2796 4.08999 28.3596 4.05999 28.4196 3.99999C28.4996 3.90999 28.4896 3.75999 28.3996 3.67999C28.3196 3.60999 28.1996 3.60999 28.1196 3.66999L28.0496 3.72999H25.0996C25.0896 3.70999 25.0796 3.69999 25.0596 3.68999C24.9696 3.60999 24.8196 3.61999 24.7396 3.70999C24.6596 3.79999 24.6696 3.94999 24.7596 4.02999C24.8396 4.09999 24.9496 4.09999 25.0296 4.04999L25.6396 4.51999C25.6196 4.59999 25.6496 4.67999 25.7096 4.72999C25.7296 4.74999 25.7596 4.76999 25.7896 4.77999V8.57999C25.7896 8.57999 25.7896 8.66999 25.7896 8.81999C25.7896 8.88999 25.7896 8.96999 25.7996 9.04999C25.7996 9.04999 25.7996 9.04999 25.7896 9.04999C25.6796 9.10999 25.6296 9.23999 25.6896 9.34999C25.7196 9.40999 25.7796 9.44999 25.8396 9.46999C25.8496 9.52999 25.8596 9.57999 25.8696 9.63999C25.8896 9.70999 25.8996 9.77999 25.9196 9.84999C25.9396 9.91999 25.9596 9.99999 25.9896 10.07C26.0196 10.14 26.0496 10.22 26.0896 10.3C26.1696 10.45 26.2496 10.6 26.3596 10.74C26.3896 10.77 26.4096 10.81 26.4396 10.84L26.5296 10.94L26.6296 11.04C26.6596 11.07 26.6996 11.1 26.7396 11.12L26.8496 11.2C26.8896 11.23 26.9196 11.25 26.9596 11.27C27.0396 11.31 27.1096 11.36 27.1896 11.4C27.2696 11.44 27.3496 11.47 27.4296 11.5C27.4696 11.52 27.5096 11.53 27.5496 11.55C27.5896 11.56 27.6296 11.57 27.6696 11.59C27.7496 11.61 27.8296 11.64 27.8996 11.66C27.9796 11.68 28.0496 11.69 28.1296 11.71C28.1996 11.72 28.2796 11.74 28.3496 11.75C28.4196 11.76 28.4896 11.77 28.5496 11.78C28.6796 11.79 28.7996 11.81 28.9096 11.82C29.0096 11.83 29.0996 11.83 29.1796 11.83C29.2896 11.84 29.3696 11.84 29.3996 11.84C29.4096 11.84 29.4096 11.84 29.4096 11.84C29.9896 11.84 30.6196 11.69 31.1196 11.23C31.1396 11.23 31.1696 11.24 31.1896 11.24C31.4396 11.24 31.6296 11.04 31.6296 10.8C31.6296 10.74 31.6196 10.68 31.5996 10.63C31.9196 10.06 32.1296 9.25999 32.1296 8.10999V4.80999C32.1496 4.79999 32.1696 4.77999 32.1796 4.75999C32.2396 4.68999 32.2596 4.60999 32.2496 4.52999L32.8096 4.05999C32.8696 4.05999 32.9296 4.03999 32.9796 3.98999C33.0596 3.89999 33.0496 3.74999 32.9596 3.66999C32.8796 3.58999 32.7296 3.59999 32.6496 3.68999ZM29.0996 10.77C29.1396 10.77 29.1696 10.77 29.1996 10.77C29.2096 10.8 29.2296 10.82 29.2496 10.84C29.3396 10.92 29.4896 10.91 29.5696 10.82C29.5896 10.8 29.6096 10.77 29.6196 10.74C29.9296 10.7 30.1596 10.59 30.3396 10.42C30.8796 9.87999 30.8996 8.67999 30.8996 6.34999C30.9296 6.33999 30.9596 6.31999 30.9796 6.28999C31.0596 6.19999 31.0496 6.04999 30.9596 5.96999C30.9596 5.96999 30.9496 5.96999 30.9496 5.95999L31.3896 4.94999C31.4096 5.54999 31.4096 6.09999 31.3996 6.57999C31.3996 6.89999 31.3996 7.19999 31.3996 7.47999C31.3996 7.71999 31.3996 7.93999 31.3896 8.14999C31.3396 8.16999 31.2996 8.22999 31.2996 8.28999C31.2996 8.33999 31.3296 8.38999 31.3696 8.41999C31.2996 9.40999 31.0596 10.09 30.6596 10.51C30.3296 10.85 29.8696 11.02 29.2596 11.02C28.7196 11.02 28.2796 10.92 27.9196 10.74L28.7196 10.73C28.8696 10.75 28.9996 10.76 29.0996 10.77ZM30.8896 4.74999C30.8996 4.73999 30.9096 4.72999 30.9196 4.71999C30.9296 4.69999 30.9496 4.68999 30.9496 4.66999L31.3196 4.77999C31.3196 4.78999 31.3296 4.79999 31.3396 4.80999L30.8896 5.84999C30.8896 5.50999 30.8896 5.13999 30.8896 4.74999ZM27.7596 10.18C27.8996 10.35 28.0796 10.47 28.2396 10.56C28.2896 10.59 28.3496 10.61 28.3996 10.63L27.8996 10.64C27.8896 10.57 27.8196 10.52 27.7496 10.52C27.6996 10.52 27.6596 10.54 27.6396 10.57C26.8996 10.07 26.6096 9.21999 26.6096 8.40999C26.6096 7.49999 26.6296 5.96999 26.6496 5.19999L27.1496 7.63999C27.1496 7.80999 27.1596 7.98999 27.1596 8.15999C27.1496 8.16999 27.1396 8.17999 27.1296 8.18999C27.0196 8.30999 27.0296 8.49999 27.1596 8.60999C27.1796 8.61999 27.1896 8.63999 27.2096 8.64999C27.2496 8.97999 27.3096 9.30999 27.4296 9.60999C27.4996 9.81999 27.6096 10.02 27.7596 10.18ZM26.6596 4.79999C26.6696 4.78999 26.6796 4.77999 26.6896 4.75999C26.6896 4.74999 26.6896 4.74999 26.6896 4.73999L27.1296 4.60999C27.1396 4.64999 27.1696 4.68999 27.1996 4.71999C27.1996 4.74999 27.1996 4.77999 27.1996 4.80999C27.1996 5.00999 27.1896 5.29999 27.1796 5.64999C27.1696 5.99999 27.1496 6.39999 27.1396 6.83999C27.1396 6.93999 27.1396 7.04999 27.1296 7.14999L26.6596 4.79999ZM25.8196 4.32999L25.2296 3.86999H27.8596L27.3896 4.25999C27.2896 4.25999 27.1896 4.31999 27.1396 4.41999C27.1296 4.44999 27.1196 4.47999 27.1196 4.50999L26.6596 4.63999C26.6496 4.62999 26.6396 4.61999 26.6296 4.61999C26.5896 4.59999 26.5496 4.60999 26.5196 4.63999L26.0796 4.51999C26.0796 4.45999 26.0496 4.40999 26.0096 4.36999C25.9596 4.32999 25.8796 4.30999 25.8196 4.32999ZM31.7696 8.10999C31.7696 9.06999 31.6196 9.82999 31.3296 10.38C31.2896 10.37 31.2396 10.36 31.1996 10.36C30.9496 10.36 30.7596 10.56 30.7596 10.8C30.7596 10.88 30.7796 10.96 30.8196 11.02C30.4596 11.32 29.9996 11.47 29.4296 11.48C29.4296 11.48 29.3496 11.48 29.1996 11.48C29.1296 11.48 29.0396 11.48 28.9296 11.48C28.8296 11.48 28.7196 11.46 28.5996 11.45C28.5396 11.44 28.4796 11.44 28.4096 11.43C28.3396 11.42 28.2796 11.41 28.2096 11.4C28.1396 11.39 28.0696 11.38 27.9996 11.36C27.9296 11.34 27.8596 11.32 27.7796 11.3C27.7396 11.29 27.7096 11.28 27.6696 11.27C27.6296 11.26 27.5996 11.24 27.5596 11.23C27.4896 11.2 27.4096 11.18 27.3396 11.14C27.2696 11.1 27.1996 11.07 27.1296 11.03C27.0896 11.01 27.0596 10.99 27.0296 10.97L26.9296 10.9C26.8996 10.88 26.8596 10.86 26.8296 10.83L26.6496 10.67C26.6196 10.64 26.5996 10.61 26.5696 10.58C26.4596 10.46 26.3796 10.33 26.3096 10.2C26.2796 10.13 26.2496 10.06 26.2196 9.99999C26.1896 9.92999 26.1696 9.85999 26.1496 9.79999C26.1196 9.72999 26.1096 9.66999 26.0996 9.59999C26.0896 9.53999 26.0696 9.47999 26.0596 9.41999C26.1296 9.34999 26.1596 9.23999 26.1096 9.14999C26.0896 9.10999 26.0496 9.06999 26.0096 9.04999C25.9996 8.95999 25.9896 8.86999 25.9896 8.80999C25.9796 8.65999 25.9796 8.57999 25.9796 8.57999V4.75999C25.9996 4.74999 26.0196 4.72999 26.0396 4.70999C26.0596 4.68999 26.0696 4.66999 26.0796 4.63999L26.4996 4.75999C26.5096 4.78999 26.5196 4.81999 26.5496 4.82999C26.5396 5.27999 26.5096 7.30999 26.5096 8.41999C26.5096 9.26999 26.8196 10.16 27.5996 10.68C27.5996 10.77 27.6696 10.83 27.7496 10.83C27.7796 10.83 27.7996 10.82 27.8296 10.81C28.2096 11.01 28.6896 11.12 29.2696 11.12C29.8996 11.12 30.3796 10.95 30.7396 10.59C31.1596 10.16 31.3996 9.45999 31.4796 8.45999C31.5596 8.44999 31.6196 8.38999 31.6196 8.30999C31.6196 8.24999 31.5896 8.19999 31.5396 8.17999L31.7796 6.45999V8.10999H31.7696ZM31.7696 5.71999L31.4996 7.66999C31.4996 7.60999 31.4996 7.54999 31.4996 7.47999C31.4996 7.19999 31.4996 6.89999 31.4996 6.57999C31.4996 6.05999 31.4996 5.47999 31.4796 4.81999C31.4996 4.80999 31.5096 4.79999 31.5196 4.77999V4.76999L31.7196 4.68999C31.7296 4.71999 31.7496 4.73999 31.7696 4.75999V5.71999ZM31.9696 4.28999C31.8896 4.28999 31.8196 4.31999 31.7696 4.37999C31.7196 4.43999 31.6896 4.51999 31.6996 4.58999L31.4996 4.66999C31.4896 4.65999 31.4796 4.64999 31.4696 4.64999C31.4296 4.62999 31.3796 4.64999 31.3496 4.67999L30.9796 4.56999C30.9796 4.50999 30.9596 4.44999 30.9096 4.39999C30.8496 4.34999 30.7796 4.32999 30.7096 4.34999L30.0796 3.89999H32.4596L31.9696 4.28999Z" fill="white"/>
<path d="M48.8996 11.25C48.8296 11.22 48.7596 11.23 48.6996 11.25L48.0896 10.87C48.0996 10.77 48.0496 10.67 47.9496 10.63C47.9396 10.63 47.9396 10.63 47.9296 10.62L47.6996 10.15C47.7596 10.08 47.7996 9.98999 47.7996 9.89999C47.7996 9.68999 47.6296 9.50999 47.4096 9.50999C47.3996 9.50999 47.3996 9.50999 47.3896 9.50999L44.5796 3.66999C44.5996 3.56999 44.5696 3.46999 44.4796 3.40999C44.3696 3.33999 44.2196 3.36999 44.1496 3.48999C44.0896 3.58999 44.1096 3.70999 44.1896 3.78999L41.1796 10.82C41.0996 10.81 41.0196 10.85 40.9796 10.93C40.9696 10.96 40.9596 10.99 40.9596 11.01L40.3596 11.29C40.3396 11.26 40.3096 11.24 40.2796 11.23C40.1596 11.18 40.0196 11.23 39.9596 11.35C39.9096 11.47 39.9596 11.61 40.0796 11.67C40.1896 11.72 40.3096 11.68 40.3696 11.59H42.8296C42.8496 11.62 42.8896 11.65 42.9296 11.67C43.0496 11.72 43.1896 11.67 43.2496 11.55C43.2996 11.43 43.2496 11.29 43.1296 11.23C43.0496 11.2 42.9696 11.21 42.8996 11.25L42.5796 11.07C42.5896 11 42.5696 10.93 42.5196 10.88L43.0796 9.28999C43.1296 9.28999 43.1696 9.26999 43.2096 9.23999L45.1996 9.22999C45.2396 9.25999 45.2896 9.27999 45.3396 9.28999L46.1196 10.87C46.1096 10.89 46.1096 10.91 46.1096 10.93L45.9396 11.24C45.8196 11.2 45.6996 11.26 45.6496 11.37C45.5996 11.49 45.6496 11.63 45.7696 11.69C45.8896 11.74 46.0196 11.69 46.0796 11.58H47.3196C47.3396 11.62 47.3696 11.65 47.4196 11.67C47.5196 11.71 47.6296 11.67 47.6796 11.58H48.6096C48.6296 11.62 48.6696 11.65 48.7196 11.67C48.8396 11.72 48.9796 11.67 49.0396 11.55C49.0696 11.44 49.0196 11.3 48.8996 11.25ZM44.3696 4.05999L47.0896 9.69999C47.0596 9.75999 47.0396 9.81999 47.0396 9.88999C47.0396 9.89999 47.0396 9.89999 47.0396 9.90999L46.0896 8.87999C46.0996 8.85999 46.1096 8.82999 46.1096 8.80999C46.1096 8.71999 46.0396 8.64999 45.9496 8.64999C45.9396 8.64999 45.9196 8.64999 45.9096 8.64999C45.2696 7.11999 44.4996 5.28999 44.3296 4.87999L44.3396 4.86999C44.3696 4.81999 44.3596 4.75999 44.3096 4.71999L44.3696 4.05999ZM45.8096 8.70999C45.8096 8.71999 45.8096 8.71999 45.8096 8.70999L45.2296 8.53999C45.2296 8.49999 45.2096 8.47999 45.1796 8.45999L44.3596 6.20999C44.3796 6.19999 44.3896 6.17999 44.3996 6.15999C44.4696 6.04999 44.4396 5.89999 44.3196 5.82999C44.2996 5.81999 44.2796 5.80999 44.2596 5.79999L44.2796 5.05999C44.5296 5.65999 45.2196 7.29999 45.8096 8.70999ZM43.0196 8.60999L42.7996 8.71999L44.1696 5.11999L44.1496 5.78999C44.0796 5.79999 44.0196 5.83999 43.9896 5.89999C43.9496 5.95999 43.9396 6.02999 43.9596 6.09999L43.1196 8.32999C43.0496 8.36999 42.9996 8.44999 42.9996 8.53999C43.0096 8.56999 43.0196 8.58999 43.0196 8.60999ZM44.2596 6.37999L45.0296 8.48999H43.4596L44.2596 6.37999ZM44.2696 3.99999L44.1996 4.71999C44.1796 4.72999 44.1596 4.73999 44.1496 4.75999C44.1196 4.79999 44.1296 4.84999 44.1596 4.88999L42.6996 8.71999C42.6596 8.73999 42.6396 8.77999 42.6396 8.81999C42.6396 8.83999 42.6396 8.84999 42.6496 8.85999V8.86999L41.5096 10.47L44.2696 3.99999ZM42.4896 9.25999L41.9096 10.78C41.8796 10.79 41.8596 10.8 41.8396 10.83L41.3396 10.92C41.3396 10.91 41.3296 10.9 41.3296 10.9L42.4896 9.25999ZM40.6596 11.34L41.0296 11.17C41.0396 11.18 41.0596 11.19 41.0796 11.2C41.1796 11.24 41.2896 11.2 41.3396 11.1C41.3496 11.08 41.3496 11.06 41.3496 11.04L41.8296 10.95C41.8496 10.98 41.8796 11.01 41.9196 11.01C41.9496 11.01 41.9696 11 41.9896 10.98L42.0896 11.04C42.0796 11.14 42.1296 11.24 42.2296 11.29C42.2796 11.31 42.3396 11.31 42.3896 11.3L42.4796 11.35H40.6596V11.34ZM42.8596 9.14999L42.2696 10.83C42.2196 10.85 42.1696 10.88 42.1396 10.93L42.0296 10.87C42.0296 10.85 42.0196 10.83 41.9996 10.81L42.7196 8.91999H42.7296C42.7396 8.91999 42.7496 8.91999 42.7696 8.90999L42.8596 8.99999C42.8496 9.02999 42.8496 9.05999 42.8496 9.08999C42.8496 9.10999 42.8596 9.12999 42.8596 9.14999ZM45.2296 8.87999L43.1996 8.88999C43.1596 8.85999 43.1096 8.83999 43.0596 8.84999C42.9996 8.84999 42.9496 8.87999 42.9196 8.90999L42.8396 8.83999C42.8396 8.82999 42.8396 8.82999 42.8396 8.81999L43.0796 8.69999C43.1196 8.73999 43.1796 8.75999 43.2396 8.75999C43.3196 8.75999 43.3896 8.70999 43.4296 8.63999H45.0696C45.0896 8.64999 45.0996 8.65999 45.1196 8.65999C45.1396 8.65999 45.1696 8.64999 45.1796 8.63999L45.7596 8.81999L45.4996 8.91999C45.4596 8.86999 45.3896 8.83999 45.3196 8.83999C45.2996 8.84999 45.2696 8.85999 45.2296 8.87999ZM46.2296 11.06C46.2796 11.06 46.3196 11.03 46.3396 10.99C46.3696 10.93 46.3396 10.86 46.2796 10.83C46.2696 10.83 46.2696 10.83 46.2596 10.83L45.4896 9.25999C45.5396 9.21999 45.5796 9.14999 45.5796 9.06999C45.5796 9.04999 45.5796 9.03999 45.5696 9.01999L45.8196 8.91999C45.8496 8.94999 45.8896 8.96999 45.9296 8.97999C46.2596 9.76999 46.5496 10.45 46.6996 10.81C46.6896 10.83 46.6796 10.85 46.6796 10.88V10.89L46.1096 11.29L46.2296 11.06ZM46.2096 11.34L46.7296 10.97C46.7396 10.98 46.7596 10.98 46.7796 10.98C46.7996 10.98 46.8096 10.98 46.8296 10.97L47.2696 11.34H46.2096ZM47.6096 11.34C47.5996 11.33 47.5796 11.32 47.5696 11.32C47.5096 11.29 47.4496 11.3 47.3996 11.33L47.0196 11L48.1696 11.34H47.6096ZM46.8796 10.85C46.8696 10.81 46.8296 10.77 46.7896 10.77C46.6896 10.53 46.3996 9.83999 46.0496 8.99999L47.5196 10.59L47.6196 10.8C47.5996 10.91 47.6596 11.02 47.7596 11.06C47.8196 11.08 47.8796 11.09 47.9296 11.07L48.1796 11.23L46.8796 10.85Z" fill="white"/>
<path d="M40.0796 9.54999C40.1396 9.51999 40.1896 9.47999 40.2096 9.40999C40.2696 9.26999 40.2096 9.10999 40.0696 9.04999C39.9296 8.98999 39.7696 9.04999 39.7096 9.18999C39.6796 9.24999 39.6796 9.30999 39.6996 9.36999L38.8196 10.18C38.7396 10.16 38.6596 10.19 38.6096 10.25C38.5896 10.28 38.5696 10.31 38.5596 10.34C38.5496 10.34 38.5296 10.34 38.5196 10.35C38.3896 10.37 38.2196 10.38 38.0496 10.38C37.8796 10.38 37.6996 10.38 37.5696 10.38C37.4396 10.38 37.3496 10.37 37.3496 10.37C36.4896 10.37 34.5896 9.67999 34.5896 7.63999C34.5896 5.91999 35.3896 4.88999 36.7196 4.88999H36.8196C37.9196 4.88999 38.7296 4.88999 39.0996 5.95999C39.0696 5.99999 39.0396 6.03999 39.0396 6.08999C39.0096 6.23999 39.1096 6.37999 39.2496 6.40999C39.3996 6.43999 39.5396 6.33999 39.5696 6.19999C39.5796 6.13999 39.5696 6.08999 39.5496 6.03999L40.1096 3.17999C40.1596 3.13999 40.1896 3.08999 40.1996 3.01999C40.2296 2.86999 40.1296 2.72999 39.9896 2.69999C39.8396 2.66999 39.6996 2.76999 39.6696 2.90999C39.6596 2.96999 39.6696 3.02999 39.6896 3.07999L38.8396 3.83999C38.7496 3.77999 38.6196 3.78999 38.5496 3.87999C38.5496 3.87999 38.5496 3.87999 38.5496 3.88999C38.1996 3.78999 37.4796 3.62999 36.5896 3.62999C35.7296 3.62999 34.8596 3.99999 34.2196 4.64999C33.7096 5.16999 33.0896 6.08999 33.0896 7.57999C33.0896 7.57999 33.0896 7.60999 33.0896 7.67999C33.0896 7.73999 33.0896 7.82999 33.0996 7.94999C33.0996 8.00999 33.1096 8.07999 33.1196 8.14999C33.1296 8.21999 33.1396 8.29999 33.1496 8.37999C33.1696 8.53999 33.2196 8.72999 33.2696 8.92999C33.3896 9.31999 33.5896 9.76999 33.9196 10.18C34.2396 10.59 34.6796 10.95 35.1696 11.2C35.6596 11.46 36.1996 11.61 36.7096 11.69C36.7796 11.7 36.8396 11.71 36.8996 11.71C36.9596 11.89 37.1196 12.01 37.3196 12.01C37.5096 12.01 37.6696 11.89 37.7296 11.73C37.7496 11.73 37.7696 11.73 37.7896 11.73C37.8996 11.72 37.9996 11.72 38.0996 11.71C38.4996 11.69 38.8296 11.67 39.0696 11.65C39.1596 11.64 39.2296 11.64 39.2896 11.64C39.2996 11.64 39.2996 11.65 39.3096 11.65C39.4496 11.71 39.6096 11.65 39.6696 11.51C39.7096 11.42 39.6996 11.32 39.6396 11.25L40.0796 9.54999ZM34.7896 9.42999L34.8096 9.45999H34.8196C35.4696 10.33 36.5396 10.74 37.3596 10.74C37.3596 10.74 37.4496 10.74 37.5796 10.73C37.7096 10.72 37.8896 10.71 38.0696 10.69C38.2496 10.67 38.4296 10.64 38.5596 10.61C38.5896 10.6 38.6196 10.6 38.6396 10.59C38.6396 10.59 38.6496 10.59 38.6496 10.6L38.5696 10.93C38.5496 10.94 38.5196 10.95 38.5096 10.97C38.4996 10.98 38.4996 10.99 38.4996 11C38.0696 11.04 37.6996 11.06 37.0696 11.06C36.7696 11.06 36.4596 11 36.1596 10.9C36.1596 10.86 36.1496 10.83 36.1096 10.81C36.0696 10.78 36.0096 10.79 35.9796 10.83L35.8796 10.78C34.8296 10.29 33.9496 9.16999 33.8596 7.67999L34.4196 8.72999C34.5096 8.98999 34.6396 9.21999 34.7896 9.42999ZM36.9696 11.28L36.6196 11.12C36.7696 11.14 36.9196 11.16 37.0596 11.16C37.0796 11.16 37.0996 11.16 37.1196 11.16C37.0696 11.18 37.0196 11.23 36.9696 11.28ZM36.8296 4.52999H36.7296C36.0196 4.52999 35.4096 4.78999 34.9696 5.27999C34.4796 5.82999 34.2296 6.61999 34.2296 7.63999C34.2296 7.86999 34.2496 8.08999 34.2896 8.28999L33.8696 7.49999C33.8796 7.48999 33.8796 7.48999 33.8896 7.47999C33.9096 7.42999 33.8896 7.37999 33.8496 7.34999C33.8696 5.85999 34.7096 4.82999 35.7296 4.40999C35.7396 4.41999 35.7496 4.42999 35.7696 4.43999C35.8196 4.45999 35.8796 4.43999 35.8996 4.38999C35.9096 4.37999 35.9096 4.35999 35.9096 4.34999C36.1896 4.25999 36.4796 4.20999 36.7596 4.20999C38.2496 4.20999 38.8696 4.55999 39.0596 4.69999C39.0596 4.73999 39.0696 4.77999 39.1096 4.79999C39.1196 4.79999 39.1196 4.80999 39.1296 4.80999L39.1996 5.32999C38.6696 4.52999 37.7696 4.52999 36.8296 4.52999ZM39.3096 5.41999L39.2296 4.78999C39.2396 4.77999 39.2496 4.77999 39.2496 4.76999C39.2696 4.73999 39.2696 4.69999 39.2496 4.66999L39.6096 3.83999L39.3096 5.41999ZM38.8896 4.17999C38.9396 4.11999 38.9596 4.03999 38.9396 3.96999L39.7296 3.26999L39.6996 3.39999L39.1696 4.60999H39.1596L38.8896 4.17999ZM36.5896 3.77999C37.4396 3.77999 38.1496 3.93999 38.4996 4.02999C38.4996 4.08999 38.5296 4.14999 38.5796 4.18999C38.6496 4.24999 38.7296 4.25999 38.8096 4.22999L38.9996 4.52999C38.6996 4.35999 38.0496 4.10999 36.7696 4.10999C36.5296 4.10999 36.2996 4.13999 36.0696 4.19999L36.5796 3.77999C36.5696 3.77999 36.5796 3.77999 36.5896 3.77999ZM33.3196 8.34999C33.2996 8.26999 33.2896 8.19999 33.2796 8.12999C33.2696 8.05999 33.2596 7.99999 33.2596 7.93999C33.2496 7.82999 33.2396 7.73999 33.2396 7.66999C33.2396 7.60999 33.2396 7.57999 33.2396 7.56999C33.2396 5.75999 34.4196 3.87999 36.4096 3.77999L35.8496 4.24999C35.7996 4.22999 35.7396 4.24999 35.7196 4.30999V4.31999C34.6596 4.74999 33.7796 5.81999 33.7596 7.35999C33.7396 7.36999 33.7196 7.38999 33.7096 7.40999C33.6896 7.44999 33.6996 7.49999 33.7396 7.51999L33.3896 8.61999C33.3596 8.52999 33.3396 8.42999 33.3196 8.34999ZM35.3796 10.98C35.3496 10.97 35.3196 10.95 35.2896 10.94C34.8196 10.71 34.4096 10.39 34.0996 10.02C33.7896 9.64999 33.5796 9.22999 33.4596 8.85999C33.4496 8.83999 33.4496 8.80999 33.4396 8.78999L33.7696 7.72999C33.8896 9.28999 34.8496 10.45 35.9696 10.92C35.9796 10.94 35.9896 10.96 36.0096 10.97C36.0396 10.99 36.0696 10.99 36.0996 10.98L36.9196 11.36C36.3496 11.31 35.8296 11.18 35.3796 10.98ZM39.0496 11.29C38.8196 11.31 38.4796 11.33 38.0796 11.36C37.9796 11.37 37.8796 11.37 37.7696 11.38C37.7496 11.38 37.7296 11.38 37.7196 11.38C37.6696 11.28 37.5996 11.2 37.4996 11.16C37.9096 11.15 38.2096 11.14 38.5396 11.1C38.5496 11.11 38.5496 11.11 38.5596 11.12C38.5996 11.14 38.6496 11.14 38.6796 11.11L39.1396 11.29C39.0996 11.28 39.0796 11.28 39.0496 11.29ZM39.2796 11.15C39.2496 11.16 39.2296 11.18 39.2096 11.2L38.6996 11C38.6996 10.98 38.6896 10.96 38.6696 10.94L38.7496 10.62C38.8196 10.63 38.8996 10.6 38.9496 10.55C38.9996 10.5 39.0096 10.43 38.9996 10.36L39.6796 9.64999L39.2796 11.15Z" fill="white"/>
<path d="M54.9496 5.49999L54.8796 4.11999C54.9496 4.04999 54.9796 3.92999 54.9296 3.82999C54.8696 3.69999 54.7196 3.64999 54.5896 3.70999C54.5296 3.73999 54.4796 3.78999 54.4596 3.84999L53.4696 3.88999C53.4196 3.84999 53.3496 3.82999 53.2896 3.85999C53.2696 3.86999 53.2496 3.87999 53.2396 3.89999H51.6196V3.88999C51.5696 3.77999 51.4296 3.72999 51.3196 3.77999C51.2696 3.80999 51.2296 3.84999 51.2096 3.89999H49.3996C49.3496 3.84999 49.2796 3.83999 49.2196 3.85999C49.1996 3.86999 49.1896 3.87999 49.1696 3.88999L48.5996 3.87999C48.5996 3.86999 48.5996 3.85999 48.5896 3.84999C48.5396 3.73999 48.3996 3.68999 48.2896 3.73999C48.1796 3.78999 48.1296 3.92999 48.1796 4.03999C48.1996 4.07999 48.2296 4.11999 48.2696 4.13999L48.1396 5.25999C48.0496 5.26999 47.9696 5.31999 47.9096 5.40999C47.8196 5.55999 47.8596 5.75999 48.0096 5.84999C48.1596 5.93999 48.3596 5.89999 48.4496 5.74999C48.4696 5.70999 48.4896 5.66999 48.4996 5.62999L49.1896 5.07999C49.2796 5.08999 49.3696 5.05999 49.4396 4.98999H50.5696C50.5896 5.00999 50.5996 5.01999 50.6296 5.03999C50.6596 5.05999 50.6896 5.06999 50.7196 5.07999V7.94999C50.5296 7.99999 50.3896 8.16999 50.3896 8.36999C50.3896 8.56999 50.5296 8.73999 50.7196 8.78999V10.33C50.6596 10.36 50.6096 10.4 50.5896 10.47C50.5796 10.52 50.5796 10.57 50.5996 10.61L50.0196 11.08C49.9996 11.07 49.9696 11.05 49.9496 11.04C49.7896 10.99 49.6296 11.08 49.5796 11.24C49.5296 11.4 49.6196 11.56 49.7796 11.61C49.8796 11.64 49.9896 11.61 50.0696 11.54H53.2496C53.2796 11.57 53.3096 11.59 53.3496 11.6C53.4996 11.65 53.6596 11.56 53.7096 11.41C53.7596 11.26 53.6696 11.1 53.5196 11.05C53.4596 11.03 53.3996 11.03 53.3496 11.05L52.5996 10.6C52.5896 10.54 52.5596 10.48 52.5096 10.44L52.4796 8.03999C52.5696 7.98999 52.6396 7.88999 52.6396 7.77999C52.6396 7.65999 52.5696 7.55999 52.4796 7.51999L52.4496 5.01999L53.9196 5.07999L54.5696 5.69999C54.5696 5.71999 54.5796 5.73999 54.5896 5.74999C54.6396 5.85999 54.7796 5.90999 54.8896 5.85999C54.9996 5.80999 55.0496 5.66999 54.9996 5.55999C54.9796 5.52999 54.9596 5.51999 54.9496 5.49999ZM51.4996 4.18999C51.5196 4.17999 51.5296 4.16999 51.5396 4.15999L52.0196 4.64999C52.0196 4.65999 52.0096 4.65999 52.0096 4.66999C51.9296 4.78999 51.9596 4.93999 52.0696 5.02999L52.0996 7.58999C52.0596 7.63999 52.0296 7.70999 52.0296 7.77999C52.0296 7.84999 52.0596 7.91999 52.0996 7.96999L52.1196 9.56999L51.5196 6.96999C51.5796 6.94999 51.6296 6.89999 51.6496 6.82999C51.6896 6.70999 51.6196 6.58999 51.4996 6.54999C51.4896 6.54999 51.4696 6.53999 51.4596 6.53999L51.4496 4.19999C51.4796 4.19999 51.4896 4.19999 51.4996 4.18999ZM52.1396 10.44L51.5396 9.97999C51.5396 9.93999 51.5196 9.90999 51.4896 9.89999L51.4796 7.15999L52.1396 10.03V10.44ZM51.3896 9.88999C51.3596 9.89999 51.3396 9.92999 51.3396 9.95999C51.3396 9.96999 51.3396 9.98999 51.3396 9.99999L50.9396 10.36C50.9196 10.35 50.9096 10.34 50.8896 10.33V8.79999C51.0996 8.76999 51.2496 8.58999 51.2496 8.36999C51.2496 8.19999 51.1496 8.05999 51.0096 7.98999L51.3696 7.05999L51.3896 9.88999ZM51.2996 4.17999C51.3196 4.18999 51.3396 4.19999 51.3596 4.19999L51.3696 6.54999C51.2896 6.56999 51.2296 6.61999 51.1996 6.69999C51.1696 6.79999 51.2096 6.90999 51.2996 6.95999L50.9196 7.94999C50.9096 7.94999 50.8996 7.93999 50.8796 7.93999V5.04999C50.9196 5.02999 50.9596 4.99999 50.9896 4.94999C51.0596 4.83999 51.0396 4.69999 50.9496 4.60999L51.2996 4.17999ZM49.4296 4.63999C49.4096 4.61999 49.3996 4.60999 49.3696 4.58999C49.2396 4.50999 49.0696 4.54999 48.9896 4.67999C48.9596 4.71999 48.9496 4.75999 48.9496 4.80999L48.3196 5.30999C48.3096 5.30999 48.3096 5.29999 48.2996 5.29999L48.4296 4.17999C48.4396 4.17999 48.4496 4.16999 48.4696 4.16999C48.5196 4.14999 48.5496 4.10999 48.5696 4.06999L49.1196 4.07999C49.1596 4.15999 49.2496 4.18999 49.3296 4.15999C49.3696 4.13999 49.3896 4.11999 49.4096 4.07999H51.0696L49.5696 4.63999H49.4296ZM50.5596 4.63999H49.8596L51.1996 4.13999L50.8696 4.56999C50.7696 4.51999 50.6396 4.54999 50.5596 4.63999ZM50.1696 11.19L50.7196 10.75C50.7296 10.75 50.7296 10.76 50.7396 10.76C50.8396 10.79 50.9296 10.75 50.9896 10.67L52.6796 11.19H50.1696ZM52.6896 11.09L51.0196 10.57C51.0296 10.52 51.0196 10.48 50.9996 10.44L51.3996 10.08C51.4096 10.08 51.4096 10.09 51.4196 10.09C51.4496 10.1 51.4696 10.09 51.4996 10.08L52.0896 10.53C52.0796 10.54 52.0796 10.56 52.0696 10.57C52.0296 10.71 52.1096 10.87 52.2496 10.91C52.2996 10.92 52.3496 10.92 52.3896 10.91L52.6896 11.09ZM54.2096 4.84999C54.2196 4.80999 54.2096 4.76999 54.1896 4.72999C54.1396 4.61999 53.9996 4.56999 53.8896 4.61999C53.8496 4.63999 53.8196 4.66999 53.7996 4.69999L52.4596 4.64999C52.4396 4.62999 52.4196 4.60999 52.3996 4.58999C52.3096 4.52999 52.1996 4.53999 52.1096 4.58999L51.6196 4.08999C51.6196 4.08999 51.6196 4.08999 51.6196 4.07999H53.2196C53.2596 4.15999 53.3496 4.18999 53.4296 4.15999C53.4696 4.13999 53.4896 4.10999 53.5096 4.07999L54.4696 4.03999C54.4696 4.04999 54.4696 4.04999 54.4796 4.05999C54.4896 4.08999 54.5096 4.10999 54.5296 4.12999L54.5796 5.19999L54.2096 4.84999Z" fill="white"/>
<path d="M67.1296 7.44999C66.3896 6.99999 65.6896 6.56999 65.6896 5.82999C65.6896 5.58999 65.7696 5.39999 65.9396 5.26999C66.2196 5.03999 66.6896 4.98999 67.0596 5.03999C67.0696 5.05999 67.0896 5.08999 67.1096 5.10999C67.1596 5.15999 67.2296 5.17999 67.2996 5.17999C67.4896 5.55999 67.7196 6.06999 67.8196 6.29999C67.8096 6.36999 67.8296 6.44999 67.8896 6.49999C67.9796 6.57999 68.1296 6.56999 68.2096 6.47999C68.2696 6.40999 68.2796 6.29999 68.2396 6.21999C68.2796 5.80999 68.4296 4.53999 68.5396 3.56999L68.5496 3.55999C68.6296 3.46999 68.6196 3.31999 68.5296 3.23999C68.4396 3.15999 68.2896 3.16999 68.2096 3.25999C68.1596 3.30999 68.1496 3.37999 68.1596 3.44999L67.7696 3.82999C66.4496 3.59999 65.5596 3.71999 64.9896 4.18999C64.5296 4.57999 64.2896 5.20999 64.2896 6.06999C64.2896 6.95999 65.0396 7.57999 65.6996 8.11999C65.7596 8.16999 65.8196 8.20999 65.8696 8.25999C66.0196 8.37999 66.1896 8.48999 66.3496 8.58999C66.8196 8.88999 67.2296 9.14999 67.1396 9.73999C67.0896 10.09 66.7696 10.27 66.5896 10.34C66.1396 10.52 65.5496 10.47 65.2596 10.24C65.2296 10.22 65.1996 10.19 65.1796 10.16C64.9596 9.93999 64.8496 9.55999 64.7496 9.17999C64.7096 9.02999 64.6596 8.87999 64.6196 8.74999C64.6296 8.73999 64.6296 8.73999 64.6396 8.72999C64.7196 8.63999 64.7096 8.48999 64.6196 8.40999C64.5296 8.32999 64.3796 8.33999 64.2996 8.42999C64.2196 8.51999 64.2296 8.66999 64.3196 8.74999L64.0596 10.85C64.0196 10.86 63.9896 10.88 63.9596 10.91C63.8796 11 63.8896 11.15 63.9796 11.23C64.0396 11.28 64.1196 11.3 64.1796 11.28C64.4596 11.45 65.1496 11.79 66.0996 11.79C67.9296 11.79 68.8196 11.04 68.8196 9.48999C68.8196 8.46999 67.9596 7.94999 67.1296 7.44999ZM67.1096 4.66999C66.6496 4.60999 66.0696 4.66999 65.6996 4.97999C65.4496 5.17999 65.3196 5.47999 65.3196 5.82999C65.3196 6.77999 66.1396 7.27999 66.9396 7.75999C67.2396 7.93999 67.5396 8.11999 67.7796 8.31999V9.46999C67.7696 9.43999 67.7496 9.39999 67.7396 9.36999C67.4596 8.76999 66.9296 8.31999 66.4096 7.87999C65.7396 7.31999 65.1096 6.77999 65.0696 5.97999C65.1396 5.95999 65.1896 5.88999 65.1896 5.80999C65.1896 5.73999 65.1396 5.67999 65.0796 5.65999C65.1796 4.63999 65.9396 4.39999 67.0496 4.38999C67.0596 4.40999 67.0796 4.42999 67.0996 4.42999C67.1096 4.42999 67.1196 4.43999 67.1296 4.43999L67.2096 4.60999C67.1796 4.61999 67.1496 4.63999 67.1096 4.66999ZM67.7696 4.00999C67.7996 4.00999 67.8296 4.00999 67.8496 3.98999L68.1496 3.69999C68.0396 4.65999 67.9696 5.26999 67.9296 5.65999C67.8196 5.41999 67.6896 5.14999 67.5796 4.92999C67.5896 4.83999 67.5596 4.74999 67.4896 4.67999C67.4396 4.63999 67.3896 4.61999 67.3296 4.60999L67.2296 4.39999C67.2296 4.38999 67.2396 4.38999 67.2396 4.37999C67.2496 4.35999 67.2496 4.34999 67.2496 4.32999L67.7496 4.00999C67.7596 4.00999 67.7596 4.00999 67.7696 4.00999ZM64.4596 6.06999C64.4596 5.26999 64.6696 4.67999 65.0896 4.32999C65.5896 3.90999 66.4096 3.79999 67.5996 3.97999L67.1896 4.23999C67.1396 4.21999 67.0896 4.23999 67.0596 4.28999C66.0396 4.29999 65.1096 4.49999 64.9896 5.65999C64.9096 5.67999 64.8496 5.74999 64.8496 5.83999C64.8496 5.90999 64.8996 5.95999 64.9596 5.98999L64.8396 7.06999C64.6196 6.76999 64.4596 6.43999 64.4596 6.06999ZM66.4396 8.44999C66.2796 8.34999 66.1196 8.24999 65.9796 8.12999C65.9196 8.07999 65.8696 8.03999 65.8096 7.98999C65.5096 7.73999 65.1796 7.47999 64.9296 7.17999L65.0296 6.29999C65.1896 6.97999 65.7596 7.45999 66.3596 7.96999C66.8696 8.39999 67.3996 8.83999 67.6596 9.42999C67.7096 9.53999 67.7496 9.64999 67.7596 9.74999L67.1796 9.09999C67.0196 8.81999 66.7296 8.62999 66.4396 8.44999ZM65.0496 10.29C65.0796 10.32 65.1096 10.35 65.1496 10.38C65.3496 10.54 65.6596 10.63 65.9996 10.63C66.2196 10.63 66.4496 10.59 66.6596 10.51C67.0396 10.36 67.2696 10.1 67.3196 9.76999C67.3396 9.61999 67.3296 9.48999 67.3096 9.36999L67.6996 9.80999C67.6796 9.83999 67.6696 9.86999 67.6696 9.90999C67.6696 9.97999 67.7096 10.03 67.7696 10.06C67.7396 10.23 67.6596 10.39 67.5196 10.53C66.9896 11.04 65.7996 11.12 65.1396 10.84C65.1396 10.8 65.1196 10.77 65.0796 10.75H65.0696C65.0096 10.51 64.9596 10.3 64.9196 10.11C64.9496 10.16 64.9996 10.23 65.0496 10.29ZM64.3096 10.93C64.3096 10.92 64.2996 10.92 64.2996 10.91L64.5296 9.04999C64.5496 9.10999 64.5596 9.16999 64.5796 9.22999C64.6096 9.32999 64.6396 9.43999 64.6696 9.53999C64.7696 9.92999 64.8696 10.38 64.9596 10.75C64.9496 10.76 64.9396 10.77 64.9296 10.78C64.9296 10.79 64.9296 10.79 64.9296 10.8L64.3496 10.95C64.3296 10.95 64.3196 10.94 64.3096 10.93ZM66.0996 11.43C65.3496 11.43 64.7596 11.18 64.4696 11.03L64.9596 10.91C64.9696 10.92 64.9796 10.93 64.9896 10.93C65.0196 10.94 65.0596 10.94 65.0896 10.92C65.3596 11.03 65.6996 11.09 66.0496 11.09C66.6196 11.09 67.2196 10.93 67.5796 10.59C67.7096 10.47 67.8296 10.3 67.8596 10.07C67.9496 10.06 68.0096 9.97999 68.0096 9.88999C68.0096 9.81999 67.9496 9.75999 67.8896 9.73999V8.39999C68.2296 8.68999 68.4596 9.03999 68.4596 9.49999C68.4596 10.85 67.7496 11.43 66.0996 11.43Z" fill="white"/>
<path d="M63.2996 3.68999C63.2896 3.70999 63.2796 3.71999 63.2696 3.73999H60.6896C60.6796 3.70999 60.6596 3.68999 60.6396 3.66999C60.5496 3.58999 60.3996 3.59999 60.3196 3.68999C60.2396 3.77999 60.2496 3.92999 60.3396 4.00999C60.3896 4.05999 60.4596 4.06999 60.5296 4.05999L61.1896 4.52999C61.1796 4.60999 61.1996 4.68999 61.2596 4.73999C61.2896 4.76999 61.3296 4.77999 61.3696 4.78999C61.3696 5.17999 61.3696 5.54999 61.3696 5.89999C61.3696 6.46999 61.3696 6.98999 61.3696 7.44999C61.3196 7.45999 61.2796 7.47999 61.2396 7.51999C61.1596 7.60999 61.1696 7.75999 61.2596 7.83999C61.2896 7.86999 61.3296 7.87999 61.3596 7.88999C61.3296 9.15999 61.2196 9.92999 60.8596 10.3C60.7096 10.45 60.5096 10.54 60.2496 10.57C60.2396 10.55 60.2196 10.53 60.1996 10.51C60.1096 10.43 59.9596 10.44 59.8796 10.53C59.8696 10.54 59.8596 10.55 59.8496 10.56C59.8196 10.56 59.7996 10.55 59.7596 10.55C59.5696 10.52 59.2896 10.47 59.0096 10.32C58.8696 10.24 58.7396 10.14 58.6196 9.99999C58.5096 9.85999 58.4096 9.68999 58.3396 9.49999C58.1996 9.11999 58.1496 8.65999 58.1296 8.20999C58.1096 7.75999 58.1196 7.29999 58.1396 6.85999C58.1596 6.42999 58.1696 6.01999 58.1796 5.66999C58.1896 5.31999 58.1996 5.02999 58.1996 4.82999C58.1996 4.79999 58.1996 4.76999 58.1996 4.74999C58.2296 4.71999 58.2596 4.68999 58.2696 4.64999C58.2896 4.60999 58.2896 4.55999 58.2896 4.50999L58.8296 4.05999C58.9096 4.07999 58.9896 4.04999 59.0496 3.98999C59.1296 3.89999 59.1196 3.74999 59.0296 3.66999C58.9496 3.59999 58.8296 3.59999 58.7496 3.65999L58.6796 3.71999H55.8396C55.8296 3.69999 55.8196 3.68999 55.7996 3.67999C55.7096 3.59999 55.5596 3.60999 55.4796 3.69999C55.3996 3.78999 55.4096 3.93999 55.4996 4.01999C55.5696 4.07999 55.6796 4.08999 55.7596 4.04999L56.2796 4.49999C56.2596 4.57999 56.2796 4.66999 56.3496 4.72999C56.3696 4.74999 56.3996 4.76999 56.4296 4.77999V4.84999C56.4096 4.84999 56.3996 4.84999 56.3796 4.84999C56.1296 4.84999 55.9396 5.04999 55.9396 5.28999C55.9396 5.53999 56.1396 5.73999 56.3796 5.73999C56.3996 5.73999 56.4096 5.73999 56.4296 5.73999V8.58999C56.4296 8.58999 56.4296 8.67999 56.4296 8.82999C56.4296 8.89999 56.4296 8.97999 56.4396 9.05999H56.4296C56.3196 9.11999 56.2696 9.24999 56.3296 9.35999C56.3596 9.41999 56.4196 9.45999 56.4796 9.47999C56.4896 9.53999 56.4996 9.58999 56.5096 9.64999C56.5296 9.71999 56.5396 9.78999 56.5596 9.85999C56.5796 9.92999 56.5996 10.01 56.6296 10.08C56.6596 10.15 56.6896 10.23 56.7296 10.31C56.8096 10.46 56.8896 10.61 56.9996 10.75C57.0296 10.78 57.0496 10.82 57.0796 10.85L57.1696 10.95L57.2696 11.05C57.2996 11.08 57.3396 11.11 57.3796 11.13L57.4896 11.21C57.5296 11.24 57.5596 11.26 57.5996 11.28C57.6796 11.32 57.7496 11.37 57.8296 11.41C57.9096 11.45 57.9896 11.48 58.0696 11.51C58.1096 11.53 58.1496 11.54 58.1896 11.56C58.2296 11.57 58.2696 11.58 58.3096 11.6C58.3896 11.62 58.4696 11.65 58.5396 11.67C58.6196 11.69 58.6896 11.7 58.7696 11.72C58.8396 11.73 58.9196 11.75 58.9896 11.76C59.0596 11.77 59.1296 11.78 59.1896 11.79C59.3196 11.8 59.4396 11.82 59.5496 11.83C59.6496 11.84 59.7396 11.84 59.8196 11.84C59.9296 11.85 60.0096 11.85 60.0396 11.85C60.0496 11.85 60.0496 11.85 60.0496 11.85C61.2896 11.85 62.7696 11.19 62.7696 8.11999V4.81999C62.7896 4.80999 62.8096 4.78999 62.8196 4.76999C62.8796 4.69999 62.8996 4.61999 62.8896 4.53999L63.4496 4.06999C63.5096 4.06999 63.5696 4.04999 63.6196 3.99999C63.6996 3.90999 63.6896 3.75999 63.5996 3.67999C63.5196 3.58999 63.3796 3.59999 63.2996 3.68999ZM60.9796 10.41C61.3896 9.99999 61.4996 9.20999 61.5296 7.83999L61.9596 8.21999C61.9496 8.23999 61.9496 8.25999 61.9496 8.27999C61.9496 8.32999 61.9796 8.37999 62.0196 8.40999C61.9496 9.39999 61.7096 10.08 61.3096 10.5C61.2096 10.6 61.0896 10.69 60.9596 10.76C60.9296 10.73 60.8896 10.71 60.8496 10.71C60.7996 10.71 60.7496 10.74 60.7196 10.78L60.4096 10.7C60.6496 10.66 60.8396 10.56 60.9796 10.41ZM62.0496 7.47999C62.0496 7.71999 62.0496 7.93999 62.0396 8.14999C62.0396 8.14999 62.0296 8.14999 62.0296 8.15999L61.5996 7.76999C61.6496 7.67999 61.6296 7.55999 61.5496 7.48999C61.5496 7.48999 61.5396 7.48999 61.5396 7.47999C61.5396 7.41999 61.5396 7.34999 61.5396 7.28999L62.0396 5.09999C62.0496 5.63999 62.0496 6.12999 62.0496 6.56999C62.0496 6.89999 62.0496 7.19999 62.0496 7.47999ZM61.5396 6.84999C61.5396 6.54999 61.5396 6.22999 61.5396 5.88999C61.5396 5.52999 61.5396 5.14999 61.5396 4.74999C61.5496 4.73999 61.5596 4.72999 61.5696 4.71999C61.5796 4.69999 61.5996 4.68999 61.5996 4.66999L61.9696 4.77999C61.9796 4.79999 61.9896 4.80999 61.9996 4.81999L61.5396 6.84999ZM58.3996 10.18C58.5396 10.35 58.7196 10.47 58.8796 10.56C59.0496 10.65 59.2196 10.69 59.3596 10.72C59.5096 10.75 59.6396 10.76 59.7396 10.76C59.7796 10.76 59.8096 10.76 59.8396 10.76C59.8496 10.79 59.8696 10.81 59.8896 10.83C59.9796 10.91 60.1296 10.9 60.2096 10.81C60.2196 10.79 60.2296 10.78 60.2396 10.76L60.6896 10.87V10.88C60.4596 10.96 60.1996 11 59.8996 11C57.9396 11 57.2396 9.64999 57.2396 8.39999C57.2396 7.27999 57.2696 5.24999 57.2796 4.80999C57.2996 4.79999 57.3096 4.77999 57.3196 4.75999C57.3196 4.74999 57.3196 4.74999 57.3196 4.73999L57.7596 4.60999C57.7696 4.64999 57.7996 4.68999 57.8296 4.71999C57.8296 4.74999 57.8296 4.77999 57.8296 4.80999C57.8296 5.00999 57.8196 5.29999 57.8096 5.64999C57.7996 5.99999 57.7796 6.39999 57.7696 6.83999C57.7596 7.27999 57.7496 7.73999 57.7796 8.21999C57.8096 8.68999 57.8696 9.16999 58.0396 9.59999C58.1396 9.81999 58.2596 10.02 58.3996 10.18ZM55.9496 3.86999H58.4996L58.0296 4.25999C57.9296 4.25999 57.8296 4.31999 57.7796 4.41999C57.7696 4.44999 57.7596 4.47999 57.7596 4.50999L57.2996 4.63999C57.2896 4.62999 57.2796 4.61999 57.2696 4.61999C57.2296 4.59999 57.1896 4.60999 57.1596 4.63999L56.7196 4.51999C56.7196 4.45999 56.6896 4.40999 56.6496 4.36999C56.5996 4.31999 56.5296 4.30999 56.4696 4.31999L55.9496 3.86999ZM56.6196 5.64999C56.7496 5.56999 56.8396 5.42999 56.8396 5.26999C56.8396 5.10999 56.7496 4.96999 56.6196 4.88999V4.74999C56.6396 4.73999 56.6596 4.71999 56.6796 4.69999C56.6996 4.67999 56.7096 4.65999 56.7196 4.62999L57.1396 4.74999C57.1396 4.76999 57.1596 4.78999 57.1796 4.80999L56.6196 8.44999V5.64999ZM62.4196 8.10999C62.4196 10.33 61.6296 11.47 60.0796 11.48C60.0796 11.48 59.9996 11.48 59.8496 11.48C59.7796 11.48 59.6896 11.48 59.5796 11.48C59.4796 11.48 59.3696 11.46 59.2496 11.45C59.1896 11.44 59.1296 11.44 59.0596 11.43C58.9896 11.42 58.9296 11.41 58.8596 11.4C58.7896 11.39 58.7196 11.38 58.6496 11.36C58.5796 11.34 58.5096 11.32 58.4296 11.3C58.3896 11.29 58.3596 11.28 58.3196 11.27C58.2796 11.26 58.2496 11.24 58.2096 11.23C58.1396 11.2 58.0596 11.18 57.9896 11.14C57.9196 11.1 57.8496 11.07 57.7796 11.03C57.7396 11.01 57.7096 10.99 57.6796 10.97L57.5796 10.9C57.5496 10.88 57.5096 10.86 57.4796 10.83L57.2996 10.67C57.2696 10.64 57.2496 10.61 57.2196 10.58C57.1096 10.46 57.0296 10.33 56.9596 10.2C56.9296 10.13 56.8996 10.06 56.8696 9.99999C56.8396 9.92999 56.8196 9.85999 56.7996 9.79999C56.7696 9.72999 56.7596 9.66999 56.7496 9.59999C56.7396 9.53999 56.7196 9.47999 56.7096 9.41999C56.7796 9.34999 56.8096 9.23999 56.7596 9.14999C56.7396 9.10999 56.6996 9.06999 56.6596 9.04999C56.6596 9.01999 56.6596 8.99999 56.6496 8.96999L57.1996 5.41999C57.1896 6.22999 57.1696 7.57999 57.1696 8.41999C57.1696 9.72999 57.8996 11.12 59.9296 11.12C60.2396 11.12 60.5196 11.08 60.7596 10.99C60.7896 11.02 60.8296 11.04 60.8696 11.04C60.9496 11.04 61.0196 10.97 61.0196 10.89V10.88C61.1596 10.8 61.2796 10.71 61.3996 10.6C61.8196 10.17 62.0596 9.46999 62.1396 8.46999C62.2196 8.45999 62.2796 8.39999 62.2796 8.31999C62.2796 8.24999 62.2296 8.18999 62.1596 8.16999C62.1696 7.95999 62.1696 7.73999 62.1696 7.50999C62.1696 7.22999 62.1696 6.92999 62.1696 6.60999C62.1696 6.08999 62.1696 5.50999 62.1496 4.84999C62.1696 4.83999 62.1796 4.82999 62.1896 4.80999V4.79999L62.3896 4.71999C62.3996 4.74999 62.4196 4.76999 62.4396 4.78999V8.10999H62.4196ZM62.6196 4.28999C62.5396 4.28999 62.4696 4.31999 62.4196 4.37999C62.3696 4.43999 62.3396 4.51999 62.3496 4.58999L62.1496 4.66999C62.1396 4.65999 62.1296 4.64999 62.1196 4.64999C62.0796 4.62999 62.0296 4.64999 61.9996 4.67999L61.6296 4.56999C61.6296 4.50999 61.6096 4.44999 61.5596 4.39999C61.4996 4.34999 61.4296 4.32999 61.3596 4.34999L60.7296 3.89999H63.1096L62.6196 4.28999Z" fill="white"/>
<path d="M24.9196 7.46999C24.9196 7.43999 24.9096 7.34999 24.9096 7.21999C24.8996 7.13999 24.8896 7.02999 24.8796 6.91999C24.8596 6.79999 24.8396 6.66999 24.7996 6.52999C24.7796 6.45999 24.7696 6.38999 24.7396 6.30999C24.7196 6.23999 24.6896 6.15999 24.6596 6.07999C24.6396 6.03999 24.6296 5.99999 24.6096 5.95999C24.5896 5.91999 24.5696 5.87999 24.5596 5.83999C24.5296 5.75999 24.4796 5.67999 24.4396 5.59999C24.3996 5.51999 24.3396 5.44999 24.2896 5.36999C24.2296 5.29999 24.1796 5.21999 24.1196 5.14999C23.9996 4.99999 23.8596 4.86999 23.7196 4.73999C23.5796 4.60999 23.4196 4.49999 23.2596 4.39999C23.0996 4.29999 22.9396 4.21999 22.7796 4.13999C22.4596 3.98999 22.1396 3.88999 21.8696 3.81999C21.7296 3.78999 21.6096 3.75999 21.4896 3.73999C21.3796 3.71999 21.2796 3.70999 21.1896 3.69999C21.0596 3.68999 20.9796 3.68999 20.9496 3.68999L17.0496 3.72999C17.0396 3.68999 17.0196 3.64999 16.9796 3.61999C16.8896 3.53999 16.7396 3.54999 16.6596 3.63999C16.5796 3.72999 16.5896 3.87999 16.6796 3.95999C16.7296 3.99999 16.7896 4.01999 16.8496 4.01999C16.8596 4.02999 16.8696 4.02999 16.8796 4.03999C16.9896 4.10999 17.1296 4.21999 17.2696 4.31999C17.4096 4.41999 17.5396 4.51999 17.6396 4.59999C17.6296 4.66999 17.6496 4.74999 17.7096 4.79999C17.7396 4.82999 17.7896 4.84999 17.8296 4.84999L17.8396 7.62999V10.39C17.7996 10.4 17.7596 10.42 17.7296 10.46C17.6596 10.53 17.6596 10.64 17.6996 10.72L16.9896 11.32C16.8696 11.23 16.7096 11.25 16.6096 11.36C16.5096 11.48 16.5196 11.66 16.6296 11.76C16.7496 11.86 16.9296 11.85 17.0296 11.74H20.0796C20.8896 11.74 22.0696 11.68 23.0596 11.13C24.0696 10.57 24.6596 9.63999 24.8396 8.33999C25.0596 8.30999 25.2296 8.12999 25.2296 7.89999C25.2596 7.68999 25.1096 7.50999 24.9196 7.46999ZM23.6196 10.27C22.7096 11.21 21.2896 11.37 20.1096 11.37H17.1496L17.8096 10.81C17.8996 10.86 18.0196 10.84 18.0896 10.76C18.0996 10.74 18.1096 10.73 18.1196 10.71L18.5996 11C18.5996 11.04 18.6196 11.08 18.6596 11.1C18.7096 11.12 18.7596 11.1 18.7796 11.06C18.8096 11.06 18.8596 11.07 18.9096 11.08C19.1996 11.12 19.7196 11.2 20.3296 11.2C21.2196 11.2 22.2896 11.04 23.0696 10.36C23.3496 10.12 23.5696 9.82999 23.7396 9.49999L23.6196 10.27ZM18.0896 4.59999L18.6396 4.30999L17.9796 9.73999V7.64999L17.9896 4.82999C18.0096 4.81999 18.0196 4.80999 18.0296 4.78999C18.0796 4.72999 18.0996 4.66999 18.0896 4.59999ZM18.6496 5.01999V10.92L18.1396 10.61C18.1396 10.55 18.1096 10.49 18.0596 10.45C18.0396 10.43 18.0096 10.42 17.9896 10.41L18.6496 5.01999ZM23.6996 9.23999L23.1096 9.68999C23.4296 9.19999 23.5896 8.55999 23.5896 7.74999C23.5896 7.61999 23.5896 7.48999 23.5796 7.35999C23.5696 7.22999 23.5596 7.09999 23.5396 6.96999C23.5196 6.83999 23.4996 6.70999 23.4696 6.57999C23.4496 6.51999 23.4396 6.44999 23.4196 6.38999L23.3596 6.19999C23.3396 6.13999 23.3096 6.07999 23.2796 6.01999C23.2496 5.95999 23.2296 5.89999 23.1896 5.83999C23.1596 5.77999 23.1196 5.71999 23.0896 5.66999L22.9696 5.49999C22.8896 5.39999 22.7996 5.28999 22.6996 5.19999L22.6296 5.12999L22.5496 5.06999C22.4996 5.02999 22.4496 4.97999 22.3896 4.94999C22.2796 4.86999 22.1596 4.80999 22.0396 4.73999L21.8596 4.65999L21.7296 4.60999C21.7196 4.48999 21.6596 4.37999 21.5696 4.29999C22.0496 4.41999 22.5096 4.59999 22.9096 4.89999C23.6896 5.46999 24.0796 6.34999 24.0796 7.50999C24.0796 8.09999 23.9996 8.61999 23.8396 9.06999C23.7596 9.07999 23.7096 9.13999 23.7096 9.20999C23.6896 9.20999 23.6896 9.22999 23.6996 9.23999ZM20.8396 4.69999C20.8696 4.90999 21.0596 5.07999 21.2796 5.07999C21.4396 5.07999 21.5796 4.99999 21.6496 4.86999L21.7396 4.89999L21.9096 4.96999C22.0196 5.01999 22.1296 5.07999 22.2296 5.14999C22.2796 5.17999 22.3296 5.21999 22.3796 5.25999L22.5196 5.37999C22.6096 5.45999 22.6896 5.54999 22.7796 5.63999L22.8896 5.78999C22.9196 5.83999 22.9596 5.88999 22.9896 5.94999C23.0196 5.99999 23.0496 6.05999 23.0796 6.10999C23.1096 6.16999 23.1396 6.21999 23.1596 6.27999L23.2296 6.44999C23.2496 6.50999 23.2696 6.56999 23.2796 6.62999C23.3196 6.74999 23.3396 6.86999 23.3596 6.99999C23.3796 7.11999 23.3896 7.24999 23.4096 7.36999C23.4196 7.49999 23.4196 7.62999 23.4296 7.74999C23.4296 8.86999 23.1096 9.66999 22.4696 10.13C21.5696 10.78 20.2496 10.58 19.6496 10.45C19.6596 10.35 19.6296 10.25 19.5496 10.19C19.5296 10.18 19.5096 10.16 19.4996 10.15V4.89999C19.5096 4.88999 19.5296 4.87999 19.5396 4.86999C19.5696 4.82999 19.5996 4.77999 19.6096 4.73999C19.6496 4.72999 19.6896 4.72999 19.7296 4.71999C19.8496 4.69999 19.9796 4.68999 20.0996 4.68999C20.2196 4.67999 20.3496 4.67999 20.4696 4.67999C20.5896 4.67999 20.7096 4.68999 20.8396 4.69999ZM19.5796 10.62C19.5896 10.61 19.5896 10.61 19.5896 10.6C19.7996 10.65 20.0996 10.71 20.4396 10.73C20.5696 10.74 20.6896 10.75 20.8096 10.75C21.5096 10.75 22.1096 10.58 22.5496 10.26C22.6596 10.18 22.7596 10.09 22.8496 9.98999L23.6796 9.35999C23.5096 9.72999 23.2796 10.04 22.9896 10.29C21.6996 11.4 19.5996 11.09 18.9096 10.99C18.8696 10.98 18.8396 10.98 18.8196 10.98L19.2096 10.69C19.3296 10.75 19.4796 10.72 19.5796 10.62ZM20.8996 4.38999C20.8896 4.38999 20.8796 4.38999 20.8696 4.38999C20.7396 4.36999 20.5996 4.35999 20.4696 4.34999C20.3396 4.33999 20.1996 4.33999 20.0696 4.33999C19.9396 4.33999 19.7996 4.34999 19.6696 4.35999C19.5796 4.36999 19.4896 4.37999 19.3996 4.38999C19.3096 4.35999 19.2096 4.36999 19.1396 4.42999L18.8096 4.22999C19.2196 4.12999 20.1696 4.03999 21.1396 4.19999C21.0496 4.23999 20.9596 4.29999 20.8996 4.38999ZM19.0796 4.50999C18.9996 4.62999 19.0196 4.78999 19.1296 4.88999C19.1296 4.88999 19.1396 4.88999 19.1396 4.89999V10.2L19.1296 10.21C19.0196 10.33 19.0296 10.51 19.1396 10.62L18.7596 10.91V4.29999L19.0796 4.50999ZM23.7396 10.14L23.8596 9.32999C23.9296 9.31999 23.9796 9.25999 23.9796 9.18999C23.9796 9.13999 23.9596 9.09999 23.9196 9.06999C24.0796 8.60999 24.1596 8.07999 24.1596 7.48999C24.1596 6.29999 23.7496 5.38999 22.9496 4.79999C21.6096 3.80999 19.4496 3.97999 18.7796 4.13999C18.7696 4.12999 18.7596 4.11999 18.7396 4.10999C18.6896 4.08999 18.6296 4.10999 18.6096 4.15999C18.5996 4.16999 18.5996 4.18999 18.5996 4.19999L18.0496 4.48999C18.0396 4.46999 18.0296 4.45999 18.0096 4.44999C17.9596 4.40999 17.8996 4.38999 17.8396 4.39999C17.8296 4.39999 17.8296 4.38999 17.8196 4.38999C17.7196 4.30999 17.5796 4.19999 17.4496 4.08999C17.3296 3.98999 17.2196 3.88999 17.1196 3.80999L20.9296 3.84999C20.9296 3.84999 21.0196 3.85999 21.1796 3.86999C21.2496 3.87999 21.3496 3.89999 21.4596 3.91999C21.5696 3.93999 21.6896 3.96999 21.8196 4.00999C22.0796 4.07999 22.3796 4.18999 22.6796 4.34999C22.8296 4.42999 22.9796 4.50999 23.1296 4.60999C23.2696 4.70999 23.4196 4.81999 23.5496 4.93999C23.6796 5.05999 23.7996 5.18999 23.9096 5.32999C23.9696 5.39999 24.0096 5.46999 24.0596 5.53999C24.0996 5.60999 24.1496 5.67999 24.1896 5.75999C24.2296 5.82999 24.2696 5.89999 24.2896 5.97999C24.3096 6.01999 24.3196 6.04999 24.3396 6.08999C24.3496 6.12999 24.3696 6.15999 24.3796 6.19999C24.4096 6.26999 24.4296 6.33999 24.4396 6.40999C24.4596 6.47999 24.4796 6.53999 24.4896 6.60999C24.5196 6.73999 24.5296 6.85999 24.5496 6.96999C24.5596 7.07999 24.5696 7.16999 24.5696 7.24999C24.5696 7.39999 24.5696 7.48999 24.5696 7.48999C24.5696 7.50999 24.5696 7.52999 24.5696 7.53999C24.4596 7.61999 24.3796 7.74999 24.3796 7.89999C24.3796 8.02999 24.4396 8.13999 24.5196 8.22999C24.4096 9.06999 24.1296 9.68999 23.7396 10.14Z" fill="white"/>
<path d="M10.5496 10.63C10.5396 10.63 10.5396 10.63 10.5296 10.63C10.4296 10.63 10.3496 10.55 10.3496 10.45L9.51961 9.97999C9.48961 9.98999 9.45961 9.99999 9.42961 9.99999C9.40961 9.99999 9.39961 9.99999 9.37961 9.98999L9.20961 10.17C9.20961 10.18 9.21961 10.2 9.21961 10.21V10.22L10.9396 11.33L10.5496 10.63Z" fill="white"/>
<path d="M3.56961 11.49L4.01961 12.73L3.93961 12.09L3.56961 11.49Z" fill="white"/>
<path d="M8.93961 11.8C8.93961 11.81 8.94961 11.81 8.94961 11.82L10.8896 11.51C10.8896 11.5 10.8896 11.48 10.8896 11.47L9.14961 10.35L9.21961 11.37C9.21961 11.38 9.21961 11.4 9.20961 11.41L8.93961 11.8Z" fill="white"/>
<path d="M10.7896 8.41999L10.1696 9.52999C10.1796 9.54999 10.1896 9.56999 10.1896 9.58999C10.1896 9.61999 10.1796 9.64999 10.1596 9.66999L10.4896 10.26C10.4996 10.26 10.5096 10.26 10.5196 10.26C10.6196 10.26 10.6996 10.34 10.6996 10.44C10.6996 10.49 10.6796 10.53 10.6496 10.56L11.0296 11.24L10.7896 8.41999Z" fill="white"/>
<path d="M11.3796 5.45999C11.3796 5.44999 11.3796 5.42999 11.3796 5.41999L10.2696 4.67999C10.2496 4.68999 10.2196 4.69999 10.1896 4.69999C10.1096 4.69999 10.0396 4.62999 10.0396 4.54999C10.0396 4.53999 10.0396 4.52999 10.0396 4.52999L9.63961 4.25999L10.5696 5.74999L11.3796 5.45999Z" fill="white"/>
<path d="M4.58961 10.17C4.55961 10.16 4.53961 10.15 4.51961 10.13C4.51961 10.13 4.51961 10.13 4.50961 10.12L4.33961 10.17C4.33961 10.19 4.32961 10.21 4.30961 10.23L4.06961 12.05L4.51961 12.4L4.77961 11.24C4.75961 11.22 4.73961 11.19 4.73961 11.16C4.73961 11.12 4.74961 11.09 4.77961 11.06L4.58961 10.17ZM4.63961 11.15C4.63961 11.19 4.64961 11.22 4.66961 11.25L4.54961 11.79L4.51961 11.8L4.53961 10.42L4.66961 11.03C4.64961 11.06 4.63961 11.11 4.63961 11.15Z" fill="white"/>
<path d="M4.77961 2.77999C4.77961 2.83999 4.75961 2.88999 4.71961 2.92999L5.44961 4.10999L6.89961 0.919988L4.75961 2.67999C4.76961 2.70999 4.77961 2.73999 4.77961 2.77999Z" fill="white"/>
<path d="M10.1996 4.40999C10.2296 4.40999 10.2596 4.41999 10.2796 4.42999L11.2096 3.77999H10.6596C10.6496 3.79999 10.6396 3.81999 10.6196 3.83999C10.5896 3.86999 10.5396 3.88999 10.4896 3.88999C10.4396 3.88999 10.3996 3.86999 10.3596 3.83999L10.3496 3.82999L9.57961 4.06999L10.1096 4.41999C10.1396 4.41999 10.1696 4.40999 10.1996 4.40999Z" fill="white"/>
<path d="M4.51961 8.68999L4.38961 9.64999L4.52961 9.37999L4.51961 8.68999Z" fill="white"/>
<path d="M4.34961 8.51999L3.40961 10.85C3.41961 10.86 3.41961 10.86 3.41961 10.87C3.43961 10.9 3.43961 10.94 3.42961 10.97C3.42961 10.98 3.41961 11 3.40961 11.01L3.95961 11.89L4.17961 10.28C4.14961 10.28 4.11961 10.26 4.09961 10.24C4.03961 10.18 4.03961 10.09 4.09961 10.04C4.12961 10.01 4.15961 9.99999 4.19961 9.99999H4.20961L4.21961 9.97999L4.41961 8.50999C4.39961 8.50999 4.36961 8.51999 4.34961 8.51999Z" fill="white"/>
<path d="M13.1996 5.83999V5.82999L11.8096 4.78999C11.7896 4.79999 11.7596 4.80999 11.7396 4.81999L11.6496 5.30999C11.6996 5.33999 11.7396 5.39999 11.7396 5.45999C11.7396 5.48999 11.7296 5.50999 11.7196 5.52999L13.5196 7.28999C13.5296 7.28999 13.5396 7.27999 13.5496 7.27999L13.3096 5.98999C13.2496 5.96999 13.1996 5.90999 13.1996 5.83999ZM13.3996 7.01999L13.1996 6.82999L12.9396 6.22999L13.0396 5.83999L13.0996 5.88999C13.1096 5.95999 13.1596 6.02999 13.2196 6.06999L13.3996 7.01999Z" fill="white"/>
<path d="M4.90961 11.26H4.89961L4.65961 12.32L5.24961 11.64C5.23961 11.63 5.23961 11.61 5.23961 11.59C5.23961 11.57 5.23961 11.55 5.24961 11.54L4.90961 11.26ZM5.07961 11.68L4.89961 11.72L4.95961 11.44L5.12961 11.58C5.12961 11.59 5.12961 11.59 5.12961 11.6V11.61L5.07961 11.68Z" fill="white"/>
<path d="M10.0496 9.45999H10.0596L10.3796 8.87999L10.6796 8.33999C10.6696 8.32999 10.6596 8.31999 10.6596 8.31999L9.64961 8.56999C9.63961 8.59999 9.62961 8.61999 9.60961 8.63999C9.59961 8.64999 9.58961 8.65999 9.57961 8.66999L10.0196 9.46999C10.0496 9.45999 10.0496 9.45999 10.0496 9.45999Z" fill="white"/>
<path d="M10.3396 4.53999C10.3396 4.54999 10.3396 4.54999 10.3396 4.55999C10.3396 4.56999 10.3396 4.56999 10.3396 4.57999L11.4496 5.31999C11.4596 5.30999 11.4696 5.30999 11.4796 5.29999L11.3996 3.89999C11.3696 3.88999 11.3396 3.87999 11.3196 3.85999L10.3396 4.53999Z" fill="white"/>
<path d="M10.6996 7.10999L13.4196 7.41999C13.4196 7.40999 13.4296 7.38999 13.4396 7.37999L12.1696 6.13999L11.6396 5.61999C11.6196 5.62999 11.5896 5.63999 11.5596 5.63999C11.5496 5.63999 11.5396 5.63999 11.5196 5.63999L10.6596 7.02999C10.6796 7.04999 10.6996 7.07999 10.6996 7.10999Z" fill="white"/>
<path d="M11.6196 4.79999C11.6096 4.78999 11.5896 4.77999 11.5796 4.76999L11.5896 4.94999L11.6196 4.79999Z" fill="white"/>
<path d="M9.60961 8.29999L9.58961 8.36999C9.61961 8.38999 9.63961 8.40999 9.64961 8.43999L10.6396 8.19999C10.6496 8.10999 10.7196 8.03999 10.8096 8.02999H10.8196C10.8796 8.02999 10.9396 8.05999 10.9696 8.10999L12.0796 7.83999L13.0196 7.60999L9.78961 7.76999L9.60961 8.29999Z" fill="white"/>
<path d="M13.2596 5.71999L13.0896 4.78999C13.0196 4.77999 12.9596 4.73999 12.9396 4.67999C12.6096 4.68999 12.1496 4.69999 11.8996 4.70999L13.2596 5.71999Z" fill="white"/>
<path d="M11.1596 11.27C11.1696 11.27 11.1896 11.28 11.1996 11.28L13.4896 7.65999L13.4796 7.64999C13.4696 7.63999 13.4596 7.62999 13.4596 7.61999L10.9996 8.22999C10.9896 8.27999 10.9596 8.32999 10.9196 8.35999L11.0896 10.43L11.1596 11.27Z" fill="white"/>
<path d="M11.7096 4.45999C11.7796 4.45999 11.8496 4.50999 11.8796 4.56999C11.8996 4.56999 11.9096 4.56999 11.9296 4.56999C12.0496 4.56999 12.2096 4.55999 12.4096 4.55999C12.5796 4.55999 12.7396 4.54999 12.8696 4.54999L11.5596 3.84999C11.5496 3.85999 11.5396 3.86999 11.5196 3.87999L11.5596 4.53999C11.5996 4.48999 11.6496 4.45999 11.7096 4.45999Z" fill="white"/>
<path d="M9.49961 2.31999L10.4596 3.54999C10.4696 3.54999 10.4796 3.54999 10.4896 3.54999C10.5396 3.54999 10.5796 3.56999 10.6196 3.59999C10.6396 3.61999 10.6496 3.63999 10.6596 3.65999H11.2796C11.2896 3.63999 11.2996 3.61999 11.3196 3.59999C11.3296 3.58999 11.3396 3.57999 11.3596 3.56999L10.7896 1.86999H10.7796C10.7496 1.86999 10.7196 1.85999 10.6996 1.83999C10.4096 1.94999 9.79961 2.17999 9.51961 2.27999C9.50961 2.28999 9.50961 2.30999 9.49961 2.31999ZM10.6796 1.95999C10.6896 1.95999 10.6896 1.96999 10.6996 1.96999L11.0196 2.92999L10.8396 2.69999L10.6996 2.22999L10.2596 2.12999C10.4196 2.05999 10.5696 1.99999 10.6796 1.95999Z" fill="white"/>
<path d="M7.45961 5.07999L9.28961 4.06999C9.28961 4.06999 9.28961 4.06999 9.28961 4.05999C9.28961 4.02999 9.29961 4.00999 9.30961 3.97999L7.13961 0.909987L7.34961 5.00999C7.38961 5.01999 7.42961 5.04999 7.45961 5.07999Z" fill="white"/>
<path d="M7.12961 5.07999C7.15961 5.04999 7.18961 5.02999 7.21961 5.01999L7.00961 0.959988L5.53961 4.20999L7.12961 5.07999Z" fill="white"/>
<path d="M10.6196 6.36999L10.5996 6.88999L11.2896 5.77999L10.6196 6.36999Z" fill="white"/>
<path d="M9.43961 3.90999C9.47961 3.90999 9.51961 3.92999 9.54961 3.95999L10.3096 3.71999C10.3096 3.67999 10.3196 3.63999 10.3496 3.60999L9.39961 2.39999H9.37961C9.30961 2.39999 9.24961 2.33999 9.23961 2.26999C9.23961 2.25999 9.23961 2.24999 9.23961 2.23999L8.76961 1.92999C8.74961 1.93999 8.71961 1.94999 8.68961 1.94999C8.60961 1.94999 8.53961 1.87999 8.53961 1.79999C8.53961 1.78999 8.53961 1.77999 8.53961 1.77999L8.05961 1.45999L7.41961 1.02999L7.29961 0.949987L9.39961 3.90999C9.41961 3.90999 9.42961 3.90999 9.43961 3.90999Z" fill="white"/>
<path d="M10.5296 7.32999C10.4896 7.32999 10.4496 7.31999 10.4196 7.28999L9.94961 7.62999L11.6896 7.54999L12.8796 7.48999L10.6796 7.23999C10.6696 7.24999 10.6696 7.25999 10.6596 7.27999C10.6296 7.31999 10.5796 7.33999 10.5396 7.33999C10.5396 7.32999 10.5296 7.32999 10.5296 7.32999Z" fill="white"/>
<path d="M8.35961 1.36999L8.19961 1.09999C8.18961 1.09999 8.18961 1.09999 8.17961 1.09999H8.16961C8.10961 1.09999 8.05961 1.06999 8.03961 1.01999L7.64961 1.02999L8.11961 1.33999L8.35961 1.36999Z" fill="white"/>
<path d="M8.69961 1.64999C8.77961 1.64999 8.84961 1.71999 8.84961 1.79999C8.84961 1.80999 8.84961 1.81999 8.84961 1.81999L9.31961 2.12999C9.33961 2.11999 9.35961 2.10999 9.37961 2.10999H9.38961C9.42961 2.10999 9.45961 2.11999 9.47961 2.14999L10.5496 1.75999L8.61961 1.51999L8.69961 1.64999C8.68961 1.64999 8.68961 1.64999 8.69961 1.64999ZM10.0996 1.81999L9.65961 1.97999L9.04961 1.83999L8.94961 1.76999C8.94961 1.72999 8.92961 1.69999 8.91961 1.66999L10.0996 1.81999Z" fill="white"/>
<path d="M8.49961 1.58999L8.44961 1.50999L8.35961 1.49999L8.49961 1.58999Z" fill="white"/>
<path d="M4.38961 2.61999C4.42961 2.57999 4.48961 2.54999 4.54961 2.54999C4.59961 2.54999 4.63961 2.55999 4.67961 2.58999L6.34961 1.20999L2.27961 2.05999L4.35961 2.64999C4.36961 2.63999 4.37961 2.62999 4.38961 2.61999ZM5.95961 1.39999L5.56961 1.71999L3.57961 1.89999L5.95961 1.39999Z" fill="white"/>
<path d="M7.38961 12.15C7.38961 12.18 7.38961 12.21 7.36961 12.24L7.87961 12.96L7.89961 12.6C7.89961 12.59 7.89961 12.59 7.90961 12.58C7.90961 12.58 7.90961 12.58 7.90961 12.57C7.90961 12.57 7.90961 12.57 7.90961 12.56L8.60961 11.97C8.59961 11.95 8.59961 11.93 8.59961 11.91C8.59961 11.81 8.67961 11.73 8.77961 11.73C8.78961 11.73 8.80961 11.73 8.81961 11.74L9.06961 11.36L9.00961 10.35C8.95961 10.33 8.92961 10.28 8.92961 10.23C8.92961 10.16 8.98961 10.1 9.05961 10.1C9.06961 10.1 9.07961 10.1 9.09961 10.11L9.27961 9.91999C9.27961 9.90999 9.27961 9.89999 9.27961 9.88999C9.27961 9.81999 9.33961 9.75999 9.40961 9.75999C9.47961 9.75999 9.53961 9.81999 9.53961 9.88999L10.3496 10.35L10.0196 9.75999C9.94961 9.75999 9.88961 9.69999 9.88961 9.62999C9.88961 9.60999 9.89961 9.57999 9.90961 9.56999L9.44961 8.73999C9.35961 8.72999 9.28961 8.65999 9.28961 8.56999C9.28961 8.51999 9.29961 8.47999 9.32961 8.43999C9.35961 8.40999 9.39961 8.38999 9.43961 8.37999L9.51961 8.14999L9.65961 7.72999V7.71999C9.65961 7.70999 9.66961 7.70999 9.66961 7.70999C9.66961 7.70999 9.66961 7.70999 9.67961 7.70999L10.3196 7.24999C10.3196 7.23999 10.3196 7.22999 10.3196 7.21999C10.3096 7.13999 10.3696 7.05999 10.4396 7.03999L10.4596 6.39999C10.4596 6.37999 10.4696 6.36999 10.4796 6.34999L11.2296 5.69999L10.5396 5.94999C10.5296 5.94999 10.5296 5.94999 10.5196 5.94999C10.4996 5.94999 10.4796 5.93999 10.4696 5.91999L9.42961 4.25999C9.41961 4.25999 9.41961 4.25999 9.40961 4.25999C9.37961 4.25999 9.33961 4.24999 9.31961 4.22999L7.48961 5.23999C7.48961 5.25999 7.49961 5.26999 7.49961 5.28999C7.49961 5.34999 7.47961 5.40999 7.42961 5.44999C7.38961 5.48999 7.32961 5.51999 7.26961 5.51999C7.20961 5.51999 7.14961 5.49999 7.10961 5.44999C7.06961 5.40999 7.03961 5.34999 7.03961 5.28999C7.03961 5.26999 7.03961 5.25999 7.04961 5.23999L5.39961 4.34999L5.38961 4.33999C5.38961 4.33999 5.38961 4.32999 5.37961 4.32999L4.60961 2.99999C4.59961 2.99999 4.59961 2.99999 4.58961 2.99999C4.58961 3.59999 4.60961 5.12999 4.60961 5.52999C4.62961 5.53999 4.63961 5.54999 4.65961 5.55999C4.71961 5.61999 4.71961 5.70999 4.65961 5.75999C4.62961 5.78999 4.59961 5.79999 4.55961 5.79999C4.53961 5.79999 4.52961 5.79999 4.50961 5.78999L3.89961 6.34999L3.97961 6.95999C4.01961 6.96999 4.04961 6.98999 4.07961 7.01999C4.10961 7.05999 4.12961 7.09999 4.11961 7.14999C4.11961 7.16999 4.10961 7.18999 4.10961 7.20999L4.50961 7.58999C4.52961 7.57999 4.54961 7.57999 4.56961 7.57999C4.61961 7.57999 4.65961 7.59999 4.68961 7.62999C4.75961 7.69999 4.75961 7.79999 4.68961 7.86999C4.66961 7.88999 4.65961 7.89999 4.63961 7.90999L4.65961 9.38999C4.65961 9.39999 4.65961 9.40999 4.64961 9.41999L4.33961 9.99999V10.03L4.46961 9.99999C4.47961 9.96999 4.48961 9.94999 4.50961 9.91999C4.53961 9.88999 4.56961 9.87999 4.60961 9.87999C4.64961 9.87999 4.67961 9.88999 4.70961 9.91999C4.73961 9.94999 4.74961 9.97999 4.74961 10.02C4.74961 10.06 4.73961 10.09 4.70961 10.12C4.70961 10.12 4.70961 10.12 4.69961 10.13L4.88961 11.01C4.93961 11.02 4.97961 11.07 4.98961 11.13C4.98961 11.14 4.98961 11.16 4.98961 11.17L5.31961 11.45C5.33961 11.44 5.35961 11.44 5.37961 11.43H5.38961C5.46961 11.43 5.53961 11.49 5.54961 11.58C5.54961 11.61 5.53961 11.64 5.52961 11.67L6.21961 12.45L7.06961 12.15C7.06961 12.12 7.08961 12.09 7.10961 12.07C7.13961 12.04 7.17961 12.02 7.21961 12.02H7.22961C7.31961 12.01 7.38961 12.07 7.38961 12.15ZM7.23961 11.9C7.22961 11.9 7.22961 11.9 7.21961 11.9C7.14961 11.9 7.08961 11.94 7.03961 11.99C7.01961 12.01 7.00961 12.04 6.98961 12.06L6.27961 12.31L6.12961 12.19L5.63961 11.64C5.63961 11.62 5.64961 11.59 5.63961 11.57C5.62961 11.43 5.51961 11.33 5.37961 11.33C5.36961 11.33 5.36961 11.33 5.35961 11.33C5.34961 11.33 5.33961 11.33 5.32961 11.33L5.07961 11.12C5.06961 11.04 5.02961 10.98 4.96961 10.94L4.79961 10.16C4.82961 10.12 4.83961 10.07 4.83961 10.02C4.83961 9.94999 4.80961 9.88999 4.76961 9.84999C4.71961 9.79999 4.65961 9.77999 4.58961 9.77999C4.57961 9.77999 4.56961 9.77999 4.54961 9.77999L4.70961 9.46999C4.71961 9.44999 4.72961 9.41999 4.72961 9.38999L4.70961 7.96999C4.71961 7.95999 4.72961 7.95999 4.72961 7.94999C4.83961 7.83999 4.83961 7.66999 4.72961 7.55999C4.67961 7.50999 4.60961 7.47999 4.53961 7.47999C4.52961 7.47999 4.51961 7.47999 4.50961 7.47999L4.19961 7.17999C4.19961 7.16999 4.19961 7.16999 4.19961 7.15999C4.20961 7.07999 4.17961 7.00999 4.12961 6.94999C4.10961 6.91999 4.07961 6.89999 4.04961 6.88999L3.97961 6.38999L4.50961 5.89999C4.57961 5.89999 4.64961 5.87999 4.69961 5.82999C4.74961 5.77999 4.76961 5.71999 4.76961 5.65999C4.76961 5.58999 4.73961 5.52999 4.69961 5.48999C4.68961 5.47999 4.68961 5.47999 4.67961 5.47999C4.67961 5.14999 4.66961 4.43999 4.65961 3.81999L5.12961 4.09999L5.26961 4.32999L5.27961 4.33999C5.27961 4.34999 5.28961 4.34999 5.28961 4.35999C5.28961 4.35999 5.28961 4.36999 5.29961 4.36999C5.30961 4.37999 5.31961 4.37999 5.31961 4.38999L6.90961 5.24999C6.90961 5.32999 6.94961 5.40999 7.00961 5.46999C7.06961 5.52999 7.15961 5.56999 7.23961 5.56999C7.32961 5.56999 7.40961 5.53999 7.46961 5.46999C7.52961 5.40999 7.56961 5.32999 7.56961 5.23999L9.16961 4.35999L9.53961 4.61999L10.3496 5.91999C10.3796 5.96999 10.4296 5.99999 10.4896 5.99999C10.5096 5.99999 10.5296 5.99999 10.5496 5.98999L10.7196 5.92999L10.3896 6.21999C10.3596 6.24999 10.3296 6.28999 10.3296 6.33999L10.3096 6.91999C10.2396 6.96999 10.1896 7.04999 10.1796 7.14999L9.59961 7.55999H9.58961C9.57961 7.56999 9.55961 7.57999 9.53961 7.59999C9.51961 7.62999 9.50961 7.65999 9.49961 7.68999V7.69999L9.30961 8.25999C9.26961 8.27999 9.22961 8.29999 9.19961 8.33999C9.14961 8.39999 9.11961 8.46999 9.12961 8.54999C9.13961 8.66999 9.21961 8.76999 9.32961 8.79999L9.53961 9.17999L9.42961 9.65999C9.40961 9.64999 9.37961 9.64999 9.35961 9.64999C9.22961 9.64999 9.11961 9.74999 9.11961 9.87999L9.00961 9.99999C8.87961 9.99999 8.76961 10.11 8.76961 10.24C8.76961 10.31 8.79961 10.38 8.84961 10.42L8.90961 11.34L8.71961 11.63L8.70961 11.64C8.55961 11.65 8.43961 11.77 8.43961 11.92C8.43961 11.93 8.43961 11.93 8.43961 11.94L7.78961 12.49C7.78961 12.49 7.77961 12.49 7.77961 12.5C7.77961 12.5 7.77961 12.5 7.76961 12.51L7.75961 12.52C7.75961 12.52 7.75961 12.52 7.74961 12.53C7.74961 12.54 7.73961 12.54 7.73961 12.55V12.56C7.72961 12.58 7.72961 12.59 7.72961 12.61V12.63L7.62961 12.55L7.41961 12.25C7.42961 12.22 7.42961 12.2 7.42961 12.17C7.48961 12.01 7.37961 11.9 7.23961 11.9Z" fill="white"/>
<path d="M7.17961 12.31C7.15961 12.3 7.13961 12.29 7.11961 12.27L6.22961 12.58L7.17961 13.82V12.31Z" fill="white"/>
<path d="M8.02961 13.35C8.00961 13.36 7.99961 13.36 7.97961 13.36H7.96961C7.87961 13.36 7.79961 13.29 7.78961 13.19C7.78961 13.15 7.79961 13.1 7.82961 13.07L7.31961 12.35L7.32961 13.94L8.36961 13.75L8.02961 13.35Z" fill="white"/>
<path d="M8.48961 13.73L8.93961 13.64L8.16961 13.34L8.48961 13.73Z" fill="white"/>
<path d="M4.17961 13.44H4.16961C4.13961 13.44 4.10961 13.43 4.07961 13.41L3.61961 13.73L4.26961 13.78L5.90961 13.9L4.27961 13.39C4.25961 13.42 4.21961 13.43 4.17961 13.44Z" fill="white"/>
<path d="M5.33961 11.73L4.65961 12.51L6.29961 13.8L5.38961 11.74C5.36961 11.74 5.35961 11.74 5.33961 11.73Z" fill="white"/>
<path d="M8.23961 13.23L8.59961 13.37L10.6596 12.69L8.23961 13.23Z" fill="white"/>
<path d="M6.44961 13.83C6.50961 13.84 6.55961 13.88 6.56961 13.94L7.11961 13.95L5.65961 12.04L6.44961 13.83Z" fill="white"/>
<path d="M6.19961 12.54L6.20961 12.56V12.54H6.19961Z" fill="white"/>
<path d="M13.5996 7.71999L11.6996 10.72L13.0596 9.06999C13.0496 9.04999 13.0496 9.02999 13.0496 9.01999C13.0496 8.97999 13.0596 8.93999 13.0896 8.90999C13.1196 8.87999 13.1596 8.85999 13.1996 8.85999H13.2096C13.2196 8.85999 13.2296 8.85999 13.2396 8.85999L13.7296 8.25999L13.6296 7.72999C13.6196 7.71999 13.6096 7.71999 13.5996 7.71999ZM13.1996 8.73999C13.1396 8.73999 13.0896 8.75999 13.0396 8.79999L13.5696 7.95999L13.6196 8.21999L13.1996 8.73999Z" fill="white"/>
<path d="M8.46961 13.86L8.02961 13.94L8.87961 13.93L9.00961 13.75L8.46961 13.86Z" fill="white"/>
<path d="M11.3496 11.48C11.3496 11.54 11.3396 11.59 11.2996 11.64L11.7696 12.17C11.7896 12.16 11.8096 12.16 11.8196 12.16C11.8296 12.16 11.8396 12.16 11.8596 12.16L12.1196 11.48C12.0896 11.45 12.0596 11.4 12.0596 11.35C12.0596 11.25 12.1396 11.17 12.2396 11.17C12.2596 11.17 12.2896 11.17 12.3096 11.18L12.9296 10.6L12.5096 10.83L11.3496 11.48Z" fill="white"/>
<path d="M14.1096 8.20999L14.0296 7.76999C14.0896 7.68999 14.1196 7.58999 14.1196 7.48999C14.1196 7.35999 14.0696 7.23999 13.9796 7.14999C13.9596 7.12999 13.9296 7.10999 13.9096 7.08999L13.7096 6.02999C13.7396 5.96999 13.7596 5.90999 13.7596 5.83999C13.7596 5.71999 13.7096 5.60999 13.6196 5.52999L13.4796 4.79999C13.5196 4.73999 13.5396 4.65999 13.5396 4.58999C13.5396 4.34999 13.3496 4.15999 13.1096 4.15999C13.0796 4.15999 13.0396 4.15999 13.0096 4.16999L12.3996 3.83999L12.2096 3.74999L11.9596 3.60999L11.8496 3.54999C11.8296 3.49999 11.7996 3.44999 11.7596 3.40999C11.7396 3.38999 11.7196 3.36999 11.6996 3.35999L11.1696 1.78999C11.1696 1.75999 11.1796 1.72999 11.1696 1.69999C11.1496 1.49999 10.9796 1.33999 10.7796 1.33999C10.7696 1.33999 10.7596 1.33999 10.7496 1.33999C10.6996 1.33999 10.6396 1.35999 10.5996 1.37999L8.68961 1.14999L8.57961 0.969988C8.57961 0.959988 8.57961 0.949988 8.57961 0.929988C8.55961 0.729988 8.38961 0.569987 8.18961 0.569987C8.17961 0.569987 8.16961 0.569987 8.15961 0.569987C8.08961 0.579987 8.02961 0.599988 7.96961 0.639988L7.56961 0.649987L7.45961 0.579988C7.40961 0.419988 7.25961 0.299988 7.07961 0.299988C6.88961 0.299988 6.72961 0.429987 6.68961 0.619987L6.44961 0.799988L2.23961 1.67999C2.17961 1.64999 2.11961 1.63999 2.04961 1.63999C1.94961 1.63999 1.84961 1.67999 1.76961 1.73999L0.789609 1.75999C0.719609 1.69999 0.619609 1.66999 0.529609 1.66999C0.299609 1.66999 0.0996094 1.85999 0.0996094 2.09999C0.0996094 2.32999 0.289609 2.52999 0.529609 2.52999C0.569609 2.52999 0.609609 2.51999 0.639609 2.50999L1.93961 3.16999C1.93961 3.17999 1.94961 3.18999 1.95961 3.18999V7.09999C1.88961 7.17999 1.84961 7.27999 1.84961 7.37999C1.84961 7.47999 1.87961 7.56999 1.94961 7.64999L1.93961 7.85999L1.91961 9.56999C1.84961 9.64999 1.80961 9.74999 1.80961 9.84999C1.80961 9.95999 1.84961 10.06 1.91961 10.13L1.94961 12.77L0.809609 13.23C0.799609 13.23 0.779609 13.23 0.769609 13.23C0.699609 13.23 0.629609 13.25 0.559609 13.29C0.459609 13.34 0.399609 13.43 0.369609 13.54C0.339609 13.65 0.359609 13.76 0.409609 13.85C0.479609 13.98 0.619609 14.06 0.769609 14.06C0.839609 14.06 0.909609 14.04 0.969609 14.01L3.17961 14.08C3.24961 14.14 3.34961 14.18 3.44961 14.18C3.45961 14.18 3.46961 14.18 3.47961 14.18C3.55961 14.18 3.62961 14.15 3.68961 14.11L6.16961 14.3C6.23961 14.36 6.33961 14.4 6.43961 14.4C6.44961 14.4 6.45961 14.4 6.46961 14.4C6.54961 14.4 6.61961 14.37 6.67961 14.33L7.00961 14.34V14.35H7.52961V14.34L8.94961 14.31C9.04961 14.31 9.13961 14.26 9.19961 14.18L9.38961 13.92L11.7596 12.78C11.7896 12.79 11.8196 12.79 11.8496 12.79C12.0896 12.79 12.2796 12.6 12.2796 12.36C12.2796 12.32 12.2696 12.28 12.2596 12.24L12.4396 11.76C12.5896 11.69 12.6896 11.54 12.6896 11.37L13.5796 10.55L13.5896 10.54C13.5996 10.53 13.5996 10.53 13.6096 10.52V10.51C13.6196 10.5 13.6296 10.48 13.6396 10.46C13.6396 10.46 13.6396 10.45 13.6496 10.45C13.6496 10.44 13.6596 10.43 13.6596 10.42C13.6596 10.41 13.6596 10.41 13.6596 10.41C13.6596 10.4 13.6696 10.39 13.6696 10.37V10.36C13.6696 10.35 13.6696 10.34 13.6696 10.32L13.5596 9.25999C13.5996 9.18999 13.6296 9.10999 13.6196 9.01999L14.0396 8.49999C14.0996 8.38999 14.1296 8.29999 14.1096 8.20999ZM13.8496 8.30999L13.3496 8.92999C13.3596 8.94999 13.3696 8.96999 13.3696 8.99999C13.3696 9.03999 13.3596 9.07999 13.3296 9.10999C13.3196 9.11999 13.3096 9.12999 13.2996 9.13999L13.4196 10.3V10.33C13.4196 10.33 13.4196 10.34 13.4096 10.34C13.4096 10.34 13.4096 10.34 13.3996 10.35L12.4096 11.27C12.4196 11.3 12.4296 11.32 12.4296 11.35C12.4296 11.45 12.3496 11.53 12.2496 11.53H12.2396L11.9696 12.23C11.9896 12.26 11.9996 12.3 11.9996 12.34C11.9996 12.44 11.9196 12.52 11.8196 12.52C11.7796 12.52 11.7496 12.51 11.7196 12.49L9.19961 13.71L8.96961 14.03C8.95961 14.05 8.93961 14.06 8.91961 14.06L7.25961 14.09H7.23961L6.55961 14.08C6.55961 14.09 6.54961 14.1 6.53961 14.1C6.50961 14.13 6.46961 14.15 6.42961 14.15H6.41961C6.35961 14.15 6.29961 14.11 6.27961 14.06L3.57961 13.85C3.56961 13.86 3.56961 13.87 3.55961 13.88C3.52961 13.91 3.48961 13.93 3.44961 13.93H3.43961C3.36961 13.93 3.31961 13.89 3.29961 13.83L0.889609 13.76C0.879609 13.77 0.869609 13.78 0.849609 13.79C0.829609 13.8 0.799609 13.81 0.769609 13.81C0.709609 13.81 0.659609 13.78 0.629609 13.73C0.609609 13.69 0.599609 13.65 0.609609 13.61C0.619609 13.57 0.649609 13.53 0.679609 13.51C0.699609 13.5 0.729609 13.49 0.759609 13.49C0.779609 13.49 0.799609 13.5 0.819609 13.5L2.19961 12.95L2.16961 10.02C2.14961 10.01 2.12961 9.99999 2.10961 9.97999C2.07961 9.94999 2.05961 9.90999 2.05961 9.85999C2.05961 9.80999 2.07961 9.76999 2.10961 9.73999C2.12961 9.71999 2.14961 9.70999 2.16961 9.69999L2.19961 7.86999L2.20961 7.52999C2.18961 7.51999 2.16961 7.50999 2.15961 7.49999C2.12961 7.46999 2.10961 7.42999 2.10961 7.37999C2.10961 7.32999 2.12961 7.28999 2.15961 7.25999C2.17961 7.23999 2.19961 7.22999 2.21961 7.21999V3.07999C2.20961 3.06999 2.19961 3.06999 2.18961 3.04999C2.16961 3.02999 2.15961 2.99999 2.14961 2.97999L0.659609 2.21999C0.629609 2.24999 0.589609 2.25999 0.539609 2.25999C0.439609 2.25999 0.369609 2.17999 0.369609 2.08999C0.369609 1.98999 0.449609 1.91999 0.539609 1.91999C0.609609 1.91999 0.659609 1.95999 0.689609 2.00999L1.88961 1.98999C1.91961 1.92999 1.97961 1.88999 2.04961 1.88999C2.09961 1.88999 2.14961 1.90999 2.17961 1.94999L6.52961 1.03999V1.04999L6.91961 0.729987C6.91961 0.719987 6.90961 0.709987 6.90961 0.689987C6.90961 0.609987 6.97961 0.539988 7.05961 0.539988C7.13961 0.539988 7.20961 0.609987 7.20961 0.689987C7.20961 0.699987 7.20961 0.709988 7.20961 0.709988L7.47961 0.889988L8.05961 0.879988C8.05961 0.869988 8.06961 0.869987 8.06961 0.859987C8.08961 0.829987 8.12961 0.819988 8.15961 0.809988H8.16961C8.23961 0.809988 8.29961 0.869987 8.30961 0.939987C8.30961 0.959987 8.30961 0.989988 8.29961 1.00999L8.51961 1.37999L10.6596 1.63999C10.6596 1.63999 10.6596 1.62999 10.6696 1.62999C10.6896 1.59999 10.7296 1.58999 10.7596 1.57999H10.7696C10.8396 1.57999 10.8996 1.63999 10.9096 1.70999C10.9096 1.73999 10.9096 1.75999 10.8896 1.78999L11.4796 3.53999C11.5096 3.54999 11.5396 3.55999 11.5696 3.58999C11.6096 3.62999 11.6196 3.66999 11.6196 3.71999L12.9896 4.44999C13.0196 4.41999 13.0596 4.40999 13.0996 4.40999C13.1996 4.40999 13.2796 4.48999 13.2796 4.58999C13.2796 4.64999 13.2496 4.69999 13.2096 4.72999L13.3896 5.67999C13.4596 5.69999 13.5096 5.74999 13.5096 5.82999C13.5096 5.87999 13.4796 5.92999 13.4396 5.94999L13.6796 7.24999C13.7196 7.25999 13.7696 7.27999 13.7996 7.30999C13.8396 7.34999 13.8696 7.40999 13.8696 7.46999C13.8696 7.52999 13.8496 7.58999 13.7996 7.62999C13.7896 7.63999 13.7696 7.64999 13.7596 7.65999L13.8696 8.22999C13.8696 8.26999 13.8596 8.28999 13.8496 8.30999Z" fill="white"/>
<path d="M13.1596 9.14999L11.3796 11.32L12.5596 10.67L13.2796 10.27L13.1696 9.15999C13.1696 9.15999 13.1596 9.14999 13.1596 9.14999Z" fill="white"/>
<path d="M9.14961 13.59L10.9496 12.72L8.77961 13.44L9.14961 13.59Z" fill="white"/>
<path d="M11.1896 11.71C11.1696 11.72 11.1396 11.72 11.1196 11.72C11.0596 11.72 10.9996 11.7 10.9596 11.65C10.9496 11.64 10.9396 11.63 10.9296 11.62L8.96961 11.93C8.94961 12.01 8.87961 12.08 8.78961 12.08C8.75961 12.08 8.72961 12.07 8.69961 12.06L8.14961 12.53L11.6396 12.31C11.6396 12.29 11.6496 12.27 11.6596 12.25L11.4896 12.06L11.1896 11.71Z" fill="white"/>
<path d="M8.02961 12.66L8.00961 13.01C8.06961 13.03 8.10961 13.07 8.12961 13.12L11.0496 12.47L8.35961 12.64L8.02961 12.66Z" fill="white"/>
<path d="M4.47961 12.54V12.53L4.07961 12.21L4.19961 13.13C4.26961 13.14 4.31961 13.2 4.32961 13.27L6.14961 13.84L4.50961 12.54H4.47961Z" fill="white"/>
<path d="M2.32961 7.54999L2.31961 7.87999L2.29961 9.67999L3.44961 8.25999C3.43961 8.22999 3.42961 8.19999 3.42961 8.16999L2.36961 7.51999C2.35961 7.53999 2.33961 7.53999 2.32961 7.54999ZM2.41961 7.88999L2.42961 7.69999L3.31961 8.24999L2.39961 9.38999L2.41961 7.88999Z" fill="white"/>
<path d="M2.57961 7.51999L3.47961 8.07999C3.49961 8.06999 3.52961 8.05999 3.55961 8.05999C3.58961 8.05999 3.62961 8.06999 3.64961 8.08999L4.35961 7.77999L2.57961 7.51999ZM3.56961 7.94999C3.54961 7.94999 3.51961 7.94999 3.49961 7.95999L3.06961 7.69999L3.98961 7.82999L3.66961 7.96999C3.62961 7.95999 3.59961 7.94999 3.56961 7.94999Z" fill="white"/>
<path d="M3.49961 9.15999L3.73961 9.03999L3.58961 8.45999L3.48961 9.14999L3.49961 9.15999Z" fill="white"/>
<path d="M3.36961 9.12999L3.46961 8.42999L2.45961 9.66999L3.26961 9.26999C3.26961 9.22999 3.27961 9.18999 3.30961 9.15999C3.32961 9.14999 3.34961 9.13999 3.36961 9.12999ZM3.22961 9.08999C3.19961 9.11999 3.17961 9.15999 3.15961 9.20999L2.82961 9.36999L3.29961 8.78999L3.25961 9.05999C3.25961 9.06999 3.24961 9.07999 3.22961 9.08999Z" fill="white"/>
<path d="M3.82961 3.15999C3.85961 3.15999 3.88961 3.16999 3.91961 3.18999C4.05961 3.07999 4.21961 2.95999 4.33961 2.86999C4.32961 2.83999 4.31961 2.80999 4.31961 2.77999L3.29961 2.48999L2.46961 6.77999L2.76961 6.06999L3.05961 5.37999L3.73961 3.39999C3.68961 3.34999 3.68961 3.25999 3.73961 3.20999C3.75961 3.16999 3.79961 3.15999 3.82961 3.15999Z" fill="white"/>
<path d="M3.70961 8.19999C3.70961 8.22999 3.69961 8.25999 3.67961 8.27999L3.86961 9.05999C3.87961 9.08999 3.85961 9.11999 3.83961 9.12999L3.54961 9.26999C3.54961 9.30999 3.52961 9.33999 3.50961 9.35999C3.47961 9.38999 3.44961 9.39999 3.40961 9.39999C3.37961 9.39999 3.34961 9.38999 3.32961 9.37999L2.39961 9.83999C2.39961 9.86999 2.39961 9.89999 2.38961 9.91999L3.25961 10.79C3.26961 10.79 3.27961 10.78 3.29961 10.78L4.23961 8.44999C4.18961 8.38999 4.19961 8.30999 4.24961 8.25999C4.26961 8.23999 4.29961 8.21999 4.32961 8.21999L4.46961 7.87999C4.45961 7.87999 4.45961 7.86999 4.44961 7.86999L3.70961 8.19999ZM4.24961 8.13999C4.21961 8.14999 4.18961 8.16999 4.16961 8.18999C4.09961 8.25999 4.07961 8.36999 4.11961 8.45999L3.97961 8.80999L3.93961 8.87999L3.78961 8.28999C3.78961 8.27999 3.79961 8.26999 3.79961 8.26999L4.27961 8.05999L4.24961 8.13999Z" fill="white"/>
<path d="M3.94961 7.32999H3.93961C3.86961 7.32999 3.80961 7.27999 3.78961 7.21999L2.58961 7.38999L4.38961 7.64999L4.03961 7.30999C3.99961 7.31999 3.96961 7.32999 3.94961 7.32999ZM3.30961 7.38999L3.72961 7.32999C3.77961 7.38999 3.84961 7.42999 3.92961 7.42999C3.94961 7.42999 3.97961 7.42999 3.99961 7.42999L4.07961 7.49999L3.30961 7.38999Z" fill="white"/>
<path d="M2.40961 7.28999L3.76961 7.09999C3.77961 7.07999 3.78961 7.05999 3.79961 7.03999L2.99961 5.83999L2.87961 6.10999L2.39961 7.27999C2.40961 7.27999 2.40961 7.27999 2.40961 7.28999ZM2.97961 6.14999L3.01961 6.04999L3.65961 6.99999L2.56961 7.15999L2.97961 6.14999Z" fill="white"/>
<path d="M3.24961 5.96999L3.84961 6.86999L3.77961 6.36999L3.24961 5.96999Z" fill="white"/>
<path d="M2.36961 2.86999C2.41961 2.91999 2.41961 3.00999 2.36961 3.05999C2.35961 3.06999 2.34961 3.07999 2.33961 3.08999V6.76999L3.17961 2.44999L2.18961 2.16999C2.16961 2.18999 2.14961 2.20999 2.12961 2.21999L2.29961 2.82999C2.31961 2.82999 2.34961 2.84999 2.36961 2.86999Z" fill="white"/>
<path d="M1.87961 2.11999L0.749609 2.13999L2.16961 2.86999L1.99961 2.23999C1.93961 2.21999 1.89961 2.17999 1.87961 2.11999Z" fill="white"/>
<path d="M0.909609 13.6C0.909609 13.61 0.919609 13.62 0.919609 13.63L3.21961 13.7L2.25961 13.06L0.909609 13.6Z" fill="white"/>
<path d="M2.32961 12.96L2.55961 13.12L3.32961 13.62L2.29961 10.29L2.32961 12.96Z" fill="white"/>
<path d="M4.46961 2.98999C4.44961 2.97999 4.42961 2.96999 4.41961 2.95999C4.27961 3.06999 4.09961 3.20999 3.96961 3.29999C3.96961 3.32999 3.94961 3.35999 3.92961 3.38999L4.48961 5.19999C4.47961 4.60999 4.46961 3.47999 4.46961 2.98999Z" fill="white"/>
<path d="M4.01961 13.29C4.01961 13.25 4.02961 13.21 4.05961 13.18L3.28961 11.07C3.24961 11.06 3.20961 11.04 3.18961 11C3.16961 10.97 3.16961 10.93 3.17961 10.9L2.37961 10.1L3.47961 13.63C3.49961 13.63 3.52961 13.64 3.54961 13.65L4.04961 13.31C4.01961 13.3 4.01961 13.29 4.01961 13.29Z" fill="white"/>
<path d="M3.16961 5.75999L3.82961 6.24999L4.39961 5.72999L3.16961 5.75999ZM3.82961 6.11999L3.47961 5.85999L4.12961 5.83999L3.82961 6.11999Z" fill="white"/>
<path d="M4.45961 5.55999L3.82961 3.48999L3.16961 5.40999L3.07961 5.63999L4.42961 5.60999C4.43961 5.58999 4.44961 5.57999 4.45961 5.55999Z" fill="white"/>
<path d="M6.25961 7.04999L6.24961 6.60999L5.87961 6.09999L4.60961 6.05999L5.55961 6.74999L5.98961 6.69999L6.25961 7.04999Z" fill="white"/>
<path d="M8.05961 6.82999L8.11961 7.85999L8.29961 6.93999L8.47961 6.69999L8.90961 6.74999L9.85961 6.05999L8.58961 6.09999L8.05961 6.82999Z" fill="white"/>
<path d="M8.26961 9.85999L7.30961 9.20999V8.75999L8.29961 8.24999L8.14961 8.10999L7.23961 8.18999L6.31961 8.10999L6.16961 8.24999L7.15961 8.75999V9.20999L6.19961 9.85999L5.95961 9.83999L5.93961 10.25L6.80961 9.67999H7.65961L8.53961 10.25L8.51961 9.82999L8.26961 9.85999Z" fill="white"/>
<path d="M6.77961 11.23H7.67961L7.23961 10.85L6.77961 11.23Z" fill="white"/>
</svg>
