<svg width="119" height="40" viewBox="0 0 119 40" fill="none" xmlns="http://www.w3.org/2000/svg">
<path d="M6.08004 19.62C5.47004 18.3 3.56003 19.06 3.80003 20.53C3.83003 20.64 3.87003 20.75 3.91003 20.86C4.56003 22.4 6.74004 21.59 6.18004 19.88C6.18004 19.87 6.18004 19.87 6.18004 19.87C6.14004 19.79 6.11004 19.71 6.08004 19.62Z" fill="white"/>
<path d="M5.10003 15.72C4.50003 11.46 5.52003 7.46999 8.61003 4.85999C5.93003 6.94999 4.16003 8.85999 3.38003 12.27C3.07003 13.66 2.97003 15.07 3.06003 16.49C3.26003 18.14 5.35003 17.1 5.10003 15.72Z" fill="white"/>
<path d="M33.1805 30.09C33.1705 30.09 33.1605 30.09 33.1605 30.1C33.0905 30.12 33.0105 30.14 32.9405 30.15C31.1105 30.67 30.9005 33.15 32.9705 32.6C37.1805 31.09 38.8605 27.49 39.4905 23.02C38.9105 26.85 36.5005 29.25 33.1805 30.09Z" fill="white"/>
<path d="M10.38 8.18002C10.38 8.17002 10.38 8.17002 10.38 8.18002C11.03 4.49002 13.5 1.75001 17.61 1.14001C12.98 1.79001 9.28 3.57001 7.87 8.12001C7.41 9.86001 10.11 9.68002 10.38 8.18002Z" fill="white"/>
<path d="M27.6305 30.14C27.6205 30.14 27.6205 30.14 27.6105 30.14C25.4805 29.86 24.2405 32.68 26.4805 33.1C26.5005 33.1 26.5105 33.1 26.5305 33.11C28.7705 33.32 29.9705 30.71 27.9705 30.2C27.8505 30.18 27.7405 30.16 27.6305 30.14Z" fill="white"/>
<path d="M4.28023 26.86C4.86023 26.78 5.42023 26.66 5.93023 26.53C6.24023 26.45 6.56023 26.61 6.74023 26.88C7.66023 28.24 8.71023 29.52 9.87023 30.7C10.6402 31.45 11.4502 32.16 12.2902 32.82C14.0402 34.17 15.8202 32.05 13.9602 30.71C13.2102 30.12 12.4702 29.48 11.7802 28.8C10.6502 27.65 9.65023 26.41 8.77023 25.11C8.77023 25.1 8.76023 25.1 8.76023 25.1C8.70023 25.01 8.64023 24.92 8.58023 24.83C7.70023 23.63 6.52023 23.71 5.09023 24.08C4.73023 24.19 4.34023 24.29 3.95023 24.38C3.59023 24.44 3.10023 24.33 2.84023 23.76C1.31023 19.67 1.11023 15.43 2.68023 11.91C1.83023 13.76 1.24023 15.59 1.02023 17.49C0.89023 18.62 0.88023 19.78 1.02023 20.99C1.07023 21.61 1.13023 22.2 1.20023 22.73C1.34023 23.76 1.55023 24.67 1.78023 25.46C2.30023 27.02 3.69023 26.92 4.28023 26.86Z" fill="white"/>
<path d="M8.33019 32.26C7.50019 31.41 6.73019 30.5 6.03019 29.56C5.06019 28.11 3.30019 29.16 3.97019 30.3C4.04019 30.41 4.11019 30.54 4.20019 30.68C4.95019 31.83 5.82019 32.88 6.77019 33.82C7.71019 34.77 8.76019 35.64 9.91019 36.39C11.4102 37.3 11.4402 37.32 12.2702 37.71C13.0302 38.04 15.0402 39 17.8802 39.38C18.4102 39.45 19.0002 39.51 19.6202 39.56C20.8202 39.7 21.9802 39.7 23.1202 39.56C25.0202 39.34 26.8502 38.75 28.7002 37.9C22.5502 40.64 14.2102 38.02 8.33019 32.26Z" fill="white"/>
<path d="M20.6604 34.51C21.1204 33.69 21.5404 32.83 21.9004 31.92C22.3404 30.83 23.3504 28.92 20.8904 27.45C19.3604 26.5 17.9004 25.34 16.5604 24.02C15.1804 22.62 13.9704 21.07 12.9904 19.46C11.7304 17.38 10.8904 15.29 10.4604 13.29C9.98042 11.27 7.24042 12.24 7.45042 14.3C8.17042 18.58 10.6104 22.99 14.0604 26.52C15.3904 27.82 16.8504 28.98 18.3704 29.96C18.8004 30.24 18.8204 30.33 18.6904 30.67C18.3604 31.49 17.9404 32.26 17.4704 33.03C16.9604 33.84 16.3804 35.41 18.3604 36.32C21.6304 37.61 25.0704 38.07 28.3404 37.32C31.7704 36.54 33.6904 34.76 35.7804 32.07C32.3204 36.19 26.4204 36.66 20.6604 34.51Z" fill="white"/>
<path d="M31.7804 8.02998C34.2104 10.05 34.8104 12.24 33.7504 13.56C32.6904 14.88 29.7904 13.62 28.2604 12.39C26.7204 11.15 25.2304 8.71998 26.2904 7.39998C27.3604 6.07998 30.2704 6.77998 31.7804 8.02998Z" fill="white"/>
<path fill-rule="evenodd" clip-rule="evenodd" d="M47.2604 19.91C47.2604 21.14 47.2604 22.2 47.1904 22.76C47.1404 23.15 47.0704 23.44 46.8004 23.5C46.6804 23.53 46.5204 23.55 46.3204 23.55C46.1604 23.55 46.1104 23.59 46.1104 23.66C46.1104 23.75 46.2004 23.79 46.3804 23.79C46.6504 23.79 47.0004 23.76 47.3004 23.76C47.6204 23.75 47.9204 23.75 48.0604 23.75C48.4604 23.75 48.8804 23.76 49.4504 23.79C50.0304 23.8 50.7604 23.83 51.7704 23.83C52.2804 23.83 52.4004 23.83 52.4904 23.48C52.5604 23.21 52.6604 22.3 52.6604 21.99C52.6604 21.86 52.6604 21.75 52.5504 21.75C52.4604 21.75 52.4304 21.8 52.4004 21.95C52.3104 22.5 52.1504 22.78 51.8004 22.94C51.4504 23.1 50.8904 23.1 50.5404 23.1C49.1704 23.1 48.9604 22.9 48.9304 21.97C48.9204 21.58 48.9304 20.35 48.9304 19.89V18.83C48.9304 18.75 48.9404 18.7 49.0104 18.7C49.3304 18.7 50.6604 18.71 50.9104 18.74C51.4104 18.79 51.5904 18.99 51.6604 19.26C51.7004 19.43 51.7004 19.61 51.7104 19.74C51.7104 19.81 51.7404 19.86 51.8304 19.86C51.9504 19.86 51.9504 19.71 51.9504 19.61C51.9504 19.52 51.9904 18.98 52.0004 18.71C52.0504 18.03 52.1104 17.81 52.1104 17.73C52.1104 17.65 52.0704 17.62 52.0204 17.62C51.9504 17.62 51.9004 17.69 51.8104 17.79C51.6904 17.92 51.4904 17.96 51.1704 17.99C50.8604 18.02 49.3204 18.02 49.0304 18.02C48.9504 18.02 48.9404 17.97 48.9404 17.87V14.48C48.9404 14.39 48.9704 14.35 49.0304 14.35C49.3004 14.35 50.7104 14.38 50.9304 14.4C51.6004 14.48 51.7304 14.64 51.8304 14.88C51.9004 15.04 51.9104 15.27 51.9104 15.36C51.9104 15.48 51.9404 15.55 52.0304 15.55C52.1204 15.55 52.1504 15.47 52.1604 15.4C52.1904 15.24 52.2104 14.65 52.2304 14.52C52.2704 13.9 52.3404 13.74 52.3404 13.65C52.3404 13.58 52.3304 13.53 52.2604 13.53C52.1904 13.53 52.1104 13.57 52.0504 13.58C51.9404 13.61 51.7304 13.63 51.4704 13.66C51.2204 13.67 48.5504 13.67 48.1204 13.67C47.9304 13.67 47.6204 13.66 47.2804 13.64C46.9404 13.64 46.5604 13.63 46.1904 13.63C45.9904 13.63 45.9004 13.66 45.9004 13.75C45.9004 13.84 45.9804 13.87 46.1304 13.87C46.3204 13.87 46.5504 13.88 46.6504 13.91C47.0904 14 47.2004 14.22 47.2304 14.67C47.2604 15.1 47.2604 15.47 47.2604 17.51V19.91V19.91ZM54.9004 22.45C54.8304 22.91 54.7304 23.43 54.3504 23.51C54.1504 23.55 54.0604 23.55 53.9504 23.55C53.8204 23.55 53.7404 23.58 53.7404 23.64C53.7404 23.76 53.8504 23.79 53.9804 23.79C54.4104 23.79 55.0504 23.75 55.3104 23.75C55.5504 23.75 56.1504 23.79 56.7204 23.79C56.9204 23.79 57.0404 23.76 57.0404 23.64C57.0404 23.57 56.9504 23.55 56.8404 23.55C56.7104 23.55 56.5204 23.54 56.2804 23.48C56.0504 23.43 55.8804 23.31 55.8804 23.05C55.8804 22.84 55.8904 22.66 55.9204 22.42L56.6204 17.19H56.6704C57.1404 18.2 57.9404 19.78 58.0604 20.06C58.2204 20.44 59.2804 22.49 59.6004 23.1C59.8104 23.5 59.9504 23.77 60.0704 23.77C60.1904 23.77 60.2604 23.65 60.5704 23.02L63.4904 17.04H63.5404L64.3404 22.87C64.3904 23.25 64.3504 23.42 64.2704 23.45C64.1804 23.49 64.1204 23.53 64.1204 23.6C64.1204 23.68 64.2004 23.72 64.5104 23.75C65.0504 23.79 66.9004 23.82 67.2304 23.82C67.4204 23.82 67.5804 23.78 67.5804 23.67C67.5804 23.59 67.4904 23.58 67.3704 23.58C67.2004 23.58 66.9304 23.57 66.5404 23.45C66.1404 23.33 66.0004 22.94 65.8804 22.1L64.6604 13.9C64.6204 13.62 64.5404 13.49 64.4204 13.49C64.3004 13.49 64.2304 13.6 64.1304 13.81L60.4904 21.35L56.8304 13.9C56.6604 13.55 56.5804 13.49 56.4704 13.49C56.3604 13.49 56.2804 13.61 56.2404 13.84L54.9004 22.45ZM69.7104 19.91C69.7104 21.14 69.7104 22.2 69.6404 22.76C69.5904 23.15 69.5204 23.44 69.2504 23.5C69.1304 23.53 68.9704 23.55 68.7704 23.55C68.6104 23.55 68.5604 23.59 68.5604 23.66C68.5604 23.75 68.6504 23.79 68.8304 23.79C69.3704 23.79 70.2104 23.75 70.5204 23.75C70.8704 23.75 71.7104 23.79 72.6004 23.79C72.7504 23.79 72.8504 23.75 72.8504 23.66C72.8504 23.59 72.7804 23.55 72.6404 23.55C72.4404 23.55 72.1404 23.52 71.9604 23.5C71.5604 23.45 71.4804 23.15 71.4404 22.78C71.3704 22.2 71.3704 21.14 71.3704 19.91V14.55C71.3704 14.4 71.4104 14.32 71.4804 14.3C71.6004 14.26 71.8004 14.25 72.0004 14.25C72.3104 14.25 72.8604 14.33 73.3404 14.77C74.0904 15.44 74.1304 16.34 74.1304 16.78C74.1304 18.15 73.0804 18.99 72.3304 18.99C72.0504 18.99 71.9504 19.03 71.9504 19.14C71.9504 19.23 72.0404 19.25 72.1104 19.26C72.1804 19.27 72.3204 19.27 72.3904 19.27C74.2904 19.27 75.6904 17.93 75.6904 16.03C75.6904 15.32 75.3104 14.72 75.0204 14.44C74.8104 14.24 74.2004 13.68 72.5304 13.68C71.9104 13.68 71.1404 13.72 70.5904 13.72C70.2104 13.72 69.3704 13.68 68.6604 13.68C68.4604 13.68 68.3704 13.71 68.3704 13.8C68.3704 13.89 68.4504 13.92 68.6004 13.92C68.7904 13.92 69.0204 13.93 69.1204 13.96C69.5604 14.05 69.6704 14.27 69.7004 14.72C69.7304 15.15 69.7304 15.52 69.7304 17.56V19.91H69.7104ZM78.4904 19.91C78.4904 21.14 78.4904 22.2 78.4204 22.76C78.3704 23.15 78.3004 23.44 78.0304 23.5C77.9104 23.53 77.7504 23.55 77.5504 23.55C77.3904 23.55 77.3404 23.59 77.3404 23.66C77.3404 23.75 77.4304 23.79 77.6104 23.79C77.8804 23.79 78.2304 23.76 78.5304 23.76C78.8504 23.75 79.1504 23.75 79.2904 23.75C79.6904 23.75 80.1104 23.76 80.6804 23.79C81.2604 23.8 81.9904 23.83 83.0004 23.83C83.5104 23.83 83.6304 23.83 83.7204 23.48C83.7904 23.21 83.8904 22.3 83.8904 21.99C83.8904 21.86 83.8904 21.75 83.7804 21.75C83.6904 21.75 83.6604 21.8 83.6304 21.95C83.5404 22.5 83.3804 22.78 83.0304 22.94C82.6804 23.1 82.1204 23.1 81.7704 23.1C80.4004 23.1 80.1904 22.9 80.1604 21.97C80.1504 21.58 80.1604 20.35 80.1604 19.89V18.83C80.1604 18.75 80.1704 18.7 80.2404 18.7C80.5604 18.7 81.8904 18.71 82.1404 18.74C82.6404 18.79 82.8204 18.99 82.8904 19.26C82.9304 19.43 82.9304 19.61 82.9404 19.74C82.9404 19.81 82.9704 19.86 83.0604 19.86C83.1804 19.86 83.1804 19.71 83.1804 19.61C83.1804 19.52 83.2204 18.98 83.2304 18.71C83.2804 18.03 83.3404 17.81 83.3404 17.73C83.3404 17.65 83.3004 17.62 83.2504 17.62C83.1804 17.62 83.1304 17.69 83.0404 17.79C82.9204 17.92 82.7204 17.96 82.4004 17.99C82.0904 18.02 80.5504 18.02 80.2604 18.02C80.1804 18.02 80.1704 17.97 80.1704 17.87V14.48C80.1704 14.39 80.2004 14.35 80.2604 14.35C80.5304 14.35 81.9404 14.38 82.1604 14.4C82.8304 14.48 82.9604 14.64 83.0604 14.88C83.1304 15.04 83.1404 15.27 83.1404 15.36C83.1404 15.48 83.1704 15.55 83.2604 15.55C83.3504 15.55 83.3804 15.47 83.3904 15.4C83.4204 15.24 83.4404 14.65 83.4604 14.52C83.5004 13.9 83.5704 13.74 83.5704 13.65C83.5704 13.58 83.5604 13.53 83.4904 13.53C83.4204 13.53 83.3404 13.57 83.2804 13.58C83.1704 13.61 82.9604 13.63 82.7004 13.66C82.4504 13.67 79.7804 13.67 79.3504 13.67C79.1604 13.67 78.8504 13.66 78.5104 13.64C78.1704 13.64 77.7904 13.63 77.4204 13.63C77.2204 13.63 77.1304 13.66 77.1304 13.75C77.1304 13.84 77.2104 13.87 77.3604 13.87C77.5504 13.87 77.7804 13.88 77.8804 13.91C78.3204 14 78.4304 14.22 78.4604 14.67C78.4904 15.1 78.4904 15.47 78.4904 17.51V19.91V19.91ZM86.9504 19.91C86.9504 21.14 86.9504 22.2 86.8804 22.76C86.8304 23.15 86.7604 23.44 86.4904 23.5C86.3704 23.53 86.2104 23.55 86.0104 23.55C85.8504 23.55 85.8004 23.59 85.8004 23.66C85.8004 23.75 85.8904 23.79 86.0704 23.79C86.6104 23.79 87.4504 23.75 87.7004 23.75C87.9004 23.75 88.8904 23.79 89.6704 23.79C89.8404 23.79 89.9404 23.75 89.9404 23.66C89.9404 23.59 89.8904 23.55 89.7804 23.55C89.6204 23.55 89.3204 23.52 89.1204 23.5C88.7204 23.45 88.6404 23.15 88.6004 22.76C88.5304 22.2 88.5304 21.14 88.5304 19.89V19.7C88.5304 19.62 88.5704 19.59 88.6404 19.59L89.8104 19.62C89.9004 19.62 89.9804 19.63 90.0504 19.71C90.2204 19.91 90.8404 20.82 91.3804 21.56C92.1304 22.59 92.6404 23.22 93.2204 23.53C93.5704 23.72 93.9004 23.78 94.6504 23.78H95.9204C96.0804 23.78 96.1704 23.75 96.1704 23.65C96.1704 23.58 96.1204 23.54 96.0104 23.54C95.9004 23.54 95.7804 23.53 95.6304 23.5C95.4304 23.46 94.8804 23.37 94.1304 22.59C93.3404 21.76 92.4104 20.57 91.2204 19.07C92.5704 17.97 92.9904 17.06 92.9904 16.07C92.9904 15.17 92.4504 14.49 92.0804 14.23C91.3604 13.73 90.4604 13.65 89.6104 13.65C89.1904 13.65 88.1804 13.69 87.7204 13.69C87.4404 13.69 86.5904 13.65 85.8804 13.65C85.6804 13.65 85.5804 13.68 85.5804 13.77C85.5804 13.86 85.6604 13.89 85.8104 13.89C86.0004 13.89 86.2304 13.9 86.3304 13.93C86.7704 14.02 86.8804 14.24 86.9104 14.69C86.9404 15.12 86.9404 15.49 86.9404 17.53V19.91H86.9504ZM88.5404 14.53C88.5404 14.42 88.5704 14.37 88.6604 14.34C88.7904 14.3 89.0404 14.29 89.3704 14.29C90.1604 14.29 91.4204 14.84 91.4204 16.74C91.4204 17.84 91.0304 18.46 90.6304 18.75C90.3904 18.92 90.2104 18.98 89.6804 18.98C89.3404 18.98 88.9404 18.94 88.6604 18.85C88.5704 18.81 88.5404 18.76 88.5404 18.61V14.53V14.53ZM100.94 23.98C104.34 23.98 106.49 21.55 106.49 18.49C106.49 15.42 104.41 13.48 101.08 13.48C97.0604 13.48 95.5504 16.44 95.5504 18.73C95.5404 21.1 97.1004 23.98 100.94 23.98ZM101.51 23.31C98.9404 23.31 97.4004 21.1 97.4004 18.31C97.4004 14.97 99.1604 14.12 100.7 14.12C102.9 14.12 104.63 15.98 104.63 18.98C104.62 22.85 102.44 23.31 101.51 23.31ZM109.29 19.91C109.29 21.14 109.29 22.2 109.22 22.76C109.17 23.15 109.1 23.44 108.83 23.5C108.71 23.53 108.55 23.55 108.35 23.55C108.19 23.55 108.14 23.59 108.14 23.66C108.14 23.75 108.23 23.79 108.41 23.79C108.95 23.79 109.79 23.75 110.04 23.75C110.24 23.75 111.23 23.79 112.01 23.79C112.18 23.79 112.28 23.75 112.28 23.66C112.28 23.59 112.23 23.55 112.12 23.55C111.96 23.55 111.66 23.52 111.46 23.5C111.06 23.45 110.98 23.15 110.94 22.76C110.87 22.2 110.87 21.14 110.87 19.89V19.7C110.87 19.62 110.91 19.59 110.98 19.59L112.15 19.62C112.24 19.62 112.32 19.63 112.39 19.71C112.56 19.91 113.18 20.82 113.72 21.56C114.47 22.59 114.98 23.22 115.56 23.53C115.91 23.72 116.24 23.78 116.99 23.78H118.26C118.42 23.78 118.51 23.75 118.51 23.65C118.51 23.58 118.46 23.54 118.35 23.54C118.24 23.54 118.12 23.53 117.97 23.5C117.77 23.46 117.22 23.37 116.47 22.59C115.68 21.76 114.75 20.57 113.56 19.07C114.91 17.97 115.33 17.06 115.33 16.07C115.33 15.17 114.79 14.49 114.42 14.23C113.7 13.73 112.8 13.65 111.95 13.65C111.53 13.65 110.52 13.69 110.06 13.69C109.78 13.69 108.93 13.65 108.22 13.65C108.02 13.65 107.93 13.68 107.93 13.77C107.93 13.86 108.01 13.89 108.16 13.89C108.35 13.89 108.58 13.9 108.68 13.93C109.12 14.02 109.23 14.24 109.26 14.69C109.29 15.12 109.29 15.49 109.29 17.53V19.91V19.91ZM110.87 14.53C110.87 14.42 110.9 14.37 110.99 14.34C111.12 14.3 111.37 14.29 111.7 14.29C112.49 14.29 113.75 14.84 113.75 16.74C113.75 17.84 113.36 18.46 112.96 18.75C112.72 18.92 112.54 18.98 112.01 18.98C111.68 18.98 111.27 18.94 110.99 18.85C110.9 18.81 110.87 18.76 110.87 18.61V14.53V14.53Z" fill="white"/>
<path d="M61.1906 27.21V32.35H60.6506V29.98H57.4306V32.35H56.8906V27.21H57.4306V29.5H60.6506V27.21H61.1906V27.21Z" fill="white"/>
<path d="M65.1911 32.05C64.7811 31.82 64.4511 31.51 64.2211 31.11C63.9911 30.71 63.8711 30.27 63.8711 29.77C63.8711 29.27 63.9911 28.83 64.2211 28.43C64.4511 28.03 64.7811 27.72 65.1911 27.49C65.6011 27.26 66.0711 27.15 66.5711 27.15C67.0811 27.15 67.5411 27.26 67.9511 27.49C68.3611 27.72 68.6811 28.03 68.9211 28.43C69.1511 28.83 69.2711 29.28 69.2711 29.77C69.2711 30.26 69.1511 30.71 68.9211 31.11C68.6811 31.51 68.3611 31.82 67.9511 32.05C67.5411 32.28 67.0811 32.39 66.5711 32.39C66.0711 32.4 65.6111 32.28 65.1911 32.05ZM67.6811 31.64C68.0111 31.46 68.2711 31.2 68.4511 30.88C68.6411 30.55 68.7311 30.19 68.7311 29.79C68.7311 29.39 68.6411 29.02 68.4511 28.7C68.2611 28.37 68.0111 28.12 67.6811 27.94C67.3511 27.76 66.9811 27.66 66.5811 27.66C66.1711 27.66 65.8111 27.75 65.4711 27.94C65.1411 28.12 64.8811 28.38 64.6911 28.7C64.5011 29.03 64.4111 29.39 64.4111 29.79C64.4111 30.19 64.5011 30.56 64.6911 30.88C64.8811 31.21 65.1411 31.46 65.4711 31.64C65.8011 31.82 66.1711 31.92 66.5811 31.92C66.9911 31.91 67.3511 31.82 67.6811 31.64Z" fill="white"/>
<path d="M71.9609 27.21H72.5009V31.88H75.3809V32.35H71.9609V27.21Z" fill="white"/>
<path d="M77.7607 27.21H79.8507C80.3907 27.21 80.8707 27.32 81.2907 27.54C81.7107 27.76 82.0307 28.06 82.2607 28.45C82.4907 28.84 82.6107 29.28 82.6107 29.78C82.6107 30.28 82.4907 30.72 82.2607 31.11C82.0307 31.5 81.7107 31.8 81.2907 32.02C80.8707 32.24 80.3907 32.35 79.8507 32.35H77.7607V27.21ZM79.8207 31.88C80.2707 31.88 80.6607 31.79 81.0007 31.61C81.3407 31.43 81.6007 31.18 81.7907 30.87C81.9807 30.55 82.0707 30.19 82.0707 29.78C82.0707 29.37 81.9807 29.01 81.7907 28.69C81.6007 28.37 81.3407 28.13 81.0007 27.95C80.6607 27.77 80.2707 27.68 79.8207 27.68H78.3007V31.88H79.8207V31.88Z" fill="white"/>
<path d="M85.291 27.21H85.831V32.35H85.291V27.21Z" fill="white"/>
<path d="M93.2805 27.21V32.35H92.8305L89.5205 28.18V32.35H88.9805V27.21H89.4305L92.7405 31.38V27.21H93.2805V27.21Z" fill="white"/>
<path d="M100.041 29.78H100.561V31.74C100.321 31.95 100.041 32.11 99.7109 32.22C99.3809 32.33 99.0409 32.39 98.6709 32.39C98.1609 32.39 97.6909 32.28 97.2809 32.05C96.8709 31.82 96.5509 31.51 96.3109 31.11C96.0809 30.71 95.9609 30.26 95.9609 29.77C95.9609 29.28 96.0809 28.83 96.3109 28.43C96.5409 28.03 96.8709 27.72 97.2809 27.49C97.6909 27.27 98.1609 27.15 98.6809 27.15C99.0709 27.15 99.4309 27.21 99.7609 27.34C100.091 27.46 100.361 27.65 100.591 27.89L100.251 28.24C99.8409 27.84 99.3309 27.64 98.7009 27.64C98.2809 27.64 97.9109 27.73 97.5709 27.92C97.2309 28.1 96.9709 28.36 96.7809 28.68C96.5909 29.01 96.4909 29.37 96.4909 29.77C96.4909 30.17 96.5909 30.53 96.7809 30.86C96.9709 31.18 97.2309 31.44 97.5709 31.62C97.9009 31.81 98.2809 31.9 98.6909 31.9C99.2209 31.9 99.6709 31.77 100.031 31.5V29.78H100.041Z" fill="white"/>
<path d="M103.891 32.21C103.541 32.09 103.271 31.93 103.081 31.73L103.291 31.31C103.481 31.5 103.721 31.65 104.031 31.76C104.341 31.87 104.661 31.93 104.991 31.93C105.451 31.93 105.801 31.85 106.031 31.68C106.261 31.51 106.381 31.29 106.381 31.02C106.381 30.81 106.321 30.65 106.191 30.53C106.061 30.41 105.911 30.31 105.731 30.25C105.551 30.18 105.301 30.11 104.971 30.03C104.581 29.93 104.271 29.84 104.041 29.75C103.811 29.66 103.611 29.52 103.451 29.34C103.291 29.15 103.201 28.9 103.201 28.58C103.201 28.32 103.271 28.08 103.411 27.87C103.551 27.66 103.761 27.49 104.041 27.36C104.321 27.23 104.681 27.17 105.101 27.17C105.391 27.17 105.681 27.21 105.961 27.29C106.241 27.37 106.491 27.48 106.691 27.62L106.511 28.05C106.291 27.91 106.061 27.8 105.821 27.73C105.571 27.66 105.341 27.62 105.101 27.62C104.651 27.62 104.311 27.71 104.081 27.88C103.851 28.05 103.741 28.28 103.741 28.55C103.741 28.76 103.801 28.92 103.931 29.05C104.051 29.17 104.211 29.27 104.401 29.34C104.591 29.41 104.841 29.48 105.161 29.56C105.541 29.65 105.841 29.74 106.071 29.84C106.301 29.93 106.501 30.07 106.661 30.25C106.821 30.43 106.901 30.68 106.901 31C106.901 31.26 106.831 31.5 106.691 31.71C106.551 31.92 106.341 32.09 106.051 32.22C105.761 32.34 105.411 32.41 104.991 32.41C104.611 32.4 104.241 32.33 103.891 32.21Z" fill="white"/>
<path d="M20.6803 6.12997C20.2403 8.41997 23.7303 8.33997 24.3003 6.56997C24.3103 6.53997 24.3203 6.50997 24.3303 6.47997V6.46997C24.4503 6.10997 24.6303 5.76997 24.8803 5.46997C26.6103 3.36997 30.5703 4.39997 33.3803 7.20997C34.9703 8.79997 35.9903 10.76 36.1903 12.48C36.2003 12.49 36.2203 12.92 36.2203 12.94C36.4703 14.26 37.9703 15.07 37.8503 14C37.4503 11.25 35.8303 8.66997 33.8703 6.71997C31.8903 4.71997 29.3703 3.19997 26.7703 2.75997C23.3503 2.17997 21.2803 3.70997 20.6803 6.12997Z" fill="white"/>
<path d="M28.3705 2.76999C21.1105 -0.480006 15.5905 3.29999 17.1605 10.39C17.2605 10.8 17.4805 11.04 17.9305 10.85H17.9405C18.8505 10.47 19.8105 10.16 20.8505 9.93999C22.1005 9.65999 24.0305 9.12999 25.3405 11.43C25.8005 12.2 26.3805 12.94 27.0305 13.6C29.6205 16.17 33.2205 17.38 35.1505 15.68C36.0805 14.78 38.2205 16.12 37.2205 17.95C35.2205 21.25 29.2805 20.81 24.5705 16.06C23.8105 15.31 23.1605 14.52 22.6205 13.72C22.6105 13.71 22.6105 13.7 22.6005 13.69C22.3905 13.38 22.0205 13.28 21.6905 13.33C20.6205 13.54 19.6505 13.89 18.6905 14.33C18.6905 14.33 18.6905 14.33 18.6905 14.34C18.6405 14.36 18.5905 14.38 18.5405 14.4C16.0305 15.52 14.5505 14.96 13.8105 12.16C11.6305 3.61999 18.2905 -2.08001 28.3705 2.76999Z" fill="#D1D3D4"/>
<path d="M29.8304 23.36C28.3004 22.97 26.7804 22.28 25.3604 21.39C25.3304 21.37 25.3104 21.36 25.2804 21.34C25.2404 21.31 25.1904 21.28 25.1504 21.25C23.1604 20.12 20.6104 22.77 22.9004 24.28C23.0204 24.36 23.1304 24.43 23.2504 24.5C34.4004 31.44 43.6604 24.28 37.8604 12.24C41.1704 19.65 37.1704 25.24 29.8304 23.36Z" fill="#808285"/>
<path d="M20.6101 17.12C18.9901 15.55 16.2001 17.49 17.9401 19.88C20.0801 22.15 22.8301 19.61 20.9601 17.53L20.9501 17.52C20.8301 17.39 20.7201 17.26 20.6101 17.12Z" fill="#808285"/>
</svg>
