<svg width="134" height="45" viewBox="0 0 134 45" fill="none" xmlns="http://www.w3.org/2000/svg">
<path fill-rule="evenodd" clip-rule="evenodd" d="M52.2805 22.05C52.2805 23.45 52.2805 24.65 52.2005 25.29C52.1405 25.73 52.0605 26.06 51.7605 26.13C51.6205 26.16 51.4405 26.19 51.2105 26.19C51.0305 26.19 50.9705 26.24 50.9705 26.31C50.9705 26.42 51.0805 26.46 51.2705 26.46C51.5705 26.46 51.9705 26.43 52.3205 26.43C52.6805 26.41 53.0205 26.41 53.1905 26.41C53.6505 26.41 54.1205 26.43 54.7705 26.46C55.4205 26.48 56.2605 26.51 57.4005 26.51C57.9805 26.51 58.1105 26.51 58.2205 26.11C58.3005 25.81 58.4205 24.77 58.4205 24.42C58.4205 24.27 58.4205 24.15 58.3005 24.15C58.1905 24.15 58.1605 24.21 58.1305 24.38C58.0205 25 57.8405 25.32 57.4505 25.5C57.0505 25.68 56.4205 25.68 56.0205 25.68C54.4705 25.68 54.2305 25.45 54.2005 24.4C54.1805 23.96 54.2005 22.56 54.2005 22.04V20.84C54.2005 20.75 54.2205 20.69 54.2905 20.69C54.6505 20.69 56.1605 20.71 56.4505 20.74C57.0105 20.8 57.2305 21.03 57.3005 21.33C57.3505 21.53 57.3505 21.72 57.3605 21.88C57.3605 21.96 57.3905 22.02 57.5005 22.02C57.6405 22.02 57.6405 21.85 57.6405 21.73C57.6405 21.62 57.6905 21.02 57.7005 20.71C57.7605 19.93 57.8205 19.69 57.8205 19.6C57.8205 19.51 57.7705 19.48 57.7105 19.48C57.6305 19.48 57.5705 19.56 57.4705 19.68C57.3305 19.83 57.1105 19.88 56.7405 19.91C56.3905 19.94 54.6405 19.94 54.3105 19.94C54.2205 19.94 54.2005 19.88 54.2005 19.77V15.93C54.2005 15.82 54.2305 15.78 54.3105 15.78C54.6105 15.78 56.2105 15.81 56.4705 15.84C57.2305 15.93 57.3805 16.11 57.4905 16.39C57.5705 16.57 57.5805 16.83 57.5805 16.94C57.5805 17.08 57.6105 17.15 57.7205 17.15C57.8305 17.15 57.8605 17.06 57.8705 16.98C57.9005 16.8 57.9305 16.13 57.9505 15.98C58.0005 15.28 58.0705 15.1 58.0705 14.99C58.0705 14.91 58.0505 14.85 57.9805 14.85C57.9005 14.85 57.8105 14.9 57.7405 14.91C57.6205 14.94 57.3805 14.97 57.0905 15C56.8005 15.02 53.7805 15.02 53.2905 15.02C53.0805 15.02 52.7305 15 52.3305 14.99C51.9505 14.99 51.5105 14.98 51.1005 14.98C50.8705 14.98 50.7705 15.01 50.7705 15.12C50.7705 15.23 50.8605 15.26 51.0305 15.26C51.2405 15.26 51.5005 15.28 51.6205 15.31C52.1205 15.42 52.2405 15.66 52.2705 16.18C52.3005 16.67 52.3005 17.09 52.3005 19.4V22.05H52.2805ZM60.9405 24.93C60.8605 25.45 60.7405 26.04 60.3205 26.13C60.0905 26.18 59.9905 26.18 59.8605 26.18C59.7105 26.18 59.6205 26.21 59.6205 26.29C59.6205 26.43 59.7405 26.46 59.8905 26.46C60.3805 26.46 61.1105 26.41 61.3905 26.41C61.6605 26.41 62.3505 26.46 62.9905 26.46C63.2205 26.46 63.3505 26.43 63.3505 26.29C63.3505 26.21 63.2405 26.18 63.1205 26.18C62.9705 26.18 62.7605 26.16 62.4805 26.1C62.2205 26.04 62.0205 25.9 62.0205 25.61C62.0205 25.37 62.0405 25.17 62.0705 24.9L62.8605 18.97H62.9205C63.4505 20.11 64.3605 21.9 64.5005 22.22C64.6805 22.65 65.8805 24.97 66.2505 25.67C66.4905 26.13 66.6505 26.43 66.7805 26.43C66.9205 26.43 66.9905 26.29 67.3405 25.58L70.6505 18.8H70.7105L71.6205 25.41C71.6805 25.84 71.6405 26.03 71.5405 26.06C71.4305 26.11 71.3705 26.15 71.3705 26.23C71.3705 26.32 71.4605 26.37 71.8105 26.4C72.4205 26.45 74.5205 26.48 74.8905 26.48C75.1005 26.48 75.2905 26.43 75.2905 26.31C75.2905 26.22 75.1805 26.2 75.0505 26.2C74.8505 26.2 74.5505 26.19 74.1105 26.05C73.6505 25.91 73.5005 25.47 73.3705 24.51L71.9905 15.21C71.9405 14.89 71.8505 14.74 71.7205 14.74C71.5805 14.74 71.5105 14.86 71.3905 15.1L67.2605 23.66L63.1105 15.21C62.9105 14.82 62.8205 14.74 62.7005 14.74C62.5805 14.74 62.4905 14.88 62.4405 15.13L60.9405 24.93ZM77.7305 22.05C77.7305 23.45 77.7305 24.65 77.6505 25.29C77.5905 25.73 77.5105 26.06 77.2105 26.13C77.0705 26.16 76.8905 26.19 76.6605 26.19C76.4805 26.19 76.4205 26.24 76.4205 26.31C76.4205 26.42 76.5305 26.46 76.7205 26.46C77.3305 26.46 78.2905 26.41 78.6305 26.41C79.0305 26.41 79.9805 26.46 80.9905 26.46C81.1605 26.46 81.2805 26.41 81.2805 26.31C81.2805 26.23 81.2005 26.19 81.0405 26.19C80.8105 26.19 80.4805 26.16 80.2705 26.13C79.8105 26.07 79.7205 25.74 79.6805 25.31C79.6005 24.66 79.6005 23.46 79.6005 22.06V15.98C79.6005 15.81 79.6505 15.72 79.7205 15.69C79.8605 15.64 80.0805 15.63 80.3105 15.63C80.6605 15.63 81.2805 15.72 81.8305 16.22C82.6805 16.98 82.7305 18 82.7305 18.5C82.7305 20.05 81.5405 21.01 80.6905 21.01C80.3705 21.01 80.2605 21.06 80.2605 21.18C80.2605 21.29 80.3705 21.3 80.4405 21.32C80.5205 21.34 80.6805 21.34 80.7605 21.34C82.9205 21.34 84.5005 19.82 84.5005 17.66C84.5005 16.85 84.0705 16.17 83.7405 15.85C83.5005 15.62 82.8105 14.98 80.9105 14.98C80.2105 14.98 79.3305 15.03 78.7105 15.03C78.2805 15.03 77.3305 14.98 76.5205 14.98C76.2905 14.98 76.1905 15.01 76.1905 15.12C76.1905 15.23 76.2805 15.26 76.4505 15.26C76.6605 15.26 76.9205 15.28 77.0405 15.31C77.5405 15.42 77.6605 15.66 77.6905 16.18C77.7205 16.67 77.7205 17.09 77.7205 19.4V22.05H77.7305ZM87.6905 22.05C87.6905 23.45 87.6905 24.65 87.6105 25.29C87.5505 25.73 87.4705 26.06 87.1705 26.13C87.0305 26.16 86.8505 26.19 86.6205 26.19C86.4405 26.19 86.3805 26.24 86.3805 26.31C86.3805 26.42 86.4905 26.46 86.6805 26.46C86.9805 26.46 87.3805 26.43 87.7305 26.43C88.0905 26.41 88.4305 26.41 88.6005 26.41C89.0605 26.41 89.5305 26.43 90.1805 26.46C90.8305 26.48 91.6705 26.51 92.8105 26.51C93.3905 26.51 93.5205 26.51 93.6305 26.11C93.7105 25.81 93.8305 24.77 93.8305 24.42C93.8305 24.27 93.8305 24.15 93.7105 24.15C93.6005 24.15 93.5705 24.21 93.5405 24.38C93.4305 25 93.2505 25.32 92.8605 25.5C92.4705 25.68 91.8305 25.68 91.4305 25.68C89.8805 25.68 89.6405 25.45 89.6105 24.4C89.5905 23.96 89.6105 22.56 89.6105 22.04V20.84C89.6105 20.75 89.6305 20.69 89.7005 20.69C90.0605 20.69 91.5705 20.71 91.8605 20.74C92.4205 20.8 92.6305 21.03 92.7105 21.33C92.7605 21.53 92.7605 21.72 92.7705 21.88C92.7705 21.96 92.8005 22.02 92.9105 22.02C93.0505 22.02 93.0505 21.85 93.0505 21.73C93.0505 21.62 93.1005 21.02 93.1105 20.71C93.1705 19.93 93.2305 19.69 93.2305 19.6C93.2305 19.51 93.1805 19.48 93.1205 19.48C93.0405 19.48 92.9805 19.56 92.8805 19.68C92.7405 19.83 92.5205 19.88 92.1505 19.91C91.8005 19.94 90.0505 19.94 89.7205 19.94C89.6305 19.94 89.6105 19.88 89.6105 19.77V15.93C89.6105 15.82 89.6405 15.78 89.7205 15.78C90.0205 15.78 91.6205 15.81 91.8805 15.84C92.6405 15.93 92.7905 16.11 92.9005 16.39C92.9805 16.57 92.9905 16.83 92.9905 16.94C92.9905 17.08 93.0205 17.15 93.1305 17.15C93.2405 17.15 93.2705 17.06 93.2805 16.98C93.3105 16.8 93.3405 16.13 93.3605 15.98C93.4105 15.28 93.4805 15.1 93.4805 14.99C93.4805 14.91 93.4705 14.85 93.3905 14.85C93.3105 14.85 93.2205 14.9 93.1505 14.91C93.0305 14.94 92.7905 14.97 92.5005 15C92.2105 15.02 89.1905 15.02 88.7005 15.02C88.4905 15.02 88.1405 15 87.7405 14.99C87.3605 14.99 86.9205 14.98 86.5105 14.98C86.2805 14.98 86.1805 15.01 86.1805 15.12C86.1805 15.23 86.2705 15.26 86.4405 15.26C86.6505 15.26 86.9105 15.28 87.0305 15.31C87.5305 15.42 87.6505 15.66 87.6805 16.18C87.7105 16.67 87.7105 17.09 87.7105 19.4V22.05H87.6905ZM97.2905 22.05C97.2905 23.45 97.2905 24.65 97.2105 25.29C97.1505 25.73 97.0705 26.06 96.7705 26.13C96.6305 26.16 96.4505 26.19 96.2205 26.19C96.0405 26.19 95.9805 26.24 95.9805 26.31C95.9805 26.42 96.0905 26.46 96.2805 26.46C96.8905 26.46 97.8505 26.41 98.1305 26.41C98.3605 26.41 99.4805 26.46 100.361 26.46C100.561 26.46 100.661 26.41 100.661 26.31C100.661 26.23 100.601 26.19 100.481 26.19C100.301 26.19 99.9605 26.16 99.7405 26.13C99.2805 26.07 99.1905 25.74 99.1505 25.29C99.0705 24.65 99.0705 23.45 99.0705 22.04V21.83C99.0705 21.74 99.1205 21.71 99.1905 21.71L100.511 21.74C100.621 21.74 100.711 21.76 100.781 21.85C100.981 22.08 101.681 23.11 102.281 23.95C103.131 25.12 103.711 25.83 104.361 26.18C104.761 26.39 105.131 26.47 105.991 26.47H107.431C107.611 26.47 107.721 26.44 107.721 26.32C107.721 26.24 107.661 26.2 107.541 26.2C107.421 26.2 107.281 26.18 107.111 26.15C106.881 26.1 106.261 26 105.411 25.12C104.511 24.18 103.461 22.83 102.111 21.12C103.651 19.87 104.121 18.84 104.121 17.72C104.121 16.7 103.511 15.93 103.091 15.64C102.271 15.08 101.251 14.99 100.291 14.99C99.8205 14.99 98.6605 15.04 98.1505 15.04C97.8305 15.04 96.8705 14.99 96.0705 14.99C95.8405 14.99 95.7405 15.02 95.7405 15.13C95.7405 15.24 95.8305 15.27 96.0005 15.27C96.2105 15.27 96.4705 15.29 96.5905 15.32C97.0905 15.43 97.2105 15.67 97.2405 16.19C97.2705 16.68 97.2705 17.1 97.2705 19.41V22.05H97.2905ZM99.0805 15.95C99.0805 15.83 99.1105 15.77 99.2205 15.74C99.3705 15.69 99.6505 15.68 100.031 15.68C100.931 15.68 102.351 16.3 102.351 18.46C102.351 19.71 101.911 20.41 101.451 20.74C101.181 20.94 100.981 21 100.371 21C99.9905 21 99.5305 20.95 99.2105 20.85C99.1005 20.8 99.0705 20.74 99.0705 20.58V15.95H99.0805ZM113.151 26.66C117.011 26.66 119.441 23.91 119.441 20.43C119.441 16.95 117.081 14.75 113.301 14.75C108.741 14.75 107.021 18.11 107.021 20.71C107.031 23.4 108.791 26.66 113.151 26.66ZM113.791 25.9C110.871 25.9 109.121 23.39 109.121 20.23C109.121 16.45 111.111 15.47 112.861 15.47C115.351 15.47 117.311 17.58 117.311 20.99C117.321 25.39 114.861 25.9 113.791 25.9ZM122.621 22.05C122.621 23.45 122.621 24.65 122.541 25.29C122.481 25.73 122.401 26.06 122.101 26.13C121.961 26.16 121.781 26.19 121.551 26.19C121.371 26.19 121.311 26.24 121.311 26.31C121.311 26.42 121.421 26.46 121.611 26.46C122.221 26.46 123.181 26.41 123.461 26.41C123.691 26.41 124.811 26.46 125.691 26.46C125.891 26.46 125.991 26.41 125.991 26.31C125.991 26.23 125.931 26.19 125.811 26.19C125.631 26.19 125.291 26.16 125.071 26.13C124.611 26.07 124.521 25.74 124.481 25.29C124.401 24.65 124.401 23.45 124.401 22.04V21.83C124.401 21.74 124.451 21.71 124.521 21.71L125.841 21.74C125.951 21.74 126.041 21.76 126.111 21.85C126.311 22.08 127.011 23.11 127.611 23.95C128.461 25.12 129.041 25.83 129.691 26.18C130.091 26.39 130.461 26.47 131.321 26.47H132.761C132.941 26.47 133.051 26.44 133.051 26.32C133.051 26.24 132.991 26.2 132.871 26.2C132.751 26.2 132.611 26.18 132.441 26.15C132.211 26.1 131.591 26 130.741 25.12C129.841 24.18 128.791 22.83 127.441 21.12C128.971 19.87 129.451 18.84 129.451 17.72C129.451 16.7 128.841 15.93 128.421 15.64C127.601 15.08 126.581 14.99 125.621 14.99C125.151 14.99 123.991 15.04 123.481 15.04C123.161 15.04 122.201 14.99 121.401 14.99C121.171 14.99 121.071 15.02 121.071 15.13C121.071 15.24 121.161 15.27 121.331 15.27C121.541 15.27 121.801 15.29 121.921 15.32C122.421 15.43 122.541 15.67 122.571 16.19C122.601 16.68 122.601 17.1 122.601 19.41V22.05H122.621ZM124.411 15.95C124.411 15.83 124.441 15.77 124.551 15.74C124.701 15.69 124.981 15.68 125.361 15.68C126.261 15.68 127.691 16.3 127.691 18.46C127.691 19.71 127.251 20.41 126.791 20.74C126.521 20.94 126.321 21 125.711 21C125.331 21 124.871 20.95 124.561 20.85C124.451 20.8 124.421 20.74 124.421 20.58V15.95H124.411Z" fill="#211E1F"/>
<path d="M68.0704 30.3301V36.1601H67.4604V33.4701H63.8104V36.1601H63.1904V30.3301H63.8104V32.9301H67.4604V30.3301H68.0704V30.3301Z" fill="#211E1F"/>
<path d="M72.6104 35.82C72.1404 35.56 71.7704 35.21 71.5104 34.76C71.2504 34.31 71.1104 33.8 71.1104 33.24C71.1104 32.68 71.2404 32.17 71.5104 31.72C71.7704 31.27 72.1404 30.92 72.6104 30.66C73.0804 30.4 73.6004 30.27 74.1804 30.27C74.7604 30.27 75.2803 30.4 75.7403 30.65C76.2003 30.91 76.5703 31.26 76.8403 31.71C77.1103 32.16 77.2403 32.67 77.2403 33.23C77.2403 33.79 77.1103 34.3 76.8403 34.75C76.5703 35.2 76.2103 35.56 75.7403 35.81C75.2703 36.06 74.7604 36.19 74.1804 36.19C73.6104 36.21 73.0804 36.08 72.6104 35.82ZM75.4304 35.35C75.8004 35.14 76.0904 34.85 76.3004 34.48C76.5104 34.11 76.6204 33.7 76.6204 33.24C76.6204 32.78 76.5104 32.37 76.3004 32C76.0904 31.63 75.8004 31.34 75.4304 31.13C75.0604 30.92 74.6404 30.82 74.1804 30.82C73.7204 30.82 73.3004 30.92 72.9304 31.13C72.5604 31.34 72.2604 31.63 72.0504 32C71.8404 32.37 71.7304 32.78 71.7304 33.24C71.7304 33.7 71.8404 34.11 72.0504 34.48C72.2604 34.85 72.5604 35.14 72.9304 35.35C73.3004 35.56 73.7204 35.66 74.1804 35.66C74.6404 35.66 75.0604 35.55 75.4304 35.35Z" fill="#211E1F"/>
<path d="M80.29 30.3301H80.91V35.6301H84.18V36.1601H80.3V30.3301H80.29Z" fill="#211E1F"/>
<path d="M86.8604 30.3301H89.2303C89.8503 30.3301 90.3904 30.4501 90.8604 30.7001C91.3304 30.9501 91.7004 31.2901 91.9604 31.7301C92.2204 32.1701 92.3504 32.6801 92.3504 33.2401C92.3504 33.8101 92.2204 34.3101 91.9604 34.7501C91.7004 35.1901 91.3304 35.5401 90.8604 35.7801C90.3904 36.0301 89.8403 36.1501 89.2303 36.1501H86.8604V30.3301ZM89.2003 35.6301C89.7103 35.6301 90.1603 35.5301 90.5403 35.3301C90.9203 35.1301 91.2203 34.8501 91.4303 34.4901C91.6403 34.1301 91.7504 33.7201 91.7504 33.2501C91.7504 32.7801 91.6403 32.3701 91.4303 32.0101C91.2203 31.6501 90.9203 31.3701 90.5403 31.1701C90.1603 30.9701 89.7103 30.8701 89.2003 30.8701H87.4803V35.6301H89.2003V35.6301Z" fill="#211E1F"/>
<path d="M95.4102 30.3301H96.0302V36.1601H95.4102V30.3301Z" fill="#211E1F"/>
<path d="M104.46 30.3301V36.1601H103.95L100.2 31.4301V36.1601H99.5801V30.3301H100.09L103.85 35.0601V30.3301H104.46Z" fill="#211E1F"/>
<path d="M112.131 33.24H112.721V35.46C112.451 35.7 112.131 35.88 111.751 36.01C111.371 36.14 110.991 36.2 110.581 36.2C110.001 36.2 109.471 36.07 109.011 35.82C108.541 35.56 108.181 35.21 107.911 34.76C107.641 34.31 107.511 33.8 107.511 33.24C107.511 32.68 107.641 32.17 107.911 31.72C108.181 31.27 108.541 30.91 109.011 30.66C109.481 30.4 110.001 30.28 110.591 30.28C111.031 30.28 111.441 30.35 111.811 30.49C112.181 30.63 112.501 30.84 112.751 31.12L112.371 31.51C111.911 31.05 111.321 30.83 110.611 30.83C110.141 30.83 109.711 30.93 109.331 31.14C108.951 31.35 108.651 31.64 108.431 32.01C108.211 32.38 108.111 32.79 108.111 33.25C108.111 33.71 108.221 34.12 108.431 34.48C108.651 34.85 108.941 35.14 109.321 35.35C109.701 35.56 110.121 35.67 110.591 35.67C111.191 35.67 111.701 35.52 112.111 35.22V33.24H112.131Z" fill="#211E1F"/>
<path d="M116.49 36C116.09 35.86 115.79 35.68 115.57 35.45L115.81 34.98C116.02 35.19 116.3 35.36 116.65 35.49C117 35.62 117.36 35.69 117.73 35.69C118.25 35.69 118.64 35.59 118.9 35.4C119.16 35.21 119.29 34.96 119.29 34.65C119.29 34.42 119.22 34.23 119.08 34.09C118.94 33.95 118.76 33.84 118.56 33.77C118.35 33.69 118.07 33.61 117.7 33.52C117.26 33.41 116.91 33.3 116.65 33.2C116.39 33.1 116.17 32.94 115.98 32.73C115.79 32.52 115.7 32.23 115.7 31.87C115.7 31.58 115.78 31.31 115.93 31.07C116.09 30.83 116.32 30.64 116.65 30.49C116.97 30.35 117.37 30.27 117.85 30.27C118.18 30.27 118.51 30.32 118.83 30.41C119.15 30.5 119.43 30.63 119.66 30.79L119.45 31.28C119.21 31.12 118.94 31 118.67 30.92C118.39 30.84 118.12 30.8 117.85 30.8C117.34 30.8 116.95 30.9 116.7 31.1C116.44 31.3 116.31 31.55 116.31 31.86C116.31 32.09 116.38 32.28 116.52 32.42C116.66 32.56 116.84 32.67 117.05 32.74C117.26 32.81 117.55 32.9 117.91 32.99C118.34 33.1 118.68 33.2 118.95 33.3C119.22 33.4 119.44 33.56 119.62 33.77C119.8 33.98 119.89 34.26 119.89 34.62C119.89 34.91 119.81 35.18 119.65 35.42C119.49 35.66 119.25 35.85 118.92 35.99C118.59 36.13 118.19 36.2 117.71 36.2C117.31 36.21 116.89 36.14 116.49 36Z" fill="#211E1F"/>
<path fill-rule="evenodd" clip-rule="evenodd" d="M52.6301 21.68C52.6301 23.08 52.6301 24.28 52.5501 24.92C52.4901 25.36 52.4101 25.69 52.1101 25.76C51.9701 25.79 51.7901 25.82 51.5601 25.82C51.3801 25.82 51.3201 25.87 51.3201 25.94C51.3201 26.05 51.4301 26.09 51.6201 26.09C51.9201 26.09 52.3201 26.06 52.6701 26.06C53.0301 26.04 53.3701 26.04 53.5401 26.04C54.0001 26.04 54.4701 26.06 55.1201 26.09C55.7701 26.11 56.6101 26.14 57.7501 26.14C58.3301 26.14 58.4601 26.14 58.5701 25.74C58.6501 25.44 58.7701 24.4 58.7701 24.05C58.7701 23.9 58.7701 23.78 58.6501 23.78C58.5401 23.78 58.5101 23.84 58.4801 24.01C58.3701 24.63 58.1901 24.95 57.8001 25.13C57.4001 25.31 56.7701 25.31 56.3701 25.31C54.8201 25.31 54.5801 25.08 54.5501 24.03C54.5301 23.59 54.5501 22.19 54.5501 21.67V20.47C54.5501 20.38 54.5701 20.32 54.6401 20.32C55.0001 20.32 56.5101 20.34 56.8001 20.37C57.3601 20.43 57.5801 20.66 57.6501 20.96C57.7001 21.16 57.7001 21.35 57.7101 21.51C57.7101 21.59 57.7401 21.65 57.8501 21.65C57.9901 21.65 57.9901 21.48 57.9901 21.36C57.9901 21.25 58.0401 20.65 58.0501 20.34C58.1101 19.56 58.1701 19.32 58.1701 19.23C58.1701 19.14 58.1201 19.11 58.0601 19.11C57.9801 19.11 57.9201 19.19 57.8201 19.31C57.6801 19.46 57.4601 19.51 57.0901 19.54C56.7401 19.57 54.9901 19.57 54.6601 19.57C54.5701 19.57 54.5501 19.51 54.5501 19.4V15.56C54.5501 15.45 54.5801 15.41 54.6601 15.41C54.9601 15.41 56.5601 15.44 56.8201 15.47C57.5801 15.56 57.7301 15.74 57.8401 16.02C57.9201 16.2 57.9301 16.46 57.9301 16.57C57.9301 16.71 57.9601 16.78 58.0701 16.78C58.1801 16.78 58.2101 16.69 58.2201 16.61C58.2501 16.43 58.2801 15.76 58.3001 15.61C58.3501 14.91 58.4201 14.73 58.4201 14.62C58.4201 14.54 58.4001 14.48 58.3301 14.48C58.2501 14.48 58.1601 14.53 58.0901 14.54C57.9701 14.57 57.7301 14.6 57.4401 14.63C57.1501 14.65 54.1301 14.65 53.6401 14.65C53.4301 14.65 53.0801 14.63 52.6801 14.62C52.3001 14.62 51.8601 14.61 51.4501 14.61C51.2201 14.61 51.1201 14.64 51.1201 14.75C51.1201 14.86 51.2101 14.89 51.3801 14.89C51.5901 14.89 51.8501 14.91 51.9701 14.94C52.4701 15.05 52.5901 15.29 52.6201 15.81C52.6501 16.3 52.6501 16.72 52.6501 19.03V21.68H52.6301ZM61.2901 24.57C61.2101 25.09 61.0901 25.68 60.6701 25.77C60.4401 25.82 60.3401 25.82 60.2101 25.82C60.0601 25.82 59.9701 25.85 59.9701 25.93C59.9701 26.07 60.0901 26.1 60.2401 26.1C60.7301 26.1 61.4601 26.05 61.7401 26.05C62.0101 26.05 62.7001 26.1 63.3401 26.1C63.5701 26.1 63.7001 26.07 63.7001 25.93C63.7001 25.85 63.5901 25.82 63.4701 25.82C63.3201 25.82 63.1101 25.8 62.8301 25.74C62.5701 25.68 62.3701 25.54 62.3701 25.25C62.3701 25.01 62.3901 24.81 62.4201 24.54L63.2101 18.61H63.2701C63.8001 19.75 64.7101 21.54 64.8501 21.86C65.0301 22.29 66.2301 24.61 66.6001 25.31C66.8401 25.77 67.0001 26.07 67.1301 26.07C67.2701 26.07 67.3401 25.93 67.6901 25.22L71.0001 18.44H71.0601L71.9701 25.05C72.0301 25.48 71.9901 25.67 71.8901 25.7C71.7801 25.75 71.7201 25.79 71.7201 25.87C71.7201 25.96 71.8101 26.01 72.1601 26.04C72.7701 26.09 74.8701 26.12 75.2401 26.12C75.4501 26.12 75.6401 26.07 75.6401 25.95C75.6401 25.86 75.5301 25.84 75.4001 25.84C75.2001 25.84 74.9001 25.83 74.4601 25.69C74.0001 25.55 73.8501 25.11 73.7201 24.15L72.3401 14.85C72.2901 14.53 72.2001 14.38 72.0701 14.38C71.9301 14.38 71.8601 14.5 71.7401 14.74L67.6101 23.3L63.4601 14.85C63.2601 14.46 63.1701 14.38 63.0501 14.38C62.9301 14.38 62.8401 14.52 62.7901 14.77L61.2901 24.57ZM78.0801 21.68C78.0801 23.08 78.0801 24.28 78.0001 24.92C77.9401 25.36 77.8601 25.69 77.5601 25.76C77.4201 25.79 77.2401 25.82 77.0101 25.82C76.8301 25.82 76.7701 25.87 76.7701 25.94C76.7701 26.05 76.8801 26.09 77.0701 26.09C77.6801 26.09 78.6401 26.04 78.9801 26.04C79.3801 26.04 80.3301 26.09 81.3401 26.09C81.5101 26.09 81.6301 26.04 81.6301 25.94C81.6301 25.86 81.5501 25.82 81.3901 25.82C81.1601 25.82 80.8301 25.79 80.6201 25.76C80.1601 25.7 80.0701 25.37 80.0301 24.94C79.9501 24.29 79.9501 23.09 79.9501 21.69V15.6C79.9501 15.43 80.0001 15.34 80.0701 15.31C80.2101 15.26 80.4301 15.25 80.6601 15.25C81.0101 15.25 81.6301 15.34 82.1801 15.84C83.0301 16.6 83.0801 17.62 83.0801 18.12C83.0801 19.67 81.8901 20.63 81.0401 20.63C80.7201 20.63 80.6101 20.68 80.6101 20.8C80.6101 20.91 80.7201 20.92 80.7901 20.94C80.8701 20.96 81.0301 20.96 81.1101 20.96C83.2701 20.96 84.8501 19.44 84.8501 17.28C84.8501 16.47 84.4201 15.79 84.0901 15.47C83.8501 15.24 83.1601 14.6 81.2601 14.6C80.5601 14.6 79.6801 14.65 79.0601 14.65C78.6301 14.65 77.6801 14.6 76.8701 14.6C76.6401 14.6 76.5401 14.63 76.5401 14.74C76.5401 14.85 76.6301 14.88 76.8001 14.88C77.0101 14.88 77.2701 14.9 77.3901 14.93C77.8901 15.04 78.0101 15.28 78.0401 15.8C78.0701 16.29 78.0701 16.71 78.0701 19.02V21.68H78.0801ZM88.0401 21.68C88.0401 23.08 88.0401 24.28 87.9601 24.92C87.9001 25.36 87.8201 25.69 87.5201 25.76C87.3801 25.79 87.2001 25.82 86.9701 25.82C86.7901 25.82 86.7301 25.87 86.7301 25.94C86.7301 26.05 86.8401 26.09 87.0301 26.09C87.3301 26.09 87.7301 26.06 88.0801 26.06C88.4401 26.04 88.7801 26.04 88.9501 26.04C89.4101 26.04 89.8801 26.06 90.5301 26.09C91.1801 26.11 92.0201 26.14 93.1601 26.14C93.7401 26.14 93.8701 26.14 93.9801 25.74C94.0601 25.44 94.1801 24.4 94.1801 24.05C94.1801 23.9 94.1801 23.78 94.0601 23.78C93.9501 23.78 93.9201 23.84 93.8901 24.01C93.7801 24.63 93.6001 24.95 93.2101 25.13C92.8201 25.31 92.1801 25.31 91.7801 25.31C90.2301 25.31 89.9901 25.08 89.9601 24.03C89.9401 23.59 89.9601 22.19 89.9601 21.67V20.47C89.9601 20.38 89.9801 20.32 90.0501 20.32C90.4101 20.32 91.9201 20.34 92.2101 20.37C92.7701 20.43 92.9801 20.66 93.0601 20.96C93.1101 21.16 93.1101 21.35 93.1201 21.51C93.1201 21.59 93.1501 21.65 93.2601 21.65C93.4001 21.65 93.4001 21.48 93.4001 21.36C93.4001 21.25 93.4501 20.65 93.4601 20.34C93.5201 19.56 93.5801 19.32 93.5801 19.23C93.5801 19.14 93.5301 19.11 93.4701 19.11C93.3901 19.11 93.3301 19.19 93.2301 19.31C93.0901 19.46 92.8701 19.51 92.5001 19.54C92.1501 19.57 90.4001 19.57 90.0701 19.57C89.9801 19.57 89.9601 19.51 89.9601 19.4V15.56C89.9601 15.45 89.9901 15.41 90.0701 15.41C90.3701 15.41 91.9701 15.44 92.2301 15.47C92.9901 15.56 93.1401 15.74 93.2501 16.02C93.3301 16.2 93.3401 16.46 93.3401 16.57C93.3401 16.71 93.3701 16.78 93.4801 16.78C93.5901 16.78 93.6201 16.69 93.6301 16.61C93.6601 16.43 93.6901 15.76 93.7101 15.61C93.7601 14.91 93.8301 14.73 93.8301 14.62C93.8301 14.54 93.8201 14.48 93.7401 14.48C93.6601 14.48 93.5701 14.53 93.5001 14.54C93.3801 14.57 93.1401 14.6 92.8501 14.63C92.5601 14.65 89.5401 14.65 89.0501 14.65C88.8401 14.65 88.4901 14.63 88.0901 14.62C87.7101 14.62 87.2701 14.61 86.8601 14.61C86.6301 14.61 86.5301 14.64 86.5301 14.75C86.5301 14.86 86.6201 14.89 86.7901 14.89C87.0001 14.89 87.2601 14.91 87.3801 14.94C87.8801 15.05 88.0001 15.29 88.0301 15.81C88.0601 16.3 88.0601 16.72 88.0601 19.03V21.68H88.0401ZM97.6401 21.68C97.6401 23.08 97.6401 24.28 97.5601 24.92C97.5001 25.36 97.4201 25.69 97.1201 25.76C96.9801 25.79 96.8001 25.82 96.5701 25.82C96.3901 25.82 96.3301 25.87 96.3301 25.94C96.3301 26.05 96.4401 26.09 96.6301 26.09C97.2401 26.09 98.2001 26.04 98.4801 26.04C98.7101 26.04 99.8301 26.09 100.71 26.09C100.91 26.09 101.01 26.04 101.01 25.94C101.01 25.86 100.95 25.82 100.83 25.82C100.65 25.82 100.31 25.79 100.09 25.76C99.6301 25.7 99.5401 25.37 99.5001 24.92C99.4201 24.28 99.4201 23.08 99.4201 21.67V21.46C99.4201 21.37 99.4701 21.34 99.5401 21.34L100.86 21.37C100.97 21.37 101.06 21.39 101.13 21.48C101.33 21.71 102.03 22.74 102.63 23.58C103.48 24.75 104.06 25.46 104.71 25.81C105.11 26.02 105.48 26.1 106.34 26.1H107.78C107.96 26.1 108.07 26.07 108.07 25.95C108.07 25.87 108.01 25.83 107.89 25.83C107.77 25.83 107.63 25.81 107.46 25.78C107.23 25.73 106.61 25.63 105.76 24.75C104.86 23.81 103.81 22.46 102.46 20.75C104 19.5 104.47 18.47 104.47 17.35C104.47 16.33 103.86 15.56 103.44 15.27C102.62 14.71 101.6 14.62 100.64 14.62C100.17 14.62 99.0101 14.67 98.5001 14.67C98.1801 14.67 97.2201 14.62 96.4201 14.62C96.1901 14.62 96.0901 14.65 96.0901 14.76C96.0901 14.87 96.1801 14.9 96.3501 14.9C96.5601 14.9 96.8201 14.92 96.9401 14.95C97.4401 15.06 97.5601 15.3 97.5901 15.82C97.6201 16.31 97.6201 16.73 97.6201 19.04V21.68H97.6401ZM99.4301 15.58C99.4301 15.46 99.4601 15.4 99.5701 15.37C99.7201 15.32 100 15.31 100.38 15.31C101.28 15.31 102.7 15.93 102.7 18.09C102.7 19.34 102.26 20.04 101.8 20.37C101.53 20.57 101.33 20.63 100.72 20.63C100.34 20.63 99.8801 20.58 99.5601 20.48C99.4501 20.43 99.4201 20.37 99.4201 20.21V15.58H99.4301ZM113.5 26.3C117.36 26.3 119.79 23.55 119.79 20.07C119.79 16.59 117.43 14.39 113.65 14.39C109.09 14.39 107.37 17.75 107.37 20.35C107.38 23.03 109.14 26.3 113.5 26.3ZM114.14 25.54C111.22 25.54 109.47 23.03 109.47 19.87C109.47 16.09 111.46 15.11 113.21 15.11C115.7 15.11 117.66 17.22 117.66 20.63C117.67 25.02 115.21 25.54 114.14 25.54ZM122.97 21.68C122.97 23.08 122.97 24.28 122.89 24.92C122.83 25.36 122.75 25.69 122.45 25.76C122.31 25.79 122.13 25.82 121.9 25.82C121.72 25.82 121.66 25.87 121.66 25.94C121.66 26.05 121.77 26.09 121.96 26.09C122.57 26.09 123.53 26.04 123.81 26.04C124.04 26.04 125.16 26.09 126.04 26.09C126.24 26.09 126.34 26.04 126.34 25.94C126.34 25.86 126.28 25.82 126.16 25.82C125.98 25.82 125.64 25.79 125.42 25.76C124.96 25.7 124.87 25.37 124.83 24.92C124.75 24.28 124.75 23.08 124.75 21.67V21.46C124.75 21.37 124.8 21.34 124.87 21.34L126.19 21.37C126.3 21.37 126.39 21.39 126.46 21.48C126.66 21.71 127.36 22.74 127.96 23.58C128.81 24.75 129.39 25.46 130.04 25.81C130.44 26.02 130.81 26.1 131.67 26.1H133.11C133.29 26.1 133.4 26.07 133.4 25.95C133.4 25.87 133.34 25.83 133.22 25.83C133.1 25.83 132.96 25.81 132.79 25.78C132.56 25.73 131.94 25.63 131.09 24.75C130.19 23.81 129.14 22.46 127.79 20.75C129.32 19.5 129.8 18.47 129.8 17.35C129.8 16.33 129.19 15.56 128.77 15.27C127.95 14.71 126.93 14.62 125.97 14.62C125.5 14.62 124.34 14.67 123.83 14.67C123.51 14.67 122.55 14.62 121.75 14.62C121.52 14.62 121.42 14.65 121.42 14.76C121.42 14.87 121.51 14.9 121.68 14.9C121.89 14.9 122.15 14.92 122.27 14.95C122.77 15.06 122.89 15.3 122.92 15.82C122.95 16.31 122.95 16.73 122.95 19.04V21.68H122.97ZM124.76 15.58C124.76 15.46 124.79 15.4 124.9 15.37C125.05 15.32 125.33 15.31 125.71 15.31C126.61 15.31 128.04 15.93 128.04 18.09C128.04 19.34 127.6 20.04 127.14 20.37C126.87 20.57 126.67 20.63 126.06 20.63C125.68 20.63 125.22 20.58 124.91 20.48C124.8 20.43 124.77 20.37 124.77 20.21V15.58H124.76Z" fill="url(#paint0_linear)"/>
<path d="M68.42 29.96V35.79H67.81V33.1H64.16V35.79H63.54V29.96H64.16V32.56H67.81V29.96H68.42V29.96Z" fill="#CBA960"/>
<path d="M72.96 35.46C72.49 35.2 72.12 34.85 71.86 34.4C71.6 33.95 71.46 33.44 71.46 32.88C71.46 32.32 71.59 31.81 71.86 31.36C72.12 30.91 72.49 30.56 72.96 30.3C73.43 30.04 73.95 29.91 74.53 29.91C75.11 29.91 75.63 30.04 76.09 30.29C76.55 30.55 76.92 30.9 77.19 31.35C77.46 31.8 77.59 32.31 77.59 32.87C77.59 33.43 77.46 33.94 77.19 34.39C76.92 34.84 76.56 35.2 76.09 35.45C75.63 35.71 75.11 35.83 74.53 35.83C73.96 35.84 73.43 35.71 72.96 35.46ZM75.78 34.98C76.15 34.77 76.44 34.48 76.65 34.11C76.86 33.74 76.97 33.33 76.97 32.87C76.97 32.41 76.86 32 76.65 31.63C76.44 31.26 76.15 30.97 75.78 30.76C75.41 30.55 74.99 30.45 74.53 30.45C74.07 30.45 73.65 30.55 73.28 30.76C72.91 30.97 72.61 31.26 72.4 31.63C72.19 32 72.08 32.41 72.08 32.87C72.08 33.33 72.19 33.74 72.4 34.11C72.61 34.48 72.91 34.77 73.28 34.98C73.66 35.19 74.07 35.29 74.53 35.29C74.99 35.29 75.41 35.19 75.78 34.98Z" fill="#CBA960"/>
<path d="M80.6396 29.96H81.2597V35.26H84.5296V35.79H80.6497V29.96H80.6396Z" fill="#CBA960"/>
<path d="M87.21 29.96H89.58C90.2 29.96 90.74 30.08 91.21 30.33C91.68 30.58 92.05 30.92 92.31 31.36C92.57 31.8 92.7 32.31 92.7 32.87C92.7 33.44 92.57 33.94 92.31 34.38C92.05 34.82 91.68 35.17 91.21 35.41C90.74 35.66 90.19 35.78 89.58 35.78H87.21V29.96ZM89.55 35.26C90.06 35.26 90.51 35.16 90.89 34.96C91.27 34.76 91.57 34.48 91.78 34.12C91.99 33.76 92.1 33.35 92.1 32.88C92.1 32.41 92 32 91.78 31.64C91.57 31.28 91.27 31 90.89 30.8C90.51 30.6 90.06 30.5 89.55 30.5H87.83V35.26H89.55Z" fill="#CBA960"/>
<path d="M95.7598 29.96H96.3798V35.79H95.7598V29.96Z" fill="#CBA960"/>
<path d="M104.81 29.96V35.79H104.3L100.55 31.06V35.79H99.9297V29.96H100.44L104.2 34.69V29.96H104.81V29.96Z" fill="#CBA960"/>
<path d="M112.48 32.88H113.07V35.1C112.8 35.34 112.48 35.52 112.1 35.65C111.72 35.78 111.34 35.84 110.93 35.84C110.35 35.84 109.82 35.71 109.36 35.46C108.89 35.2 108.53 34.85 108.26 34.4C107.99 33.95 107.86 33.44 107.86 32.88C107.86 32.32 107.99 31.81 108.26 31.36C108.53 30.91 108.89 30.55 109.36 30.3C109.83 30.04 110.35 29.92 110.94 29.92C111.38 29.92 111.79 29.99 112.16 30.13C112.53 30.27 112.85 30.48 113.1 30.76L112.72 31.15C112.26 30.69 111.67 30.47 110.96 30.47C110.49 30.47 110.06 30.57 109.68 30.78C109.3 30.99 109 31.28 108.78 31.65C108.56 32.02 108.46 32.43 108.46 32.89C108.46 33.35 108.57 33.76 108.78 34.12C109 34.49 109.29 34.78 109.67 34.99C110.05 35.2 110.47 35.31 110.94 35.31C111.54 35.31 112.05 35.16 112.46 34.86V32.88H112.48Z" fill="#CBA960"/>
<path d="M116.84 35.63C116.44 35.49 116.14 35.31 115.92 35.08L116.16 34.61C116.37 34.82 116.65 34.99 117 35.12C117.35 35.25 117.71 35.32 118.08 35.32C118.6 35.32 118.99 35.22 119.25 35.03C119.51 34.84 119.64 34.59 119.64 34.28C119.64 34.05 119.57 33.86 119.43 33.72C119.29 33.58 119.11 33.47 118.91 33.4C118.7 33.32 118.42 33.24 118.05 33.15C117.61 33.04 117.26 32.93 117 32.83C116.74 32.73 116.52 32.57 116.33 32.36C116.14 32.15 116.05 31.86 116.05 31.5C116.05 31.21 116.13 30.94 116.28 30.7C116.44 30.46 116.67 30.27 117 30.12C117.32 29.98 117.72 29.9 118.2 29.9C118.53 29.9 118.86 29.95 119.18 30.04C119.5 30.13 119.78 30.26 120.01 30.42L119.8 30.91C119.56 30.75 119.29 30.63 119.02 30.55C118.74 30.47 118.47 30.43 118.2 30.43C117.69 30.43 117.3 30.53 117.05 30.73C116.79 30.93 116.66 31.18 116.66 31.49C116.66 31.72 116.73 31.91 116.87 32.05C117.01 32.19 117.19 32.3 117.4 32.37C117.61 32.44 117.9 32.53 118.26 32.62C118.69 32.73 119.03 32.83 119.3 32.93C119.56 33.03 119.79 33.19 119.97 33.4C120.15 33.61 120.24 33.89 120.24 34.25C120.24 34.54 120.16 34.81 120 35.05C119.84 35.29 119.6 35.48 119.27 35.62C118.94 35.76 118.54 35.83 118.06 35.83C117.66 35.84 117.24 35.77 116.84 35.63Z" fill="#CBA960"/>
<path d="M22.4898 6.06007C21.9898 8.66007 25.9498 8.57006 26.5998 6.55006C26.6098 6.52006 26.6198 6.48006 26.6298 6.45006V6.44006C26.7698 6.03006 26.9698 5.64006 27.2598 5.30006C29.2198 2.92006 33.7098 4.09006 36.8998 7.27006C38.6998 9.08006 39.8598 11.3001 40.0898 13.2401C40.0998 13.2601 40.1298 13.7401 40.1298 13.7601C40.4198 15.2601 42.1198 16.1701 41.9698 14.9601C41.5098 11.8401 39.6798 8.92006 37.4498 6.71006C35.1998 4.44006 32.3498 2.71007 29.3998 2.22007C25.5098 1.58007 23.1598 3.31007 22.4898 6.06007Z" fill="#8C9091"/>
<path d="M31.2003 2.24001C22.9603 -1.44999 16.7103 2.85001 18.4903 10.88C18.6003 11.35 18.8603 11.62 19.3603 11.4H19.3703C20.4003 10.97 21.4903 10.61 22.6703 10.37C24.0903 10.05 26.2803 9.45001 27.7703 12.06C28.2903 12.93 28.9403 13.77 29.6903 14.52C32.6303 17.43 36.7103 18.81 38.9003 16.88C39.9603 15.86 42.3803 17.38 41.2403 19.46C38.9703 23.2 32.2403 22.71 26.8903 17.32C26.0303 16.46 25.2903 15.57 24.6803 14.67C24.6703 14.66 24.6603 14.65 24.6603 14.64C24.4203 14.29 24.0103 14.18 23.6203 14.24C22.4103 14.48 21.3103 14.88 20.2103 15.37C20.2103 15.37 20.2103 15.37 20.2103 15.38C20.1603 15.4 20.1003 15.42 20.0403 15.45C17.1903 16.72 15.5203 16.08 14.6803 12.91C12.2203 3.21001 19.7703 -3.25999 31.2003 2.24001Z" fill="#7E2A18"/>
<path d="M32.86 25.6C31.12 25.16 29.4 24.38 27.79 23.36C27.76 23.34 27.73 23.32 27.7 23.3C27.65 23.27 27.6 23.24 27.55 23.2C25.3 21.92 22.4 24.93 25 26.64C25.13 26.73 25.26 26.81 25.4 26.89C38.04 34.77 48.54 26.64 41.97 12.99C45.72 21.39 41.18 27.73 32.86 25.6Z" fill="#1F4696"/>
<path d="M5.92022 21.36C5.23022 19.86 3.06022 20.72 3.34022 22.4C3.38022 22.53 3.42022 22.65 3.46022 22.78C4.19022 24.52 6.67022 23.61 6.03022 21.67C6.03022 21.66 6.03022 21.66 6.02022 21.65C5.99022 21.55 5.96022 21.45 5.92022 21.36Z" fill="#CBA960"/>
<path d="M4.01991 29.52C4.67991 29.43 5.29991 29.3 5.88991 29.15C6.23991 29.06 6.59991 29.24 6.80991 29.55C7.84991 31.08 9.03991 32.53 10.3399 33.86C11.2099 34.71 12.1199 35.51 13.0799 36.25C15.0499 37.77 17.0699 35.38 14.9599 33.87C14.1099 33.2 13.2799 32.49 12.4899 31.72C11.2199 30.42 10.0799 29.02 9.09991 27.56C9.09991 27.55 9.08991 27.55 9.08991 27.54C9.01991 27.44 8.94991 27.34 8.88991 27.23C7.89991 25.87 6.55991 25.97 4.94991 26.38C4.53991 26.5 4.09991 26.62 3.65991 26.71C3.25991 26.77 2.69991 26.66 2.39991 26.01C0.669914 21.4 0.449914 16.61 2.21991 12.63C1.25991 14.72 0.599913 16.79 0.339913 18.93C0.189913 20.21 0.179913 21.52 0.339913 22.88C0.389913 23.58 0.459914 24.24 0.539914 24.84C0.689914 26 0.939914 27.03 1.19991 27.92C1.77991 29.7 3.34991 29.59 4.01991 29.52Z" fill="#CBA960"/>
<path d="M8.57999 35.62C7.63999 34.66 6.76999 33.64 5.98999 32.58C4.89999 30.94 2.90999 32.13 3.65999 33.42C3.73999 33.55 3.81998 33.69 3.91998 33.84C4.76998 35.14 5.74999 36.33 6.81999 37.39C7.87999 38.46 9.06998 39.44 10.37 40.29C12.06 41.31 12.09 41.33 13.03 41.78C13.89 42.15 16.16 43.24 19.36 43.67C19.96 43.75 20.62 43.82 21.32 43.87C22.68 44.03 23.99 44.02 25.27 43.87C27.42 43.62 29.48 42.96 31.57 41.99C24.63 45.08 15.22 42.12 8.57999 35.62Z" fill="#CBA960"/>
<path d="M4.80955 16.93C4.12955 12.1 5.28954 7.57999 8.79954 4.60999C5.75954 6.97999 3.74954 9.13998 2.86954 13.01C2.50954 14.58 2.39954 16.19 2.50954 17.8C2.72954 19.67 5.08955 18.5 4.80955 16.93Z" fill="#CBA960"/>
<path d="M22.5003 38.15C23.0203 37.22 23.4903 36.26 23.9003 35.23C24.4003 34 25.5303 31.85 22.7603 30.19C21.0303 29.11 19.3803 27.81 17.8803 26.32C16.3203 24.74 14.9603 22.99 13.8503 21.17C12.4303 18.83 11.4803 16.46 10.9903 14.21C10.4503 11.93 7.36033 13.02 7.59033 15.35C8.40033 20.18 11.1503 25.16 15.0603 29.15C16.5603 30.62 18.2103 31.93 19.9303 33.03C20.4203 33.35 20.4303 33.45 20.2903 33.83C19.9103 34.76 19.4503 35.62 18.9103 36.49C18.3303 37.41 17.6803 39.17 19.9203 40.2C23.6103 41.66 27.5003 42.17 31.1903 41.33C35.0603 40.45 37.2303 38.44 39.5903 35.4C35.6603 40.05 29.0003 40.59 22.5003 38.15Z" fill="#CBA960"/>
<path d="M36.6605 33.23C36.6505 33.23 36.6405 33.23 36.6305 33.24C36.5505 33.26 36.4605 33.28 36.3805 33.3C34.3105 33.89 34.0605 36.71 36.4205 36.08C41.1905 34.37 43.1005 30.28 43.8105 25.21C43.1605 29.55 40.4205 32.28 36.6605 33.23Z" fill="url(#paint1_linear)"/>
<path d="M10.7999 8.38002C11.5399 4.20002 14.3399 1.09002 18.9999 0.400024C13.7499 1.13002 9.54991 3.16002 7.95991 8.32002C7.43991 10.29 10.4899 10.08 10.7999 8.38002Z" fill="#CBA960"/>
<path d="M30.37 33.29C30.36 33.29 30.35 33.29 30.35 33.29C27.93 32.98 26.53 36.17 29.07 36.65C29.09 36.65 29.11 36.65 29.12 36.66C31.66 36.9 33.03 33.94 30.75 33.36C30.62 33.33 30.49 33.31 30.37 33.29Z" fill="#CBA960"/>
<path d="M32.6396 9.39995L34.6497 11.02C34.5897 10.65 34.3197 10.22 33.9097 9.88995C33.4897 9.55995 33.0196 9.38995 32.6396 9.39995Z" fill="#CBA960"/>
<path d="M3.89003 29.56C4.55003 29.47 5.18003 29.34 5.77003 29.19C6.12003 29.1 6.48003 29.28 6.69003 29.59C7.73003 31.13 8.93003 32.58 10.24 33.92C11.11 34.77 12.03 35.58 12.99 36.32C14.97 37.85 17 35.44 14.88 33.93C14.02 33.26 13.19 32.54 12.4 31.77C11.12 30.46 9.98003 29.05 8.99003 27.59C8.99003 27.58 8.98003 27.58 8.98003 27.57C8.91003 27.47 8.84003 27.36 8.78003 27.26C7.78003 25.9 6.44003 25.99 4.82003 26.41C4.41003 26.53 3.97003 26.65 3.53003 26.75C3.13003 26.82 2.56003 26.7 2.27003 26.05C0.530032 21.41 0.310031 16.6 2.09003 12.61C1.12003 14.71 0.46003 16.78 0.21003 18.94C0.0600302 20.23 0.0500302 21.54 0.21003 22.91C0.26003 23.61 0.330031 24.28 0.410031 24.88C0.570031 26.04 0.810031 27.08 1.07003 27.98C1.64003 29.74 3.22003 29.63 3.89003 29.56C3.89003 29.57 3.89003 29.56 3.89003 29.56Z" fill="url(#paint2_linear)"/>
<path d="M8.47043 35.69C7.52043 34.72 6.65043 33.6999 5.87043 32.6299C4.77043 30.9799 2.77043 32.17 3.53043 33.47C3.61043 33.6 3.69043 33.74 3.79043 33.9C4.65043 35.21 5.63043 36.4 6.71043 37.47C7.78043 38.55 8.97043 39.53 10.2804 40.39C11.9804 41.42 12.0104 41.4399 12.9504 41.8799C13.8204 42.2499 16.0904 43.35 19.3104 43.78C19.9104 43.86 20.5804 43.93 21.2804 43.98C22.6504 44.14 23.9604 44.13 25.2504 43.98C27.4104 43.73 29.4804 43.06 31.5804 42.1C24.6004 45.19 15.1404 42.22 8.47043 35.69Z" fill="url(#paint3_linear)"/>
<path d="M22.4601 38.24C22.9801 37.31 23.4601 36.34 23.8701 35.3C24.3701 34.06 25.5101 31.9 22.7201 30.23C20.9901 29.15 19.3201 27.83 17.8101 26.35C16.2501 24.76 14.8701 23.01 13.7601 21.18C12.3301 18.82 11.3801 16.45 10.8901 14.19C10.3501 11.9 7.24014 13 7.47014 15.33C8.28014 20.18 11.0501 25.19 14.9701 29.19C16.4801 30.67 18.1301 31.98 19.8601 33.09C20.3501 33.41 20.3701 33.51 20.2201 33.9C19.8401 34.83 19.3701 35.7 18.8401 36.58C18.2601 37.5 17.6001 39.28 19.8501 40.31C23.5601 41.78 27.4601 42.29 31.1701 41.45C35.0601 40.57 37.2401 38.55 39.6101 35.49C35.6801 40.14 28.9901 40.68 22.4601 38.24Z" fill="url(#paint4_linear)"/>
<path d="M22.41 18.5201C20.57 16.7401 17.41 18.9401 19.38 21.6501C21.81 24.2201 24.93 21.3501 22.8 18.9901C22.8 18.9801 22.79 18.9801 22.79 18.9801C22.66 18.8301 22.53 18.6701 22.41 18.5201Z" fill="#1F4696"/>
<path d="M35.0796 8.22003C37.8396 10.51 38.5196 13 37.3096 14.49C36.0996 15.99 32.8196 14.56 31.0796 13.16C29.3396 11.76 27.6396 8.99003 28.8496 7.50003C30.0596 5.99003 33.3496 6.79003 35.0796 8.22003Z" fill="url(#paint5_linear)"/>
<defs>
<linearGradient id="paint0_linear" x1="28.4888" y1="34.4731" x2="152.855" y2="6.9155" gradientUnits="userSpaceOnUse">
<stop stop-color="#EBBA43"/>
<stop offset="0.1204" stop-color="#F6D773"/>
<stop offset="0.2097" stop-color="#FDEA92"/>
<stop offset="0.4462" stop-color="#9F6327"/>
<stop offset="0.6667" stop-color="#EAA24D"/>
<stop offset="1" stop-color="#EBBA43"/>
</linearGradient>
<linearGradient id="paint1_linear" x1="34.741" y1="30.6823" x2="43.8111" y2="30.6823" gradientUnits="userSpaceOnUse">
<stop stop-color="#FDEA92"/>
<stop offset="0.0354" stop-color="#F3DC87"/>
<stop offset="0.1602" stop-color="#D5B165"/>
<stop offset="0.2809" stop-color="#BE8F4A"/>
<stop offset="0.3952" stop-color="#AD7737"/>
<stop offset="0.5002" stop-color="#A3682B"/>
<stop offset="0.5874" stop-color="#9F6327"/>
<stop offset="0.9984" stop-color="#FFCC33"/>
</linearGradient>
<linearGradient id="paint2_linear" x1="7.92923" y1="36.818" x2="7.92923" y2="12.6017" gradientUnits="userSpaceOnUse">
<stop stop-color="#FDEA92"/>
<stop offset="0.4503" stop-color="#C59952"/>
<stop offset="0.7749" stop-color="#9F6327"/>
<stop offset="0.9984" stop-color="#FFCC33"/>
</linearGradient>
<linearGradient id="paint3_linear" x1="3.36113" y1="37.9596" x2="31.5675" y2="37.9596" gradientUnits="userSpaceOnUse">
<stop stop-color="#FDEA92"/>
<stop offset="0.4503" stop-color="#C59952"/>
<stop offset="0.7749" stop-color="#9F6327"/>
<stop offset="0.9984" stop-color="#FFCC33"/>
</linearGradient>
<linearGradient id="paint4_linear" x1="7.46754" y1="27.3812" x2="39.6288" y2="27.3812" gradientUnits="userSpaceOnUse">
<stop stop-color="#FDEA92"/>
<stop offset="0.1319" stop-color="#E4C675"/>
<stop offset="0.3097" stop-color="#C69B54"/>
<stop offset="0.4704" stop-color="#B17C3B"/>
<stop offset="0.6066" stop-color="#A46A2C"/>
<stop offset="0.7022" stop-color="#9F6327"/>
<stop offset="0.9984" stop-color="#FFCC33"/>
</linearGradient>
<linearGradient id="paint5_linear" x1="30.1588" y1="12.6633" x2="36.3277" y2="9.10183" gradientUnits="userSpaceOnUse">
<stop stop-color="#FDEA92"/>
<stop offset="0.0994" stop-color="#E2C373"/>
<stop offset="0.2052" stop-color="#CAA058"/>
<stop offset="0.3131" stop-color="#B78542"/>
<stop offset="0.4225" stop-color="#AA7233"/>
<stop offset="0.5344" stop-color="#A2672A"/>
<stop offset="0.6524" stop-color="#9F6327"/>
<stop offset="0.9984" stop-color="#FFCC33"/>
</linearGradient>
</defs>
</svg>
