<svg width="28" height="27" viewBox="0 0 28 27" fill="none" xmlns="http://www.w3.org/2000/svg">
<path d="M14 0C6.26882 0 0 6.04375 0 13.4994C0 20.9551 6.26821 26.9988 14 26.9988C21.7324 26.9988 28 20.9551 28 13.4994C28 6.04375 21.7324 0 14 0ZM14 4.03648C16.5582 4.03648 18.6312 6.03604 18.6312 8.50169C18.6312 10.9679 16.5582 12.9669 14 12.9669C11.443 12.9669 9.37003 10.9679 9.37003 8.50169C9.37003 6.03604 11.443 4.03648 14 4.03648ZM13.9969 23.4693C11.4455 23.4693 9.10867 22.5733 7.30625 21.0903C6.86717 20.7291 6.61381 20.1996 6.61381 19.644C6.61381 17.1433 8.71264 15.142 11.3065 15.142H16.6947C19.2892 15.142 21.38 17.1433 21.38 19.644C21.38 20.2002 21.1279 20.7285 20.6882 21.0897C18.8864 22.5733 16.549 23.4693 13.9969 23.4693Z" fill="#CAAA5F"/>
</svg>
